<svg width="24" height="24" viewBox="0 0 20 20" fill="none" xmlns="http://www.w3.org/2000/svg">
<path fill-rule="evenodd" clip-rule="evenodd" d="M10 2C5.58 2 2 5.58 2 10C2 13.54 4.29 16.53 7.47 17.59C7.87 17.66 8.02 17.42 8.02 17.21C8.02 17.02 8.01 16.39 8.01 15.72C6 16.09 5.48 15.23 5.32 14.78C5.23 14.55 4.84 13.84 4.5 13.65C4.22 13.5 3.82 13.13 4.49 13.12C5.12 13.11 5.57 13.7 5.72 13.94C6.44 15.15 7.59 14.81 8.05 14.6C8.12 14.08 8.33 13.73 8.56 13.53C6.78 13.33 4.92 12.64 4.92 9.58C4.92 8.71 5.23 7.99 5.74 7.43C5.66 7.23 5.38 6.41 5.82 5.31C5.82 5.31 6.49 5.1 8.02 6.13C8.66 5.95 9.34 5.86 10.02 5.86C10.7 5.86 11.38 5.95 12.02 6.13C13.55 5.09 14.22 5.31 14.22 5.31C14.66 6.41 14.38 7.23 14.3 7.43C14.81 7.99 15.12 8.7 15.12 9.58C15.12 12.65 13.25 13.33 11.47 13.53C11.76 13.78 12.01 14.26 12.01 15.01C12.01 16.08 12 16.94 12 17.21C12 17.42 12.15 17.67 12.55 17.59C14.1381 17.0538 15.5181 16.0331 16.4958 14.6716C17.4734 13.31 17.9995 11.6762 18 10C18 5.58 14.42 2 10 2Z" fill="white"/>
</svg>
