<svg width="20" height="20" viewBox="0 0 20 20" fill="none" xmlns="http://www.w3.org/2000/svg">
<path d="M15.5535 5.03729C14.5178 4.55271 13.4104 4.20053 12.2526 4C12.1104 4.25707 11.9443 4.60284 11.8298 4.8779C10.599 4.69281 9.37956 4.69281 8.17144 4.8779C8.05693 4.60284 7.88704 4.25707 7.74357 4C6.58454 4.20053 5.47584 4.554 4.44013 5.03985C2.3511 8.19666 1.78479 11.2751 2.06794 14.3097C3.4535 15.3444 4.79627 15.973 6.11638 16.3843C6.44233 15.9357 6.73302 15.4588 6.98345 14.9563C6.5065 14.775 6.04969 14.5514 5.61805 14.2917C5.73256 14.2069 5.84457 14.1182 5.95279 14.027C8.58546 15.2583 11.4459 15.2583 14.0472 14.027C14.1566 14.1182 14.2686 14.2069 14.3819 14.2917C13.949 14.5527 13.4909 14.7763 13.014 14.9576C13.2644 15.4588 13.5538 15.937 13.881 16.3856C15.2024 15.9743 16.5464 15.3457 17.932 14.3097C18.2642 10.7918 17.3644 7.74164 15.5535 5.03729ZM7.34212 12.4434C6.55181 12.4434 5.9037 11.7056 5.9037 10.8072C5.9037 9.90873 6.53797 9.16966 7.34212 9.16966C8.14628 9.16966 8.79437 9.90743 8.78053 10.8072C8.78178 11.7056 8.14628 12.4434 7.34212 12.4434ZM12.6578 12.4434C11.8675 12.4434 11.2194 11.7056 11.2194 10.8072C11.2194 9.90873 11.8537 9.16966 12.6578 9.16966C13.462 9.16966 14.1101 9.90743 14.0962 10.8072C14.0962 11.7056 13.462 12.4434 12.6578 12.4434Z" fill="#12161B"/>
</svg>
