<!-- <?xml version="1.0" standalone="no"?>
<!DOCTYPE svg PUBLIC "-//W3C//DTD SVG 20010904//EN"
 "http://www.w3.org/TR/2001/REC-SVG-20010904/DTD/svg10.dtd"> -->
<svg version="1.0" xmlns="http://www.w3.org/2000/svg"
 width="16.000000pt" height="16.000000pt" viewBox="0 0 16.000000 16.000000"
 preserveAspectRatio="xMidYMid meet">
    <style>
        path {
            fill: #000000;
        }

 @media (prefers-color-scheme: dark) {
    path {
        fill: #fff;
    }
 }
 </style>

<g transform="translate(0.000000,16.000000) scale(0.100000,-0.100000)"
fill="#000000" stroke="none">
<path d="M25 135 c-33 -32 -33 -78 1 -112 14 -14 28 -22 31 -19 4 3 -2 13 -13
21 -16 13 -16 14 -1 9 21 -8 22 5 1 21 -12 8 -15 20 -10 41 6 27 10 29 48 28
39 -1 42 -3 46 -33 2 -21 -2 -33 -12 -37 -20 -8 -21 -44 -2 -44 21 0 46 40 46
73 0 38 -40 77 -80 77 -19 0 -40 -9 -55 -25z"/>
</g>
</svg>
