<svg width="20" height="20" viewBox="0 0 20 20" fill="none" xmlns="http://www.w3.org/2000/svg">
<path d="M18 4.54287C17.4116 4.80359 16.7795 4.97975 16.115 5.05938C16.8007 4.64912 17.3136 4.00342 17.5582 3.24277C16.914 3.62539 16.209 3.89472 15.4738 4.03903C14.9794 3.51115 14.3245 3.16126 13.6109 3.04368C12.8973 2.92611 12.1648 3.04743 11.5272 3.38881C10.8895 3.73019 10.3825 4.27253 10.0847 4.93163C9.78686 5.59073 9.71499 6.32971 9.88021 7.03384C8.57496 6.9683 7.29807 6.62904 6.13242 6.03809C4.96677 5.44713 3.93841 4.61767 3.11407 3.60355C2.8322 4.08977 2.67013 4.6535 2.67013 5.25387C2.66982 5.79434 2.80291 6.32653 3.05761 6.80322C3.3123 7.27992 3.68073 7.68638 4.13019 7.98654C3.60893 7.96995 3.09918 7.8291 2.64335 7.57572V7.618C2.6433 8.37603 2.90551 9.11073 3.38549 9.69745C3.86547 10.2842 4.53365 10.6867 5.27667 10.8369C4.79312 10.9678 4.28615 10.987 3.79406 10.8933C4.0037 11.5455 4.41205 12.1159 4.96194 12.5245C5.51184 12.9331 6.17575 13.1596 6.86074 13.1721C5.69794 14.085 4.26188 14.5801 2.78358 14.5779C2.52172 14.578 2.26007 14.5627 2 14.5321C3.50056 15.4969 5.24731 16.009 7.03127 16.007C13.0702 16.007 16.3715 11.0053 16.3715 6.66741C16.3715 6.52648 16.368 6.38414 16.3617 6.24321C17.0038 5.77882 17.5581 5.20376 17.9986 4.54498L18 4.54287Z" fill="#12161B"/>
</svg>
