<svg id="Layer_1" data-name="Layer 1" xmlns="http://www.w3.org/2000/svg" viewBox="0 0 122.88 122.88"><defs><style>.cls-1{fill:#00a912;fill-rule:evenodd;}</style></defs><title>work-started</title><path d="M101.64,14.77a5.92,5.92,0,0,0-8.52,0l-6.49,6.47a42.27,42.27,0,0,0-5.51-3A55.41,55.41,0,0,0,75.24,16V6A5.77,5.77,0,0,0,73.5,1.74,5.76,5.76,0,0,0,69.24,0H56.75a5.83,5.83,0,0,0-4.2,1.74A5.77,5.77,0,0,0,50.77,6v9.11A44.41,44.41,0,0,0,44.71,17a45.38,45.38,0,0,0-5.59,2.58l-7.19-7.09a5.5,5.5,0,0,0-4.16-1.8,5.88,5.88,0,0,0-4.26,1.8l-8.74,8.77a5.92,5.92,0,0,0,0,8.52l6.47,6.49a42.27,42.27,0,0,0-3,5.51A53.34,53.34,0,0,0,16,47.64H6a5.77,5.77,0,0,0-4.26,1.74A5.76,5.76,0,0,0,0,53.64V66.13a5.83,5.83,0,0,0,1.74,4.2A5.73,5.73,0,0,0,6,72.11h9.12A44.39,44.39,0,0,0,17,78.17a56.7,56.7,0,0,0,2.58,5.72L12.47,91a5.5,5.5,0,0,0-1.8,4.16,5.88,5.88,0,0,0,1.8,4.26l8.77,8.87a6.24,6.24,0,0,0,8.52,0l6.49-6.59a44.14,44.14,0,0,0,5.51,3,57.72,57.72,0,0,0,5.88,2.3v9.95a5.94,5.94,0,0,0,6,6H66.13a5.83,5.83,0,0,0,4.2-1.74,5.73,5.73,0,0,0,1.78-4.26v-9.11a44.41,44.41,0,0,0,6.06-1.87,54.56,54.56,0,0,0,5.72-2.58L91,110.41a5.82,5.82,0,0,0,8.42,0l8.87-8.76a6.25,6.25,0,0,0,0-8.53l-6.6-6.49a42.27,42.27,0,0,0,3-5.51,57.72,57.72,0,0,0,2.3-5.88h9.95a5.94,5.94,0,0,0,6-6V56.75a5.83,5.83,0,0,0-1.74-4.2,5.73,5.73,0,0,0-4.26-1.78h-9.11a51.84,51.84,0,0,0-1.87-6,44.42,44.42,0,0,0-2.58-5.66l7.09-7.18a5.5,5.5,0,0,0,1.8-4.16,5.88,5.88,0,0,0-1.8-4.26l-8.77-8.74Zm-40.2,10A36.63,36.63,0,1,1,35.52,35.52,36.53,36.53,0,0,1,61.44,24.79Z"/><path class="cls-1" d="M61.44,32.87A28.58,28.58,0,1,1,32.87,61.44,28.58,28.58,0,0,1,61.44,32.87Zm-8.9,24,5.08,4.79,12-12.17c1-1,1.62-1.82,2.85-.56l4,4.08c1.31,1.3,1.24,2.06,0,3.26L59.9,72.59c-2.6,2.55-2.15,2.71-4.79.09l-9.27-9.22A1.15,1.15,0,0,1,46,61.67l4.62-4.79c.7-.74,1.26-.67,2,0Z"/></svg>