<?xml version="1.0" encoding="utf-8"?><svg version="1.1" id="Layer_1" xmlns="http://www.w3.org/2000/svg" xmlns:xlink="http://www.w3.org/1999/xlink" x="0px" y="0px" viewBox="0 0 116.96 122.88" style="enable-background:new 0 0 116.96 122.88" xml:space="preserve"><style type="text/css">.st0{fill-rule:evenodd;clip-rule:evenodd;}</style><g><path class="st0" d="M91.53,67.05c0.03,0.85,0.05,1.71,0.05,2.58c0,2.38-0.12,4.71-0.37,6.99l14.92,7.57 c1.58,0.8,2.62,2.26,2.93,3.88l6.36,28.08c0.67,2.97-1.2,5.92-4.17,6.59c-2.97,0.67-5.92-1.2-6.59-4.17l-5.82-25.7l-9.88-5.01 c-4.98,16.53-16.52,28.11-29.96,28.11c-13.52,0-25.11-11.72-30.04-28.41l-10.8,4.9l-4.95,25.94c-0.57,3-3.47,4.96-6.46,4.39 c-3-0.57-4.96-3.47-4.39-6.46l5.47-28.64c0.3-1.75,1.44-3.32,3.17-4.1l15.77-7.16c-0.23-2.24-0.35-4.53-0.35-6.79v-0.01 c0-0.87,0.02-1.74,0.05-2.61L9.83,61.27c-1.74-0.6-2.99-1.99-3.48-3.64l-0.02,0l-6.1-20.21c-0.87-2.92,0.79-6,3.72-6.87 c2.92-0.87,6,0.79,6.87,3.72l5.28,17.5l13.33,4.6l59.22,0l12.21-4.21l5.28-17.5c0.87-2.92,3.95-4.59,6.87-3.72 c2.92,0.87,4.59,3.95,3.72,6.87l-6.1,20.21l-0.02,0c-0.49,1.64-1.74,3.03-3.48,3.63L91.53,67.05L91.53,67.05L91.53,67.05z M58.66,25.55c2.07,0,4.09,0.39,6.03,1.11c0.71-1.57,1.35-3.04,1.94-4.38C72.81,8.23,73.61,6.4,94.9,0.15 c1.99-0.58,4.08,0.56,4.67,2.55c0.59,1.99-0.56,4.08-2.55,4.67c-17.93,5.26-18.57,6.72-23.5,17.95c-0.69,1.56-1.45,3.29-2.35,5.27 c5.61,4.84,10.02,12.84,12.28,22.51l-49.58,0c2.27-9.67,6.67-17.67,12.28-22.51c-0.91-1.98-1.67-3.71-2.35-5.27 c-4.93-11.23-5.58-12.69-23.5-17.95c-1.99-0.58-3.13-2.68-2.55-4.67c0.59-1.99,2.67-3.13,4.67-2.55C43.7,6.4,44.5,8.23,50.68,22.28 c0.59,1.34,1.24,2.81,1.95,4.38C54.56,25.94,56.58,25.55,58.66,25.55L58.66,25.55L58.66,25.55z M67.99,36.6 c2.77,0,5.02,2.25,5.02,5.02c0,2.77-2.25,5.02-5.02,5.02c-2.77,0-5.02-2.25-5.02-5.02C62.97,38.85,65.22,36.6,67.99,36.6 L67.99,36.6z M49.32,36.6c2.77,0,5.02,2.25,5.02,5.02c0,2.77-2.25,5.02-5.02,5.02s-5.02-2.25-5.02-5.02 C44.3,38.85,46.55,36.6,49.32,36.6L49.32,36.6z"/></g></svg>