<svg id="Layer_1" data-name="Layer 1" xmlns="http://www.w3.org/2000/svg" viewBox="0 0 122.88 120.04"><title>wait-sandclock</title><path d="M62.86,8.32a4.16,4.16,0,1,1,0-8.32,60,60,0,1,1-52.1,30.22L6.88,31.7a5.07,5.07,0,1,1-3.61-9.48l13.2-5A5.06,5.06,0,0,1,18,16.85a5,5,0,0,1,5.64,3.53l4.14,13.51a5.06,5.06,0,0,1-9.68,2.93L17.58,35A51.73,51.73,0,1,0,62.86,8.32ZM41.05,84.05c-2.18,0-3.95-1.47-3.95-3.28s1.77-3.28,3.95-3.28h3.79a24.81,24.81,0,0,1,5.43-12.76A22.24,22.24,0,0,1,55.52,60a22.51,22.51,0,0,1-5.25-4.79,24.81,24.81,0,0,1-5.43-12.75H41.05c-2.18,0-3.95-1.47-3.95-3.29s1.77-3.28,3.95-3.28H84.56c2.18,0,4,1.47,4,3.28s-1.77,3.29-4,3.29h-3.8a24.8,24.8,0,0,1-5.42,12.75A22.55,22.55,0,0,1,70.08,60a22.28,22.28,0,0,1,5.26,4.78,24.79,24.79,0,0,1,5.42,12.76h3.8c2.18,0,4,1.47,4,3.28s-1.77,3.28-4,3.28ZM76,77.22a20.15,20.15,0,0,0-4.31-9.54c-2.58-3.2-5.88-5.38-8.88-5.38s-6.29,2.18-8.87,5.38a20.16,20.16,0,0,0-4.32,9.54Zm-4.31-25A20.23,20.23,0,0,0,76,42.67H49.61a20.24,20.24,0,0,0,4.32,9.55c2.58,3.2,5.87,5.37,8.87,5.37s6.3-2.17,8.88-5.37Z"/></svg>