<svg width="60" height="54" viewBox="0 0 60 54" fill="none" xmlns="http://www.w3.org/2000/svg">
<path fill-rule="evenodd" clip-rule="evenodd" d="M46.8593 0.679394C46.8593 6.55388 41.6445 11.954 35.7044 12.2307L34.5031 12.2867V12.9588V13.631L35.067 13.6313C41.2368 13.6344 46.8593 19.113 46.8593 25.1219V25.8892H47.5457H48.2322L48.2342 25.2272C48.2508 19.5497 53.084 14.3229 58.8874 13.7066L60 13.5885V12.9381V12.2877L59.0929 12.2275C53.5002 11.8565 48.5738 6.77511 48.2605 1.0542L48.2028 0H47.531H46.8593V0.679394ZM8.28738 1.54452C8.01084 5.38544 4.6731 8.62972 0.998214 8.62972H0.278417V9.2543V9.87887L1.28358 9.92663C5.00005 10.1033 8.30778 13.5398 8.31808 17.2349L8.31975 17.8478H8.8899H9.46014L9.57292 16.7694C9.9694 12.977 13.186 9.9129 16.7779 9.90604L17.5379 9.90456V9.28136V8.65826L16.5817 8.60344C12.9023 8.3925 9.84534 5.31816 9.53703 1.51863L9.46956 0.686455H8.90931H8.34907L8.28738 1.54452ZM48.5234 5.83487C50.0729 8.98305 52.9296 11.503 56.1883 12.5964C57.3527 12.9869 57.3702 12.9992 56.891 13.0884C53.268 13.7635 49.007 17.8413 47.8339 21.7562C47.5439 22.7238 47.5352 22.7258 47.3165 21.877C46.3951 18.3004 42.7473 14.5826 38.8894 13.2882C38.342 13.1045 37.9585 12.9335 38.0373 12.9081C38.1161 12.8827 38.4894 12.7644 38.867 12.6454C42.5791 11.4745 46.0756 7.97798 47.2465 4.26583C47.3656 3.88828 47.4864 3.51318 47.5149 3.43227C47.5435 3.35137 47.6518 3.59408 47.7555 3.97163C47.8593 4.34918 48.2048 5.18764 48.5234 5.83487ZM9.13604 4.19228C9.81475 6.02825 11.9112 8.14822 13.8726 8.98177L14.5041 9.25018L13.7276 9.61517C11.6972 10.5695 10.0068 12.2802 9.19674 14.2002L8.92089 14.8541L8.81321 14.5709C7.98005 12.3795 5.88116 10.2494 3.77934 9.4621L3.30863 9.28578L4.08687 8.91989C5.5449 8.23462 6.73325 7.26269 7.67919 5.98196C8.14245 5.35464 8.81007 4.09716 8.81007 3.8518C8.81007 3.58026 8.97257 3.74991 9.13604 4.19228ZM21.1697 15.7381C18.8295 19.7138 16.8513 22.991 16.7737 23.0208C16.6963 23.0506 12.8982 22.6744 8.33377 22.1849C3.76934 21.6954 0.0191334 21.3106 0.0001088 21.3296C-0.0190139 21.3487 2.48508 24.178 5.56451 27.6171C8.64405 31.0562 11.1633 33.9167 11.163 33.9737C11.1627 34.0309 9.62009 37.4958 7.73508 41.6738C5.85008 45.8517 4.31977 49.2821 4.33458 49.2968C4.34929 49.3115 7.80049 47.8268 12.0039 45.9973C16.2071 44.1678 19.6949 42.6571 19.7543 42.6401C19.8137 42.6232 22.6477 45.1136 26.0521 48.1744C29.4565 51.2352 32.2876 53.7396 32.3436 53.7396C32.4082 53.7396 32.4247 53.5516 32.3887 53.2248C31.7971 47.8548 30.8129 37.1061 30.9073 37.0452C30.9702 37.0045 34.2793 35.1133 38.2607 32.8424C42.2421 30.5716 45.4856 28.7003 45.4684 28.684C45.4514 28.6678 41.7305 27.8502 37.1999 26.8672C32.6693 25.8841 28.9543 25.0736 28.9444 25.066C28.9346 25.0584 28.1507 21.3683 27.2027 16.8655C26.2546 12.3628 25.4667 8.6407 25.4518 8.59412C25.4369 8.54754 23.5099 11.7623 21.1697 15.7381ZM25.6671 14.2439C26.9856 20.5317 28.1133 25.8081 28.1449 25.8387C28.1723 25.8652 41.5023 28.7857 42.5272 28.9898C42.991 29.0822 43.265 28.9111 36.3579 32.8396C32.9283 34.7901 30.0455 36.4422 29.9516 36.5109C29.7907 36.6286 29.8231 37.0578 30.5216 44.0296C30.9289 48.0963 31.2453 51.4405 31.2245 51.4612C31.2038 51.4819 28.7446 49.3043 25.7598 46.6222C22.7749 43.9401 20.2617 41.6849 20.1749 41.6108C20.0374 41.4935 19.1288 41.8629 13.1285 44.4758C9.33972 46.1257 6.22782 47.4618 6.21321 47.445C6.1986 47.4282 7.57445 44.3397 9.27068 40.5817L12.3548 33.749L7.36312 28.1765C4.05264 24.4808 2.42447 22.5944 2.52881 22.5755C2.61521 22.5599 5.97148 22.9013 9.98715 23.3343C15.7543 23.956 17.3113 24.0959 17.3977 24.0001C17.4579 23.9334 19.174 21.0436 21.2112 17.5781C23.2483 14.1127 24.9443 11.2775 24.98 11.2775C25.0157 11.2775 25.3248 12.6124 25.6671 14.2439Z" fill="black"/>
<path fill-rule="evenodd" clip-rule="evenodd" d="M46.8593 0.679394C46.8593 6.55388 41.6445 11.954 35.7044 12.2307L34.5031 12.2867V12.9588V13.631L35.067 13.6313C41.2368 13.6344 46.8593 19.113 46.8593 25.1219V25.8892H47.5457H48.2322L48.2342 25.2272C48.2508 19.5497 53.084 14.3229 58.8874 13.7066L60 13.5885V12.9381V12.2877L59.0929 12.2275C53.5002 11.8565 48.5738 6.77511 48.2605 1.0542L48.2028 0H47.531H46.8593V0.679394ZM8.28738 1.54452C8.01084 5.38544 4.6731 8.62972 0.998214 8.62972H0.278417V9.2543V9.87887L1.28358 9.92663C5.00005 10.1033 8.30778 13.5398 8.31808 17.2349L8.31975 17.8478H8.8899H9.46014L9.57292 16.7694C9.9694 12.977 13.186 9.9129 16.7779 9.90604L17.5379 9.90456V9.28136V8.65826L16.5817 8.60344C12.9023 8.3925 9.84534 5.31816 9.53703 1.51863L9.46956 0.686455H8.90931H8.34907L8.28738 1.54452ZM48.5234 5.83487C50.0729 8.98305 52.9296 11.503 56.1883 12.5964C57.3527 12.9869 57.3702 12.9992 56.891 13.0884C53.268 13.7635 49.007 17.8413 47.8339 21.7562C47.5439 22.7238 47.5352 22.7258 47.3165 21.877C46.3951 18.3004 42.7473 14.5826 38.8894 13.2882C38.342 13.1045 37.9585 12.9335 38.0373 12.9081C38.1161 12.8827 38.4894 12.7644 38.867 12.6454C42.5791 11.4745 46.0756 7.97798 47.2465 4.26583C47.3656 3.88828 47.4864 3.51318 47.5149 3.43227C47.5435 3.35137 47.6518 3.59408 47.7555 3.97163C47.8593 4.34918 48.2048 5.18764 48.5234 5.83487ZM9.13604 4.19228C9.81475 6.02825 11.9112 8.14822 13.8726 8.98177L14.5041 9.25018L13.7276 9.61517C11.6972 10.5695 10.0068 12.2802 9.19674 14.2002L8.92089 14.8541L8.81321 14.5709C7.98005 12.3795 5.88116 10.2494 3.77934 9.4621L3.30863 9.28578L4.08687 8.91989C5.5449 8.23462 6.73325 7.26269 7.67919 5.98196C8.14245 5.35464 8.81007 4.09716 8.81007 3.8518C8.81007 3.58026 8.97257 3.74991 9.13604 4.19228ZM21.1697 15.7381C18.8295 19.7138 16.8513 22.991 16.7737 23.0208C16.6963 23.0506 12.8982 22.6744 8.33377 22.1849C3.76934 21.6954 0.0191334 21.3106 0.0001088 21.3296C-0.0190139 21.3487 2.48508 24.178 5.56451 27.6171C8.64405 31.0562 11.1633 33.9167 11.163 33.9737C11.1627 34.0309 9.62009 37.4958 7.73508 41.6738C5.85008 45.8517 4.31977 49.2821 4.33458 49.2968C4.34929 49.3115 7.80049 47.8268 12.0039 45.9973C16.2071 44.1678 19.6949 42.6571 19.7543 42.6401C19.8137 42.6232 22.6477 45.1136 26.0521 48.1744C29.4565 51.2352 32.2876 53.7396 32.3436 53.7396C32.4082 53.7396 32.4247 53.5516 32.3887 53.2248C31.7971 47.8548 30.8129 37.1061 30.9073 37.0452C30.9702 37.0045 34.2793 35.1133 38.2607 32.8424C42.2421 30.5716 45.4856 28.7003 45.4684 28.684C45.4514 28.6678 41.7305 27.8502 37.1999 26.8672C32.6693 25.8841 28.9543 25.0736 28.9444 25.066C28.9346 25.0584 28.1507 21.3683 27.2027 16.8655C26.2546 12.3628 25.4667 8.6407 25.4518 8.59412C25.4369 8.54754 23.5099 11.7623 21.1697 15.7381ZM25.6671 14.2439C26.9856 20.5317 28.1133 25.8081 28.1449 25.8387C28.1723 25.8652 41.5023 28.7857 42.5272 28.9898C42.991 29.0822 43.265 28.9111 36.3579 32.8396C32.9283 34.7901 30.0455 36.4422 29.9516 36.5109C29.7907 36.6286 29.8231 37.0578 30.5216 44.0296C30.9289 48.0963 31.2453 51.4405 31.2245 51.4612C31.2038 51.4819 28.7446 49.3043 25.7598 46.6222C22.7749 43.9401 20.2617 41.6849 20.1749 41.6108C20.0374 41.4935 19.1288 41.8629 13.1285 44.4758C9.33972 46.1257 6.22782 47.4618 6.21321 47.445C6.1986 47.4282 7.57445 44.3397 9.27068 40.5817L12.3548 33.749L7.36312 28.1765C4.05264 24.4808 2.42447 22.5944 2.52881 22.5755C2.61521 22.5599 5.97148 22.9013 9.98715 23.3343C15.7543 23.956 17.3113 24.0959 17.3977 24.0001C17.4579 23.9334 19.174 21.0436 21.2112 17.5781C23.2483 14.1127 24.9443 11.2775 24.98 11.2775C25.0157 11.2775 25.3248 12.6124 25.6671 14.2439Z" fill="url(#paint0_linear_965_2940)"/>
<defs>
<linearGradient id="paint0_linear_965_2940" x1="15.5" y1="4.03047" x2="38.0656" y2="53.9527" gradientUnits="userSpaceOnUse">
<stop stop-color="#9934BD"/>
<stop offset="1" stop-color="#4479E0"/>
</linearGradient>
</defs>
</svg>
