<svg width="149" height="53" viewBox="0 0 149 53" fill="none" xmlns="http://www.w3.org/2000/svg">
<g filter="url(#filter0_d_251_4630)">
<rect x="4" width="141" height="45" rx="10" fill="#718CD8"/>
<path d="M34.6641 16.0448C33.4213 15.4633 32.0924 15.0407 30.703 14.8C30.5324 15.1085 30.333 15.5235 30.1956 15.8535C28.7187 15.6314 27.2554 15.6314 25.8056 15.8535C25.6682 15.5235 25.4643 15.1085 25.2922 14.8C23.9013 15.0407 22.5709 15.4648 21.3281 16.0479C18.8212 19.836 18.1417 23.5301 18.4814 27.1717C20.1441 28.4134 21.7554 29.1676 23.3396 29.6612C23.7307 29.1229 24.0795 28.5506 24.38 27.9476C23.8077 27.7301 23.2595 27.4617 22.7416 27.1501C22.879 27.0483 23.0134 26.9419 23.1432 26.8324C26.3025 28.31 29.735 28.31 32.8565 26.8324C32.9879 26.9419 33.1223 27.0483 33.2582 27.1501C32.7387 27.4632 32.189 27.7316 31.6167 27.9491C31.9172 28.5506 32.2645 29.1244 32.6572 29.6627C34.2428 29.1692 35.8556 28.4149 37.5183 27.1717C37.917 22.9502 36.8372 19.29 34.6641 16.0448ZM24.8104 24.9322C23.8621 24.9322 23.0843 24.0468 23.0843 22.9687C23.0843 21.8905 23.8455 21.0036 24.8104 21.0036C25.7754 21.0036 26.5532 21.889 26.5365 22.9687C26.538 24.0468 25.7754 24.9322 24.8104 24.9322ZM31.1893 24.9322C30.2409 24.9322 29.4632 24.0468 29.4632 22.9687C29.4632 21.8905 30.2243 21.0036 31.1893 21.0036C32.1543 21.0036 32.932 21.889 32.9154 22.9687C32.9154 24.0468 32.1543 24.9322 31.1893 24.9322Z" fill="white"/>
<path d="M49.026 20.143L48.883 18.232L49.949 18.167C50.2697 18.1497 50.4993 18.076 50.638 17.946C50.7853 17.8073 50.859 17.582 50.859 17.27V10.835H53.251V17.231C53.251 19.0163 52.2847 19.9653 50.352 20.078L49.026 20.143ZM59.2001 20.143C58.2728 20.143 57.4581 19.948 56.7561 19.558C56.0628 19.1593 55.5211 18.6047 55.1311 17.894C54.7411 17.1833 54.5461 16.3557 54.5461 15.411C54.5461 14.4577 54.7368 13.63 55.1181 12.928C55.5081 12.2173 56.0541 11.667 56.7561 11.277C57.4581 10.887 58.2728 10.692 59.2001 10.692C60.1275 10.692 60.9378 10.887 61.6311 11.277C62.3331 11.667 62.8791 12.2173 63.2691 12.928C63.6591 13.63 63.8541 14.4577 63.8541 15.411C63.8541 16.3557 63.6591 17.1833 63.2691 17.894C62.8791 18.6047 62.3331 19.1593 61.6311 19.558C60.9378 19.948 60.1275 20.143 59.2001 20.143ZM59.2001 18.141C59.8761 18.141 60.4048 17.9027 60.7861 17.426C61.1761 16.9407 61.3711 16.269 61.3711 15.411C61.3711 14.553 61.1805 13.8857 60.7991 13.409C60.4178 12.9323 59.8848 12.694 59.2001 12.694C58.5155 12.694 57.9825 12.9323 57.6011 13.409C57.2198 13.8857 57.0291 14.553 57.0291 15.411C57.0291 16.269 57.2198 16.9407 57.6011 17.426C57.9825 17.9027 58.5155 18.141 59.2001 18.141ZM65.1365 20V10.835H67.5285V20H65.1365ZM69.0563 20V10.835H70.8113L75.0233 16.087V10.835H77.2333V20H75.4913L71.2793 14.748V20H69.0563ZM86.4235 20.143C85.0889 20.143 84.0662 19.805 83.3555 19.129C82.6535 18.453 82.3025 17.4433 82.3025 16.1V10.835H84.6945V16.126C84.6945 16.7933 84.8419 17.296 85.1365 17.634C85.4312 17.972 85.8602 18.141 86.4235 18.141C86.9782 18.141 87.4029 17.972 87.6975 17.634C87.9922 17.296 88.1395 16.7933 88.1395 16.126V10.835H90.4925V16.1C90.4925 17.4433 90.1459 18.453 89.4525 19.129C88.7679 19.805 87.7582 20.143 86.4235 20.143ZM95.3682 20.143C94.6488 20.143 93.9598 20.0563 93.3012 19.883C92.6425 19.701 92.1008 19.4627 91.6762 19.168L92.3392 17.309C92.7378 17.5777 93.2058 17.79 93.7432 17.946C94.2805 18.102 94.8222 18.18 95.3682 18.18C95.9402 18.18 96.3388 18.1063 96.5642 17.959C96.7982 17.803 96.9152 17.6123 96.9152 17.387C96.9152 17.1877 96.8328 17.0273 96.6682 16.906C96.5122 16.7847 96.2305 16.6807 95.8232 16.594L94.3022 16.269C92.6555 15.9137 91.8322 15.0513 91.8322 13.682C91.8322 13.084 91.9925 12.5597 92.3132 12.109C92.6425 11.6583 93.0975 11.3117 93.6782 11.069C94.2588 10.8177 94.9348 10.692 95.7062 10.692C96.3388 10.692 96.9368 10.783 97.5002 10.965C98.0722 11.1383 98.5358 11.3767 98.8912 11.68L98.2282 13.422C97.8988 13.1793 97.5175 12.993 97.0842 12.863C96.6508 12.7243 96.1828 12.655 95.6802 12.655C95.1948 12.655 94.8222 12.7417 94.5622 12.915C94.3022 13.0797 94.1722 13.2963 94.1722 13.565C94.1722 13.7557 94.2502 13.9117 94.4062 14.033C94.5622 14.1543 94.8395 14.2583 95.2382 14.345L96.7462 14.67C98.4188 15.0253 99.2552 15.866 99.2552 17.192C99.2552 17.79 99.0948 18.31 98.7742 18.752C98.4535 19.194 98.0028 19.5363 97.4222 19.779C96.8415 20.0217 96.1568 20.143 95.3682 20.143ZM108.31 20.143C107.382 20.143 106.568 19.948 105.866 19.558C105.172 19.1593 104.631 18.6047 104.241 17.894C103.851 17.1833 103.656 16.3557 103.656 15.411C103.656 14.4577 103.846 13.63 104.228 12.928C104.618 12.2173 105.164 11.667 105.866 11.277C106.568 10.887 107.382 10.692 108.31 10.692C109.237 10.692 110.047 10.887 110.741 11.277C111.443 11.667 111.989 12.2173 112.379 12.928C112.769 13.63 112.964 14.4577 112.964 15.411C112.964 16.3557 112.769 17.1833 112.379 17.894C111.989 18.6047 111.443 19.1593 110.741 19.558C110.047 19.948 109.237 20.143 108.31 20.143ZM108.31 18.141C108.986 18.141 109.514 17.9027 109.896 17.426C110.286 16.9407 110.481 16.269 110.481 15.411C110.481 14.553 110.29 13.8857 109.909 13.409C109.527 12.9323 108.994 12.694 108.31 12.694C107.625 12.694 107.092 12.9323 106.711 13.409C106.329 13.8857 106.139 14.553 106.139 15.411C106.139 16.269 106.329 16.9407 106.711 17.426C107.092 17.9027 107.625 18.141 108.31 18.141ZM114.246 20V10.835H116.001L120.213 16.087V10.835H122.423V20H120.681L116.469 14.748V20H114.246Z" fill="white"/>
<g clip-path="url(#clip0_251_4630)">
<path d="M49.2146 25.0656H54.0425C55.2063 25.0656 56.1895 25.2516 56.9961 25.6219C57.8006 25.9922 58.4038 26.5088 58.8035 27.1699C59.203 27.831 59.4045 28.5878 59.4045 29.4404C59.4045 30.2749 59.1959 31.0317 58.7786 31.709C58.3612 32.3882 57.7263 32.9247 56.8722 33.3202C56.0181 33.7158 54.9603 33.9145 53.696 33.9145H49.2146V25.0656ZM53.6464 31.6657C54.4299 31.6657 55.0331 31.4652 55.4538 31.066C55.8748 30.665 56.0853 30.1195 56.0853 29.4277C56.0853 28.7865 55.8976 28.2753 55.5228 27.8924C55.148 27.5094 54.5803 27.3162 53.8215 27.3162H52.3112V31.6657H53.6464Z" fill="white"/>
<path d="M66.6326 33.9039C65.9641 33.7268 65.3609 33.4703 64.8252 33.1326V31.0337C65.2302 31.3534 65.773 31.6171 66.4538 31.8248C67.1347 32.0307 67.7927 32.1337 68.4292 32.1337C68.7263 32.1337 68.951 32.094 69.103 32.0145C69.2552 31.935 69.3314 31.8393 69.3314 31.7291C69.3314 31.6027 69.2907 31.4979 69.2075 31.413C69.1242 31.3281 68.9633 31.2576 68.7248 31.198L67.2392 30.8566C66.3885 30.6544 65.7853 30.3744 65.4265 30.0149C65.0675 29.6573 64.8887 29.1876 64.8887 28.606C64.8887 28.1165 65.0443 27.6921 65.3593 27.329C65.6722 26.9659 66.1179 26.6859 66.6961 26.4891C67.2746 26.2904 67.9499 26.191 68.7263 26.191C69.4195 26.191 70.0544 26.2669 70.633 26.4186C71.2112 26.5704 71.6886 26.7636 72.069 27.0002V28.9854C71.6797 28.7487 71.234 28.5627 70.7248 28.4218C70.2172 28.2827 69.6957 28.2141 69.1578 28.2141C68.3814 28.2141 67.9943 28.3495 67.9943 28.6187C67.9943 28.7451 68.0544 28.839 68.1746 28.9023C68.2948 28.9655 68.5158 29.0305 68.8361 29.0991L70.0739 29.3267C70.8823 29.4694 71.4852 29.7205 71.8813 30.0781C72.2776 30.4358 72.4755 30.965 72.4755 31.6659C72.4755 32.4335 72.1485 33.0423 71.4923 33.4938C70.8361 33.9454 69.9059 34.1712 68.6998 34.1712C67.9906 34.1694 67.3011 34.0809 66.6326 33.9039Z" fill="white"/>
<path d="M75.3975 33.638C74.6886 33.2839 74.1526 32.8035 73.7953 32.1966C73.4381 31.5897 73.2578 30.9069 73.2578 30.1483C73.2578 29.3896 73.4434 28.7105 73.8148 28.1126C74.1862 27.5147 74.7308 27.0451 75.4489 26.7037C76.1668 26.3623 77.0246 26.1925 78.0238 26.1925C79.2616 26.1925 80.2892 26.458 81.1063 26.9891V29.3029C80.8181 29.1006 80.4819 28.9362 80.0981 28.8098C79.7144 28.6834 79.3041 28.6201 78.8656 28.6201C78.0981 28.6201 77.4986 28.7628 77.0652 29.05C76.6319 29.3372 76.4146 29.7111 76.4146 30.1753C76.4146 30.6305 76.6248 31.0026 77.0458 31.2953C77.4669 31.5861 78.0768 31.7324 78.8779 31.7324C79.29 31.7324 79.6968 31.6709 80.0981 31.5499C80.4979 31.4271 80.8428 31.2772 81.131 31.1002V33.3381C80.2239 33.8945 79.1716 34.1726 77.9742 34.1726C76.9663 34.169 76.1067 33.992 75.3975 33.638Z" fill="white"/>
<path d="M84.1938 33.6387C83.4794 33.2847 82.9347 32.8006 82.5596 32.1846C82.1849 31.5687 81.9956 30.8823 81.9956 30.1237C81.9956 29.365 82.183 28.6877 82.5596 28.0934C82.9363 27.4991 83.4775 27.0331 84.1886 26.6953C84.8975 26.3576 85.7448 26.1896 86.7262 26.1896C87.7078 26.1896 88.5548 26.3576 89.264 26.6953C89.9732 27.0331 90.5145 27.4955 90.8859 28.0862C91.2573 28.6768 91.4428 29.3542 91.4428 30.1219C91.4428 30.8805 91.2573 31.5669 90.8859 32.1828C90.5145 32.7988 89.9714 33.2828 89.2569 33.6369C88.5425 33.9909 87.6989 34.1679 86.7246 34.1679C85.75 34.1679 84.9064 33.9927 84.1938 33.6387ZM87.9553 31.3953C88.2562 31.0882 88.4081 30.6818 88.4081 30.1761C88.4081 29.6703 88.2577 29.2675 87.9553 28.9694C87.6548 28.6696 87.2443 28.5197 86.7246 28.5197C86.1957 28.5197 85.7818 28.6696 85.4794 28.9694C85.1789 29.2693 85.0285 29.6703 85.0285 30.1761C85.0285 30.6818 85.1789 31.0882 85.4794 31.3953C85.7802 31.7024 86.1957 31.8577 86.7246 31.8577C87.2443 31.8559 87.6548 31.7024 87.9553 31.3953Z" fill="white"/>
<path d="M98.8812 26.6585V29.3896C98.5665 29.1783 98.1596 29.0735 97.6557 29.0735C96.9958 29.0735 96.4866 29.2777 96.1328 29.6859C95.7774 30.0941 95.6005 30.7299 95.6005 31.5897V33.9162H92.5676V26.5195H95.5389V28.8713C95.7031 28.0114 95.9704 27.3775 96.3381 26.9674C96.7042 26.5592 97.178 26.3551 97.7546 26.3551C98.1914 26.3551 98.5665 26.4563 98.8812 26.6585Z" fill="white"/>
<path d="M108.958 24.8129V33.9165H105.925V32.2602C105.668 32.8833 105.279 33.3584 104.756 33.6835C104.232 34.0069 103.585 34.1694 102.818 34.1694C102.132 34.1694 101.534 33.9996 101.023 33.6582C100.512 33.3168 100.117 32.849 99.8397 32.2548C99.5639 31.6605 99.4239 30.9886 99.4239 30.2372C99.4153 29.4623 99.562 28.7668 99.8644 28.1509C100.165 27.5349 100.591 27.0545 101.139 26.7095C101.688 26.3645 102.314 26.1911 103.016 26.1911C104.461 26.1911 105.43 26.8323 105.925 28.1129V24.8129H108.958ZM105.472 31.3444C105.782 31.0373 105.936 30.6381 105.936 30.1505C105.936 29.679 105.785 29.2942 105.485 28.9998C105.184 28.7054 104.772 28.5573 104.254 28.5573C103.743 28.5573 103.334 28.7072 103.028 29.0071C102.722 29.3069 102.57 29.6952 102.57 30.1757C102.57 30.6562 102.722 31.0482 103.028 31.3516C103.334 31.6551 103.737 31.8068 104.241 31.8068C104.752 31.805 105.163 31.6514 105.472 31.3444Z" fill="white"/>
<path d="M61.9601 27.3073C62.7951 27.3073 63.4722 26.6862 63.4722 25.92C63.4722 25.1539 62.7951 24.5328 61.9601 24.5328C61.1248 24.5328 60.448 25.1539 60.448 25.92C60.448 26.6862 61.1248 27.3073 61.9601 27.3073Z" fill="white"/>
<path d="M60.4468 28.2623C61.3733 28.6705 62.5229 28.6886 63.4707 28.2623V33.9557H60.4468V28.2623Z" fill="white"/>
</g>
</g>
<defs>
<filter id="filter0_d_251_4630" x="0" y="0" width="149" height="53" filterUnits="userSpaceOnUse" color-interpolation-filters="sRGB">
<feFlood flood-opacity="0" result="BackgroundImageFix"/>
<feColorMatrix in="SourceAlpha" type="matrix" values="0 0 0 0 0 0 0 0 0 0 0 0 0 0 0 0 0 0 127 0" result="hardAlpha"/>
<feOffset dy="4"/>
<feGaussianBlur stdDeviation="2"/>
<feComposite in2="hardAlpha" operator="out"/>
<feColorMatrix type="matrix" values="0 0 0 0 0 0 0 0 0 0 0 0 0 0 0 0 0 0 0.25 0"/>
<feBlend mode="normal" in2="BackgroundImageFix" result="effect1_dropShadow_251_4630"/>
<feBlend mode="normal" in="SourceGraphic" in2="effect1_dropShadow_251_4630" result="shape"/>
</filter>
<clipPath id="clip0_251_4630">
<rect width="90" height="24.6575" fill="white" transform="translate(19 10)"/>
</clipPath>
</defs>
</svg>
