<svg width="60" height="60" viewBox="0 0 60 60" fill="none" xmlns="http://www.w3.org/2000/svg">
<path fill-rule="evenodd" clip-rule="evenodd" d="M26.4834 0.193163C26.178 0.300707 25.7883 0.583336 25.3756 0.996442C24.4423 1.93104 24.3891 2.14633 24.3891 4.98729V7.30864L23.5776 7.54289C22.6108 7.82196 20.6564 8.57372 19.8966 8.95876L19.3534 9.23406L17.52 7.47588C15.3103 5.35694 15.1131 5.22657 14.0226 5.16342C12.5087 5.07578 12.4729 5.09892 9.43592 8.11412C6.34658 11.1814 6.2183 11.3661 6.22731 12.7338C6.23558 13.9924 6.42637 14.3082 8.37713 16.2941L10.0231 17.9696L9.56169 18.7526C9.09895 19.538 8.1788 21.6105 7.94193 22.4011L7.81533 22.8235L5.13323 22.8575L2.45102 22.8913L1.85822 23.1824C1.20731 23.5021 0.652832 24.0521 0.282659 24.7453C-0.09788 25.4581 -0.0926445 32.8814 0.289047 33.6494C1.06521 35.2113 1.8421 35.5386 4.94474 35.611L7.33384 35.6667L7.72674 36.8709C7.94288 37.5333 8.36949 38.657 8.67463 39.3681L9.22963 40.661L7.44935 42.4572C5.419 44.5057 5.21292 44.8211 5.146 45.9813C5.0615 47.4484 5.17187 47.6202 8.09241 50.5664C11.0783 53.5785 11.2259 53.6779 12.7132 53.6779C14.0717 53.6779 14.5185 53.4122 16.4391 51.4629L17.9314 49.9484L18.5162 50.2742C19.3775 50.754 20.7065 51.3699 21.8206 51.8054L22.8026 52.1893L22.8432 54.7661C22.8893 57.6891 22.9495 57.9813 23.6743 58.8048C24.6721 59.9384 25.1805 60.0405 29.5726 59.9899C33.5057 59.9446 33.6036 59.9246 34.5544 58.9738C35.4495 58.0787 35.5184 57.8081 35.5703 54.9869L35.6136 52.6307L37.1483 52.1252C37.9923 51.847 39.1278 51.4102 39.6716 51.1542L40.6604 50.6889L42.4466 52.4593C44.5132 54.5076 44.7947 54.688 46.0286 54.7558C47.4445 54.8335 47.6447 54.7025 50.6026 51.7611C53.5804 48.8 53.6568 48.6866 53.6553 47.2378C53.6536 45.784 53.5147 45.5468 51.5391 43.6232L49.924 42.0506L50.5982 40.7435C50.969 40.0247 51.4755 38.9092 51.7238 38.2648L52.1752 37.0931L54.8012 37.0606C58.1922 37.0185 58.9 36.7332 59.666 35.0998L59.9403 34.5148V30.6927C59.9403 26.386 59.9427 26.4005 59.0904 25.4571C58.2668 24.5455 57.9789 24.4692 55.1359 24.4097L52.6353 24.3573L52.1922 22.996C51.9484 22.2473 51.514 21.1087 51.2268 20.4658L50.7046 19.2971L52.4725 17.5338C54.5988 15.4133 54.8121 15.0699 54.804 13.781C54.7954 12.4165 54.6326 12.1788 51.7283 9.29061C48.8197 6.39824 48.5775 6.23677 47.1649 6.24808C45.9067 6.25823 45.5862 6.45091 43.6336 8.37183L41.9872 9.99158L40.7518 9.35302C40.0723 9.0018 38.9755 8.50272 38.3143 8.24397L37.1122 7.77348L37.0598 5.07023C37.0078 2.38331 37.0058 2.36362 36.7252 1.83197C36.3669 1.15278 35.5256 0.392752 34.8938 0.177455C34.1732 -0.0681047 27.1885 -0.055015 26.4834 0.193163ZM34.5761 1.09435C35.9069 1.65207 36.0542 2.08287 36.1174 5.59852L36.1697 8.51602L37.3216 8.92096C38.5912 9.36737 40.2883 10.1594 41.3787 10.8144L42.0849 11.2387L42.8971 10.5016C43.3438 10.0961 44.1805 9.28632 44.7565 8.7021C45.9914 7.44928 46.4103 7.19335 47.218 7.19848C48.1515 7.20456 48.4543 7.42278 50.9717 9.90352C53.6113 12.5048 53.8503 12.8253 53.8554 13.7698C53.8603 14.6937 53.7147 14.9014 51.495 17.1387L49.5142 19.1352L50.1434 20.4373C50.7372 21.6662 51.6137 24.0957 51.7749 24.9594L51.8482 25.3521H54.5101C57.3804 25.3521 57.5407 25.377 58.1909 25.9253C58.9762 26.5876 58.994 26.6837 59.0307 30.46C59.0677 34.2863 59.0201 34.6425 58.3794 35.3209C57.666 36.0764 57.6507 36.0797 54.4084 36.1379L51.4943 36.1903L50.994 37.4992C50.4526 38.9155 49.607 40.6655 49.0218 41.5812L48.6549 42.1552L50.497 43.9373C52.5291 45.9033 52.7627 46.2436 52.7627 47.2378C52.7627 48.1919 52.5652 48.4594 49.9254 51.0807C47.329 53.659 47.0891 53.835 46.1701 53.835C45.2721 53.835 44.992 53.6388 42.8606 51.5176L40.8583 49.5249L40.0324 49.9391C38.8304 50.5419 36.9538 51.2623 35.7319 51.59L34.6667 51.8756L34.6328 54.5569C34.5959 57.4755 34.5775 57.5736 33.9325 58.2689C33.2413 59.014 33.2135 59.0184 29.2061 59.0184C25.1987 59.0184 25.1708 59.014 24.4796 58.2689C23.8279 57.5663 23.8162 57.5002 23.7796 54.3324C23.7589 52.5414 23.707 51.4265 23.6442 51.4265C23.1707 51.4265 19.967 50.0068 18.6453 49.2113L17.7467 48.6706L15.963 50.5072C14.0435 52.4836 13.7776 52.6777 12.8756 52.7594C11.8119 52.8559 11.536 52.665 8.86281 49.9815C5.13501 46.2394 5.12841 46.124 8.45138 42.8068L10.4251 40.8365L9.97804 39.9271C9.31194 38.5721 8.69516 36.9552 8.37284 35.719L8.08623 34.6195L5.32098 34.5672C2.23499 34.5087 2.22264 34.506 1.53381 33.7437C0.964154 33.1131 0.933786 32.8788 0.934205 29.1219C0.934624 25.7566 0.937451 25.7127 1.18416 25.1828C1.75434 23.9583 2.33992 23.7814 5.82184 23.7814C7.85418 23.7814 8.48908 23.7506 8.52269 23.6505C9.14366 21.7975 10.0258 19.8142 10.7589 18.6222C10.9987 18.2324 11.1948 17.8818 11.1948 17.8429C11.1948 17.8042 10.3707 16.94 9.36335 15.9228C7.40537 13.9456 7.18892 13.6282 7.18693 12.7303C7.18473 11.7665 7.40809 11.4661 10.1087 8.7997C13.781 5.1741 13.731 5.17683 17.0595 8.41769L19.1368 10.4403L20.3553 9.84655C21.5395 9.26946 23.5334 8.53917 24.7033 8.25392L25.2792 8.11349L25.3316 5.3449C25.3892 2.30152 25.3951 2.27136 26.0819 1.61322C26.7528 0.970054 26.811 0.961781 30.7016 0.957278C33.4405 0.954137 34.3153 0.985028 34.5761 1.09435ZM28.2393 11.9601C20.2957 12.7264 13.948 18.4497 12.2249 26.3993C11.8759 28.0099 11.8729 31.9088 12.2196 33.4676C14.1977 42.3623 21.5311 48.1795 30.4627 47.9389C43.9002 47.577 52.1384 33.4609 45.9013 21.4848C42.5556 15.0605 35.5068 11.2593 28.2393 11.9601ZM33.4221 13.1964C47.3394 16.2301 51.8069 33.4768 41.1146 42.8931C36.1246 47.2876 28.622 48.2834 22.5541 45.3566C18.4274 43.3662 15.1142 39.6032 13.7131 35.3156C12.5957 31.8965 12.5986 27.933 13.7206 24.5667C15.7115 18.5941 21.0505 14.0474 27.2373 13.0558C28.6912 12.8228 32.0594 12.8993 33.4221 13.1964ZM32.2949 28.3892L27.7939 32.8911L25.9349 31.0342L24.0759 29.1774L23.7362 29.517L23.3966 29.8566L25.6208 32.0808L27.845 34.305L32.6871 29.4629L37.5291 24.6207L37.1624 24.2541L36.7958 23.8873L32.2949 28.3892Z" fill="black"/>
<path fill-rule="evenodd" clip-rule="evenodd" d="M26.4834 0.193163C26.178 0.300707 25.7883 0.583336 25.3756 0.996442C24.4423 1.93104 24.3891 2.14633 24.3891 4.98729V7.30864L23.5776 7.54289C22.6108 7.82196 20.6564 8.57372 19.8966 8.95876L19.3534 9.23406L17.52 7.47588C15.3103 5.35694 15.1131 5.22657 14.0226 5.16342C12.5087 5.07578 12.4729 5.09892 9.43592 8.11412C6.34658 11.1814 6.2183 11.3661 6.22731 12.7338C6.23558 13.9924 6.42637 14.3082 8.37713 16.2941L10.0231 17.9696L9.56169 18.7526C9.09895 19.538 8.1788 21.6105 7.94193 22.4011L7.81533 22.8235L5.13323 22.8575L2.45102 22.8913L1.85822 23.1824C1.20731 23.5021 0.652832 24.0521 0.282659 24.7453C-0.09788 25.4581 -0.0926445 32.8814 0.289047 33.6494C1.06521 35.2113 1.8421 35.5386 4.94474 35.611L7.33384 35.6667L7.72674 36.8709C7.94288 37.5333 8.36949 38.657 8.67463 39.3681L9.22963 40.661L7.44935 42.4572C5.419 44.5057 5.21292 44.8211 5.146 45.9813C5.0615 47.4484 5.17187 47.6202 8.09241 50.5664C11.0783 53.5785 11.2259 53.6779 12.7132 53.6779C14.0717 53.6779 14.5185 53.4122 16.4391 51.4629L17.9314 49.9484L18.5162 50.2742C19.3775 50.754 20.7065 51.3699 21.8206 51.8054L22.8026 52.1893L22.8432 54.7661C22.8893 57.6891 22.9495 57.9813 23.6743 58.8048C24.6721 59.9384 25.1805 60.0405 29.5726 59.9899C33.5057 59.9446 33.6036 59.9246 34.5544 58.9738C35.4495 58.0787 35.5184 57.8081 35.5703 54.9869L35.6136 52.6307L37.1483 52.1252C37.9923 51.847 39.1278 51.4102 39.6716 51.1542L40.6604 50.6889L42.4466 52.4593C44.5132 54.5076 44.7947 54.688 46.0286 54.7558C47.4445 54.8335 47.6447 54.7025 50.6026 51.7611C53.5804 48.8 53.6568 48.6866 53.6553 47.2378C53.6536 45.784 53.5147 45.5468 51.5391 43.6232L49.924 42.0506L50.5982 40.7435C50.969 40.0247 51.4755 38.9092 51.7238 38.2648L52.1752 37.0931L54.8012 37.0606C58.1922 37.0185 58.9 36.7332 59.666 35.0998L59.9403 34.5148V30.6927C59.9403 26.386 59.9427 26.4005 59.0904 25.4571C58.2668 24.5455 57.9789 24.4692 55.1359 24.4097L52.6353 24.3573L52.1922 22.996C51.9484 22.2473 51.514 21.1087 51.2268 20.4658L50.7046 19.2971L52.4725 17.5338C54.5988 15.4133 54.8121 15.0699 54.804 13.781C54.7954 12.4165 54.6326 12.1788 51.7283 9.29061C48.8197 6.39824 48.5775 6.23677 47.1649 6.24808C45.9067 6.25823 45.5862 6.45091 43.6336 8.37183L41.9872 9.99158L40.7518 9.35302C40.0723 9.0018 38.9755 8.50272 38.3143 8.24397L37.1122 7.77348L37.0598 5.07023C37.0078 2.38331 37.0058 2.36362 36.7252 1.83197C36.3669 1.15278 35.5256 0.392752 34.8938 0.177455C34.1732 -0.0681047 27.1885 -0.055015 26.4834 0.193163ZM34.5761 1.09435C35.9069 1.65207 36.0542 2.08287 36.1174 5.59852L36.1697 8.51602L37.3216 8.92096C38.5912 9.36737 40.2883 10.1594 41.3787 10.8144L42.0849 11.2387L42.8971 10.5016C43.3438 10.0961 44.1805 9.28632 44.7565 8.7021C45.9914 7.44928 46.4103 7.19335 47.218 7.19848C48.1515 7.20456 48.4543 7.42278 50.9717 9.90352C53.6113 12.5048 53.8503 12.8253 53.8554 13.7698C53.8603 14.6937 53.7147 14.9014 51.495 17.1387L49.5142 19.1352L50.1434 20.4373C50.7372 21.6662 51.6137 24.0957 51.7749 24.9594L51.8482 25.3521H54.5101C57.3804 25.3521 57.5407 25.377 58.1909 25.9253C58.9762 26.5876 58.994 26.6837 59.0307 30.46C59.0677 34.2863 59.0201 34.6425 58.3794 35.3209C57.666 36.0764 57.6507 36.0797 54.4084 36.1379L51.4943 36.1903L50.994 37.4992C50.4526 38.9155 49.607 40.6655 49.0218 41.5812L48.6549 42.1552L50.497 43.9373C52.5291 45.9033 52.7627 46.2436 52.7627 47.2378C52.7627 48.1919 52.5652 48.4594 49.9254 51.0807C47.329 53.659 47.0891 53.835 46.1701 53.835C45.2721 53.835 44.992 53.6388 42.8606 51.5176L40.8583 49.5249L40.0324 49.9391C38.8304 50.5419 36.9538 51.2623 35.7319 51.59L34.6667 51.8756L34.6328 54.5569C34.5959 57.4755 34.5775 57.5736 33.9325 58.2689C33.2413 59.014 33.2135 59.0184 29.2061 59.0184C25.1987 59.0184 25.1708 59.014 24.4796 58.2689C23.8279 57.5663 23.8162 57.5002 23.7796 54.3324C23.7589 52.5414 23.707 51.4265 23.6442 51.4265C23.1707 51.4265 19.967 50.0068 18.6453 49.2113L17.7467 48.6706L15.963 50.5072C14.0435 52.4836 13.7776 52.6777 12.8756 52.7594C11.8119 52.8559 11.536 52.665 8.86281 49.9815C5.13501 46.2394 5.12841 46.124 8.45138 42.8068L10.4251 40.8365L9.97804 39.9271C9.31194 38.5721 8.69516 36.9552 8.37284 35.719L8.08623 34.6195L5.32098 34.5672C2.23499 34.5087 2.22264 34.506 1.53381 33.7437C0.964154 33.1131 0.933786 32.8788 0.934205 29.1219C0.934624 25.7566 0.937451 25.7127 1.18416 25.1828C1.75434 23.9583 2.33992 23.7814 5.82184 23.7814C7.85418 23.7814 8.48908 23.7506 8.52269 23.6505C9.14366 21.7975 10.0258 19.8142 10.7589 18.6222C10.9987 18.2324 11.1948 17.8818 11.1948 17.8429C11.1948 17.8042 10.3707 16.94 9.36335 15.9228C7.40537 13.9456 7.18892 13.6282 7.18693 12.7303C7.18473 11.7665 7.40809 11.4661 10.1087 8.7997C13.781 5.1741 13.731 5.17683 17.0595 8.41769L19.1368 10.4403L20.3553 9.84655C21.5395 9.26946 23.5334 8.53917 24.7033 8.25392L25.2792 8.11349L25.3316 5.3449C25.3892 2.30152 25.3951 2.27136 26.0819 1.61322C26.7528 0.970054 26.811 0.961781 30.7016 0.957278C33.4405 0.954137 34.3153 0.985028 34.5761 1.09435ZM28.2393 11.9601C20.2957 12.7264 13.948 18.4497 12.2249 26.3993C11.8759 28.0099 11.8729 31.9088 12.2196 33.4676C14.1977 42.3623 21.5311 48.1795 30.4627 47.9389C43.9002 47.577 52.1384 33.4609 45.9013 21.4848C42.5556 15.0605 35.5068 11.2593 28.2393 11.9601ZM33.4221 13.1964C47.3394 16.2301 51.8069 33.4768 41.1146 42.8931C36.1246 47.2876 28.622 48.2834 22.5541 45.3566C18.4274 43.3662 15.1142 39.6032 13.7131 35.3156C12.5957 31.8965 12.5986 27.933 13.7206 24.5667C15.7115 18.5941 21.0505 14.0474 27.2373 13.0558C28.6912 12.8228 32.0594 12.8993 33.4221 13.1964ZM32.2949 28.3892L27.7939 32.8911L25.9349 31.0342L24.0759 29.1774L23.7362 29.517L23.3966 29.8566L25.6208 32.0808L27.845 34.305L32.6871 29.4629L37.5291 24.6207L37.1624 24.2541L36.7958 23.8873L32.2949 28.3892Z" fill="url(#paint0_linear_965_2947)"/>
<defs>
<linearGradient id="paint0_linear_965_2947" x1="15.4846" y1="4.5" x2="42.5005" y2="57.9784" gradientUnits="userSpaceOnUse">
<stop stop-color="#9934BD"/>
<stop offset="1" stop-color="#4479E0"/>
</linearGradient>
</defs>
</svg>
