<svg width="199" height="45" viewBox="0 0 199 45" fill="none" xmlns="http://www.w3.org/2000/svg">
<rect width="199" height="45" rx="10" fill="#1E9EEE"/>
<path d="M33.5999 16.4514C32.8938 16.7643 32.1353 16.9757 31.3379 17.0712C32.1607 16.5789 32.7763 15.8041 33.0697 14.8913C32.2967 15.3504 31.4507 15.6736 30.5685 15.8468C29.9752 15.2134 29.1894 14.7935 28.333 14.6524C27.4766 14.5113 26.5976 14.6569 25.8325 15.0665C25.0674 15.4762 24.4589 16.127 24.1015 16.9179C23.7441 17.7088 23.6579 18.5956 23.8562 19.4406C22.2899 19.3619 20.7576 18.9548 19.3588 18.2457C17.96 17.5365 16.726 16.5412 15.7368 15.3242C15.3985 15.9077 15.2041 16.5842 15.2041 17.3046C15.2037 17.9532 15.3634 18.5918 15.669 19.1638C15.9747 19.7359 16.4168 20.2236 16.9561 20.5838C16.3306 20.5639 15.7189 20.3949 15.1719 20.0908V20.1416C15.1719 21.0512 15.4865 21.9329 16.0625 22.6369C16.6385 23.341 17.4403 23.8241 18.3319 24.0042C17.7516 24.1613 17.1433 24.1844 16.5528 24.0719C16.8043 24.8546 17.2944 25.539 17.9542 26.0294C18.6141 26.5197 19.4108 26.7915 20.2328 26.8065C18.8374 27.9019 17.1142 28.4961 15.3402 28.4935C15.026 28.4936 14.712 28.4752 14.3999 28.4385C16.2006 29.5963 18.2967 30.2107 20.4374 30.2083C27.6841 30.2083 31.6457 24.2063 31.6457 19.0009C31.6457 18.8318 31.6415 18.6609 31.6339 18.4918C32.4045 17.9346 33.0696 17.2445 33.5982 16.454L33.5999 16.4514Z" fill="white"/>
<path d="M45.312 28V16.72H52.48V18.064H46.976V21.664H52.144V23.008H46.976V28H45.312ZM57.0905 28.144C56.3012 28.144 55.6185 27.9787 55.0425 27.648C54.4665 27.3173 54.0185 26.8533 53.6985 26.256C53.3892 25.648 53.2345 24.928 53.2345 24.096C53.2345 23.264 53.3892 22.5493 53.6985 21.952C54.0185 21.344 54.4665 20.8747 55.0425 20.544C55.6185 20.2133 56.3012 20.048 57.0905 20.048C57.8585 20.048 58.5305 20.2133 59.1065 20.544C59.6825 20.8747 60.1305 21.344 60.4505 21.952C60.7705 22.5493 60.9305 23.264 60.9305 24.096C60.9305 24.928 60.7705 25.648 60.4505 26.256C60.1305 26.8533 59.6825 27.3173 59.1065 27.648C58.5305 27.9787 57.8585 28.144 57.0905 28.144ZM57.0905 26.896C57.7518 26.896 58.2852 26.656 58.6905 26.176C59.0958 25.696 59.2985 25.0027 59.2985 24.096C59.2985 23.1893 59.0958 22.5013 58.6905 22.032C58.2852 21.552 57.7518 21.312 57.0905 21.312C56.4185 21.312 55.8798 21.552 55.4745 22.032C55.0692 22.5013 54.8665 23.1893 54.8665 24.096C54.8665 25.0027 55.0692 25.696 55.4745 26.176C55.8798 26.656 56.4185 26.896 57.0905 26.896ZM65.2894 28.144C64.436 28.144 63.796 27.904 63.3694 27.424C62.9534 26.944 62.7454 26.24 62.7454 25.312V16.72H64.3614V25.216C64.3614 26.272 64.7934 26.8 65.6574 26.8C65.7854 26.8 65.9027 26.7947 66.0094 26.784C66.1267 26.7733 66.244 26.752 66.3614 26.72L66.3294 28.016C65.9667 28.1013 65.62 28.144 65.2894 28.144ZM70.18 28.144C69.3267 28.144 68.6867 27.904 68.26 27.424C67.844 26.944 67.636 26.24 67.636 25.312V16.72H69.252V25.216C69.252 26.272 69.684 26.8 70.548 26.8C70.676 26.8 70.7933 26.7947 70.9 26.784C71.0173 26.7733 71.1347 26.752 71.252 26.72L71.22 28.016C70.8573 28.1013 70.5107 28.144 70.18 28.144ZM75.8405 28.144C75.0512 28.144 74.3685 27.9787 73.7925 27.648C73.2165 27.3173 72.7685 26.8533 72.4485 26.256C72.1392 25.648 71.9845 24.928 71.9845 24.096C71.9845 23.264 72.1392 22.5493 72.4485 21.952C72.7685 21.344 73.2165 20.8747 73.7925 20.544C74.3685 20.2133 75.0512 20.048 75.8405 20.048C76.6085 20.048 77.2805 20.2133 77.8565 20.544C78.4325 20.8747 78.8805 21.344 79.2005 21.952C79.5205 22.5493 79.6805 23.264 79.6805 24.096C79.6805 24.928 79.5205 25.648 79.2005 26.256C78.8805 26.8533 78.4325 27.3173 77.8565 27.648C77.2805 27.9787 76.6085 28.144 75.8405 28.144ZM75.8405 26.896C76.5018 26.896 77.0352 26.656 77.4405 26.176C77.8458 25.696 78.0485 25.0027 78.0485 24.096C78.0485 23.1893 77.8458 22.5013 77.4405 22.032C77.0352 21.552 76.5018 21.312 75.8405 21.312C75.1685 21.312 74.6298 21.552 74.2245 22.032C73.8192 22.5013 73.6165 23.1893 73.6165 24.096C73.6165 25.0027 73.8192 25.696 74.2245 26.176C74.6298 26.656 75.1685 26.896 75.8405 26.896ZM83.4668 28L80.4908 20.192H82.1548L84.2508 26.112L86.4108 20.192H87.6588L89.7868 26.144L91.9148 20.192H93.4988L90.5228 28H89.0508L86.9868 22.416L84.9388 28H83.4668ZM105.713 30.624C104.358 30.624 103.164 30.336 102.129 29.76C101.105 29.1947 100.305 28.3893 99.7291 27.344C99.1638 26.2987 98.8811 25.072 98.8811 23.664C98.8811 22.608 99.0518 21.648 99.3931 20.784C99.7345 19.9093 100.214 19.1573 100.833 18.528C101.462 17.8987 102.209 17.4187 103.073 17.088C103.948 16.7467 104.908 16.576 105.953 16.576C107.201 16.576 108.289 16.8213 109.217 17.312C110.156 17.8027 110.886 18.496 111.409 19.392C111.932 20.2773 112.193 21.3173 112.193 22.512C112.193 23.4293 112.065 24.2293 111.809 24.912C111.553 25.5947 111.196 26.1227 110.737 26.496C110.278 26.8693 109.74 27.056 109.121 27.056C108.598 27.056 108.172 26.9333 107.841 26.688C107.51 26.4427 107.302 26.096 107.217 25.648C106.918 26.1173 106.561 26.4693 106.145 26.704C105.74 26.9387 105.308 27.056 104.849 27.056C104.006 27.056 103.35 26.7947 102.881 26.272C102.422 25.7493 102.193 25.0293 102.193 24.112C102.193 23.3333 102.342 22.64 102.641 22.032C102.94 21.4133 103.35 20.928 103.873 20.576C104.396 20.224 104.988 20.048 105.649 20.048C106.63 20.048 107.292 20.448 107.633 21.248L107.825 20.192H109.073L108.385 24.208C108.321 24.5173 108.289 24.7893 108.289 25.024C108.289 25.7067 108.593 26.048 109.201 26.048C109.777 26.048 110.241 25.7227 110.593 25.072C110.945 24.4213 111.121 23.568 111.121 22.512C111.121 21.5093 110.908 20.6453 110.481 19.92C110.065 19.184 109.468 18.6187 108.689 18.224C107.91 17.8293 106.993 17.632 105.937 17.632C104.764 17.632 103.734 17.8827 102.849 18.384C101.974 18.8747 101.292 19.5733 100.801 20.48C100.31 21.3867 100.065 22.448 100.065 23.664C100.065 24.8907 100.294 25.9467 100.753 26.832C101.212 27.7173 101.862 28.3947 102.705 28.864C103.558 29.3333 104.561 29.568 105.713 29.568C106.545 29.568 107.302 29.44 107.985 29.184C108.668 28.9387 109.244 28.5867 109.713 28.128L110.289 29.024C109.777 29.536 109.126 29.9307 108.337 30.208C107.548 30.4853 106.673 30.624 105.713 30.624ZM105.057 25.984C105.494 25.984 105.884 25.8507 106.225 25.584C106.577 25.3067 106.849 24.9333 107.041 24.464C107.244 23.984 107.345 23.44 107.345 22.832C107.345 21.7013 106.838 21.136 105.825 21.136C105.377 21.136 104.977 21.264 104.625 21.52C104.284 21.776 104.012 22.128 103.809 22.576C103.617 23.0133 103.521 23.52 103.521 24.096C103.521 24.704 103.654 25.1733 103.921 25.504C104.188 25.824 104.566 25.984 105.057 25.984ZM117.237 28.144C116.554 28.144 115.952 27.984 115.429 27.664C114.917 27.3333 114.517 26.864 114.229 26.256C113.941 25.648 113.797 24.928 113.797 24.096C113.797 23.264 113.941 22.5493 114.229 21.952C114.517 21.344 114.917 20.8747 115.429 20.544C115.941 20.2133 116.544 20.048 117.237 20.048C117.824 20.048 118.346 20.176 118.805 20.432C119.264 20.688 119.605 21.0347 119.829 21.472V16.72H121.445V28H119.861V26.64C119.637 27.1093 119.29 27.4773 118.821 27.744C118.362 28.0107 117.834 28.144 117.237 28.144ZM117.653 26.896C118.314 26.896 118.848 26.656 119.253 26.176C119.658 25.696 119.861 25.0027 119.861 24.096C119.861 23.1893 119.658 22.5013 119.253 22.032C118.848 21.552 118.314 21.312 117.653 21.312C116.981 21.312 116.442 21.552 116.037 22.032C115.632 22.5013 115.429 23.1893 115.429 24.096C115.429 25.0027 115.632 25.696 116.037 26.176C116.442 26.656 116.981 26.896 117.653 26.896ZM127.378 28.144C126.098 28.144 125.09 27.7867 124.354 27.072C123.618 26.3467 123.25 25.36 123.25 24.112C123.25 23.312 123.41 22.608 123.73 22C124.061 21.3813 124.514 20.9013 125.09 20.56C125.666 20.2187 126.327 20.048 127.074 20.048C128.151 20.048 128.999 20.3947 129.618 21.088C130.237 21.7707 130.546 22.7147 130.546 23.92V24.464H124.818C124.935 26.0853 125.794 26.896 127.394 26.896C127.842 26.896 128.279 26.8267 128.706 26.688C129.143 26.5493 129.554 26.32 129.938 26L130.418 27.12C130.066 27.44 129.613 27.6907 129.058 27.872C128.503 28.0533 127.943 28.144 127.378 28.144ZM127.138 21.184C126.466 21.184 125.933 21.392 125.538 21.808C125.143 22.224 124.903 22.7787 124.818 23.472H129.186C129.154 22.7467 128.962 22.1867 128.61 21.792C128.258 21.3867 127.767 21.184 127.138 21.184ZM135.62 28.144C134.639 28.144 133.908 27.8933 133.428 27.392C132.948 26.8907 132.708 26.1653 132.708 25.216V21.44H131.188V20.192H132.708V17.84H134.324V20.192H136.74V21.44H134.324V25.088C134.324 25.6533 134.442 26.08 134.676 26.368C134.922 26.656 135.316 26.8 135.86 26.8C136.031 26.8 136.196 26.784 136.356 26.752C136.516 26.7093 136.676 26.6613 136.836 26.608L137.092 27.824C136.932 27.92 136.708 27.9947 136.42 28.048C136.143 28.112 135.876 28.144 135.62 28.144ZM141.45 28.144C140.661 28.144 139.978 27.9787 139.402 27.648C138.826 27.3173 138.378 26.8533 138.058 26.256C137.749 25.648 137.594 24.928 137.594 24.096C137.594 23.264 137.749 22.5493 138.058 21.952C138.378 21.344 138.826 20.8747 139.402 20.544C139.978 20.2133 140.661 20.048 141.45 20.048C142.218 20.048 142.89 20.2133 143.466 20.544C144.042 20.8747 144.49 21.344 144.81 21.952C145.13 22.5493 145.29 23.264 145.29 24.096C145.29 24.928 145.13 25.648 144.81 26.256C144.49 26.8533 144.042 27.3173 143.466 27.648C142.89 27.9787 142.218 28.144 141.45 28.144ZM141.45 26.896C142.111 26.896 142.645 26.656 143.05 26.176C143.455 25.696 143.658 25.0027 143.658 24.096C143.658 23.1893 143.455 22.5013 143.05 22.032C142.645 21.552 142.111 21.312 141.45 21.312C140.778 21.312 140.239 21.552 139.834 22.032C139.429 22.5013 139.226 23.1893 139.226 24.096C139.226 25.0027 139.429 25.696 139.834 26.176C140.239 26.656 140.778 26.896 141.45 26.896ZM145.877 28L149.125 23.968L146.085 20.192H147.973L150.069 22.864L152.165 20.192H154.053L150.997 23.984L154.261 28H152.341L150.053 25.12L147.781 28H145.877ZM158.941 28.144C157.661 28.144 156.653 27.7867 155.917 27.072C155.181 26.3467 154.813 25.36 154.813 24.112C154.813 23.312 154.973 22.608 155.293 22C155.623 21.3813 156.077 20.9013 156.653 20.56C157.229 20.2187 157.89 20.048 158.637 20.048C159.714 20.048 160.562 20.3947 161.181 21.088C161.799 21.7707 162.109 22.7147 162.109 23.92V24.464H156.381C156.498 26.0853 157.357 26.896 158.957 26.896C159.405 26.896 159.842 26.8267 160.269 26.688C160.706 26.5493 161.117 26.32 161.501 26L161.981 27.12C161.629 27.44 161.175 27.6907 160.621 27.872C160.066 28.0533 159.506 28.144 158.941 28.144ZM158.701 21.184C158.029 21.184 157.495 21.392 157.101 21.808C156.706 22.224 156.466 22.7787 156.381 23.472H160.749C160.717 22.7467 160.525 22.1867 160.173 21.792C159.821 21.3867 159.33 21.184 158.701 21.184ZM164.094 28V26.768L167.854 22.736C168.377 22.1707 168.75 21.6587 168.974 21.2C169.209 20.7413 169.326 20.2773 169.326 19.808C169.326 18.592 168.612 17.984 167.182 17.984C166.094 17.984 165.118 18.3947 164.254 19.216L163.662 17.952C164.089 17.536 164.633 17.2053 165.294 16.96C165.956 16.704 166.644 16.576 167.358 16.576C168.521 16.576 169.412 16.8427 170.03 17.376C170.66 17.9093 170.974 18.672 170.974 19.664C170.974 20.336 170.809 20.992 170.478 21.632C170.158 22.272 169.652 22.9547 168.958 23.68L166.174 26.608H171.422V28H164.094ZM177.128 28.144C175.848 28.144 174.84 27.7867 174.104 27.072C173.368 26.3467 173 25.36 173 24.112C173 23.312 173.16 22.608 173.48 22C173.811 21.3813 174.264 20.9013 174.84 20.56C175.416 20.2187 176.077 20.048 176.824 20.048C177.901 20.048 178.749 20.3947 179.368 21.088C179.987 21.7707 180.296 22.7147 180.296 23.92V24.464H174.568C174.685 26.0853 175.544 26.896 177.144 26.896C177.592 26.896 178.029 26.8267 178.456 26.688C178.893 26.5493 179.304 26.32 179.688 26L180.168 27.12C179.816 27.44 179.363 27.6907 178.808 27.872C178.253 28.0533 177.693 28.144 177.128 28.144ZM176.888 21.184C176.216 21.184 175.683 21.392 175.288 21.808C174.893 22.224 174.653 22.7787 174.568 23.472H178.936C178.904 22.7467 178.712 22.1867 178.36 21.792C178.008 21.3867 177.517 21.184 176.888 21.184Z" fill="white"/>
</svg>
