<svg width="60" height="60" viewBox="0 0 60 60" fill="none" xmlns="http://www.w3.org/2000/svg">
<g clip-path="url(#clip0_160_5248)">
<path d="M23.8746 29.5401L27.8891 33.5543L37.0988 24.3453M48.9723 7.94367C48.7115 7.67344 48.399 7.45851 48.0533 7.31172C47.7076 7.16492 47.3359 7.08927 46.9603 7.08927C46.5848 7.08927 46.2131 7.16492 45.8674 7.31172C45.5217 7.45851 45.2092 7.67344 44.9484 7.94367L41.8832 10.9991C41.0521 10.4631 40.1822 9.98953 39.2809 9.58239C38.376 9.17746 37.4488 8.82427 36.5038 8.52454V3.802C36.5122 3.42823 36.4435 3.05674 36.3021 2.71063C36.1608 2.36453 35.9497 2.05122 35.682 1.79019C35.4211 1.52231 35.1078 1.31109 34.7617 1.1697C34.4155 1.02832 34.0439 0.959818 33.67 0.968472H27.7711C27.4023 0.965611 27.0366 1.03687 26.6959 1.17803C26.3551 1.31919 26.0462 1.52736 25.7875 1.79019C25.5164 2.04959 25.3018 2.36217 25.1571 2.70835C25.0125 3.05453 24.9409 3.42686 24.9468 3.802V8.10423C23.9727 8.33311 23.0162 8.63139 22.0847 8.99679C21.1781 9.3427 20.296 9.74978 19.4446 10.2152L16.0488 6.86693C15.8005 6.59378 15.4969 6.37668 15.1581 6.23011C14.8193 6.08353 14.4532 6.01083 14.0841 6.01687C13.7087 6.01522 13.3368 6.0897 12.991 6.23581C12.6452 6.38191 12.3326 6.59661 12.0721 6.86693L7.94426 11.0086C7.67401 11.2694 7.45907 11.5819 7.31227 11.9275C7.16546 12.2732 7.0898 12.6449 7.0898 13.0204C7.0898 13.3959 7.16546 13.7676 7.31227 14.1133C7.45907 14.4589 7.67401 14.7714 7.94426 15.0322L11 18.0971C10.4639 18.9282 9.9903 19.798 9.58312 20.6992C9.17648 21.6002 8.82322 22.5242 8.52518 23.4667H3.80226C3.42846 23.4583 3.05694 23.5269 2.71081 23.6683C2.36467 23.8097 2.05134 24.0207 1.79029 24.2884C1.52239 24.5492 1.31115 24.8625 1.16975 25.2087C1.02836 25.5548 0.959848 25.9264 0.968502 26.3002V32.1986C0.965642 32.5674 1.03691 32.933 1.17808 33.2738C1.31925 33.6145 1.52744 33.9234 1.79029 34.1821C2.04901 34.4541 2.36148 34.6693 2.70786 34.814C3.05423 34.9587 3.42693 35.0298 3.80226 35.0227H8.10957C8.33689 35.9966 8.63361 36.953 8.99748 37.8846C9.35347 38.8068 9.76026 39.7086 10.216 40.5859L6.85799 43.9436C6.58482 44.1919 6.36771 44.4955 6.22112 44.8342C6.07453 45.173 6.00183 45.5391 6.00786 45.9082C6.00622 46.2836 6.0807 46.6554 6.22682 47.0012C6.37294 47.3469 6.58765 47.6595 6.85799 47.92L11 52.1089C11.5458 52.6188 12.265 52.9024 13.012 52.9024C13.759 52.9024 14.4781 52.6188 15.0239 52.1089L18.0891 48.9967C18.9218 49.5301 19.7915 50.0035 20.6914 50.4135C21.5966 50.8259 22.5237 51.1885 23.4685 51.4997V56.1986C23.4647 56.5718 23.5354 56.9419 23.6765 57.2874C23.8176 57.6329 24.0262 57.9468 24.2901 58.2106C24.554 58.4745 24.8679 58.6831 25.2134 58.8241C25.5589 58.9652 25.9291 59.0359 26.3023 59.0321H32.2012C32.57 59.035 32.9357 58.9637 33.2764 58.8226C33.6172 58.6814 33.9261 58.4732 34.1848 58.2104C34.4568 57.9517 34.6721 57.6393 34.8168 57.2929C34.9615 56.9466 35.0326 56.5739 35.0255 56.1986V51.8964C35.9994 51.6706 36.9558 51.3754 37.8876 51.0132C38.8107 50.6593 39.7127 50.2525 40.5891 49.7948L43.9471 53.1101C44.2038 53.3789 44.5123 53.593 44.8541 53.7392C45.1959 53.8854 45.5637 53.9608 45.9355 53.9608C46.3072 53.9608 46.6751 53.8854 47.0168 53.7392C47.3586 53.593 47.6672 53.3789 47.9238 53.1101L52.1131 48.9731C52.6234 48.4265 52.9072 47.7067 52.9072 46.9589C52.9072 46.2112 52.6234 45.4914 52.1131 44.9448L48.9959 41.8798C49.532 41.0488 50.0056 40.179 50.4128 39.2777C50.8253 38.3726 51.1879 37.4456 51.4991 36.5009H56.1984C56.5716 36.5047 56.9418 36.434 57.2873 36.2929C57.6328 36.1518 57.9467 35.9433 58.2106 35.6794C58.4745 35.4155 58.6831 35.1016 58.8242 34.7562C58.9652 34.4107 59.0359 34.0405 59.0321 33.6673V27.7689C59.035 27.4001 58.9637 27.0345 58.8226 26.6938C58.6814 26.353 58.4732 26.0441 58.2104 25.7854C57.9516 25.5134 57.6392 25.2982 57.2928 25.1535C56.9464 25.0088 56.5737 24.9377 56.1984 24.9448H51.8958C51.659 23.9833 51.3641 23.0371 51.0126 22.1113C50.6694 21.1929 50.2622 20.2998 49.7941 19.4383L53.1427 16.0475C53.4158 15.7993 53.6329 15.4957 53.7795 15.1569C53.9261 14.8181 53.9988 14.452 53.9928 14.083C53.9944 13.7076 53.9199 13.3358 53.7738 12.99C53.6277 12.6442 53.413 12.3316 53.1427 12.0712L49.0007 7.94367H48.9723ZM29.9862 12.6662C33.9881 12.6659 37.8663 14.0529 40.9602 16.591C44.0542 19.1291 46.1724 22.6612 46.9542 26.5857C47.7359 30.5102 47.1328 34.5843 45.2476 38.114C43.3623 41.6438 40.3116 44.4108 36.615 45.9438C32.9184 47.4768 28.8046 47.6809 24.9744 46.5214C21.1442 45.3619 17.8345 42.9104 15.609 39.5846C13.3836 36.2589 12.38 32.2645 12.7694 28.2819C13.1587 24.2993 14.9169 20.5748 17.7443 17.7429C19.3502 16.1333 21.2585 14.8571 23.3594 13.9874C25.4603 13.1178 27.7124 12.672 29.9862 12.6757V12.6662Z" stroke="url(#paint0_linear_160_5248)"/>
</g>
<defs>
<linearGradient id="paint0_linear_160_5248" x1="15.9678" y1="5.32258" x2="42.0968" y2="57.0968" gradientUnits="userSpaceOnUse">
<stop stop-color="#9934BD"/>
<stop offset="1" stop-color="#4479E0"/>
</linearGradient>
<clipPath id="clip0_160_5248">
<rect width="60" height="60" fill="white"/>
</clipPath>
</defs>
</svg>
