<svg width="60" height="60" viewBox="0 0 60 60" fill="none" xmlns="http://www.w3.org/2000/svg">
<path fill-rule="evenodd" clip-rule="evenodd" d="M23.6649 9.62362L26.7284 24.1426L41.3096 27.3146L28.3623 34.6968L29.8299 49.4565L18.7634 39.5019L5.09413 45.4539L11.2021 31.9167L1.28022 20.8339L16.1226 22.4245L23.6649 9.62362ZM31.9814 45.9684L44.6438 58.7693C44.9478 59.0761 45.4512 59.0761 45.7599 58.774L50.6805 53.9265C50.9892 53.6244 50.9892 53.1241 50.6852 52.8173L33.3778 35.3765C33.0738 35.0697 32.2712 34.9422 32.2617 35.3718L31.9814 45.9684ZM8.6658 16.6094H8.42357C8.42357 14.6364 7.68264 12.9135 6.20078 11.4409C4.71416 9.97291 2.98057 9.23658 1 9.23658V8.99585C2.98057 8.99585 4.71416 8.25951 6.19603 6.78684C7.67789 5.30945 8.41883 3.58661 8.41883 1.62305H8.66105C8.66105 3.59133 9.40199 5.31417 10.8839 6.78684C12.3657 8.25951 14.0993 8.99585 16.0799 8.99585V9.23658C14.0993 9.23658 12.3657 9.97291 10.8839 11.4456C9.40674 12.9183 8.6658 14.6364 8.6658 16.6094ZM44.5725 24.086H44.1973C44.1973 21.051 43.0574 18.3983 40.7729 16.1326C38.4883 13.867 35.8238 12.7342 32.7699 12.7342V12.3613C35.8238 12.3613 38.4931 11.2285 40.7729 8.95337C43.0574 6.67356 44.1973 4.02558 44.1973 1H44.5725C44.5725 4.03502 45.7124 6.68772 47.997 8.95337C50.2815 11.219 52.946 12.3566 56 12.3566V12.7294C52.946 12.7294 50.2815 13.8623 47.997 16.1279C45.7124 18.3983 44.5725 21.051 44.5725 24.086Z" stroke="black"/>
<path fill-rule="evenodd" clip-rule="evenodd" d="M23.6649 9.62362L26.7284 24.1426L41.3096 27.3146L28.3623 34.6968L29.8299 49.4565L18.7634 39.5019L5.09413 45.4539L11.2021 31.9167L1.28022 20.8339L16.1226 22.4245L23.6649 9.62362ZM31.9814 45.9684L44.6438 58.7693C44.9478 59.0761 45.4512 59.0761 45.7599 58.774L50.6805 53.9265C50.9892 53.6244 50.9892 53.1241 50.6852 52.8173L33.3778 35.3765C33.0738 35.0697 32.2712 34.9422 32.2617 35.3718L31.9814 45.9684ZM8.6658 16.6094H8.42357C8.42357 14.6364 7.68264 12.9135 6.20078 11.4409C4.71416 9.97291 2.98057 9.23658 1 9.23658V8.99585C2.98057 8.99585 4.71416 8.25951 6.19603 6.78684C7.67789 5.30945 8.41883 3.58661 8.41883 1.62305H8.66105C8.66105 3.59133 9.40199 5.31417 10.8839 6.78684C12.3657 8.25951 14.0993 8.99585 16.0799 8.99585V9.23658C14.0993 9.23658 12.3657 9.97291 10.8839 11.4456C9.40674 12.9183 8.6658 14.6364 8.6658 16.6094ZM44.5725 24.086H44.1973C44.1973 21.051 43.0574 18.3983 40.7729 16.1326C38.4883 13.867 35.8238 12.7342 32.7699 12.7342V12.3613C35.8238 12.3613 38.4931 11.2285 40.7729 8.95337C43.0574 6.67356 44.1973 4.02558 44.1973 1H44.5725C44.5725 4.03502 45.7124 6.68772 47.997 8.95337C50.2815 11.219 52.946 12.3566 56 12.3566V12.7294C52.946 12.7294 50.2815 13.8623 47.997 16.1279C45.7124 18.3983 44.5725 21.051 44.5725 24.086Z" stroke="url(#paint0_linear_160_6183)"/>
<defs>
<linearGradient id="paint0_linear_160_6183" x1="15.2083" y1="5.35" x2="42.1198" y2="55.9164" gradientUnits="userSpaceOnUse">
<stop stop-color="#9934BD"/>
<stop offset="1" stop-color="#4479E0"/>
</linearGradient>
</defs>
</svg>
