<svg width="57" height="60" viewBox="0 0 57 60" fill="none" xmlns="http://www.w3.org/2000/svg">
<path fill-rule="evenodd" clip-rule="evenodd" d="M10.4539 0.237546C8.97793 0.984117 8.78911 3.09872 10.1141 4.04224C10.2997 4.1743 11.2751 4.53709 12.282 4.84834C18.6466 6.81649 19.2308 7.31459 21.6661 12.8511L22.5052 14.7588L21.7519 15.5784C19.7234 17.7849 17.9303 21.29 17.0646 24.7403C16.9347 25.2584 16.8013 25.7737 16.7681 25.8853C16.7111 26.0778 17.3458 26.0884 28.9595 26.0884C40.0591 26.0884 41.2109 26.0711 41.2109 25.9047C41.2109 25.585 40.765 23.9589 40.3346 22.7094C39.4236 20.0641 38.0306 17.5917 36.4013 15.7281L35.5223 14.7226L36.516 12.4849C38.8073 7.32492 39.7345 6.58659 46.3173 4.67925C47.6938 4.28038 48.0958 4.03922 48.4819 3.38038C49.3267 1.93877 48.3973 0.132634 46.7455 0.00636849C46.2512 -0.0314649 45.7373 0.0879539 43.8801 0.67205C36.4268 3.01621 35.2713 4.01972 32.3868 10.6533C31.9843 11.5789 31.64 12.3557 31.6217 12.3796C31.6033 12.4035 31.1672 12.3382 30.6526 12.2346C29.4798 11.9982 28.6172 11.9962 27.4009 12.2269C26.8764 12.3264 26.4335 12.3917 26.4168 12.372C26.4002 12.3522 26.0069 11.4744 25.5429 10.4212C22.6785 3.91887 21.4525 2.89447 13.73 0.550426C11.6031 -0.0951786 11.1897 -0.134637 10.4539 0.237546ZM12.9155 1.31754C20.9747 3.72704 21.8775 4.48161 24.8491 11.2916C26.0065 13.9441 25.8196 13.7193 26.6307 13.4343C28.1054 12.916 29.897 12.92 31.4231 13.445C31.7848 13.5695 32.0982 13.654 32.1193 13.6328C32.1405 13.6115 32.5532 12.6845 33.0364 11.5725C35.8743 5.04134 36.741 4.14947 42.0233 2.32546C45.3216 1.18651 46.5109 0.874214 46.9707 1.0259C47.694 1.26462 48.028 2.15045 47.6617 2.85861C47.4442 3.2793 47.2958 3.3458 44.9217 4.08669C40.2091 5.55731 38.5105 6.60725 37.1566 8.8863C36.7786 9.52262 34.3638 14.815 34.3638 15.0071C34.3638 15.0372 34.7212 15.4148 35.158 15.846C37.24 17.9012 39.2197 21.5475 39.9785 24.7248L40.0548 25.0439H29.0275C21.6295 25.0439 18.0003 25.0051 18.0003 24.9259C18.0003 24.8609 18.2137 24.169 18.4745 23.3882C19.4691 20.4104 20.9712 17.7979 22.7232 15.9986L23.6903 15.0053L22.8011 12.9744C20.0035 6.58496 19.3303 6.00098 12.2295 3.80305C10.4985 3.26723 10.2247 3.05845 10.2247 2.27416C10.2247 1.69599 10.3765 1.41467 10.8414 1.13116C11.3227 0.837773 11.306 0.836265 12.9155 1.31754ZM2.98761 15.4779C1.84472 15.843 0.94043 17.1385 0.94043 18.4107C0.94043 19.139 3.89735 29.0113 4.29704 29.6174C4.87301 30.4908 5.20434 30.6534 9.29626 32.0717C11.4345 32.8128 13.2174 33.454 13.2582 33.4966C13.2989 33.539 13.3512 34.4245 13.3743 35.4644L13.4162 37.3549L9.77011 39.0194C5.99211 40.7442 5.54415 41.0036 5.04767 41.7539C4.77367 42.1679 1.98491 56.0544 1.98491 57.0048C1.98491 59.1841 4.45069 60.6705 6.44623 59.6942C7.83167 59.0164 7.79001 59.137 9.19495 51.7362C9.83115 48.3851 10.4144 45.5864 10.4913 45.5167C10.7918 45.2438 14.6423 43.5742 14.7309 43.6782C14.7816 43.7378 14.9952 44.2565 15.2053 44.831C20.9703 60.5886 37.0358 60.7057 43.0745 45.0341C43.3512 44.3161 43.6065 43.7316 43.6418 43.7353C43.6772 43.7392 44.5648 44.1961 45.6146 44.7508L47.523 45.7594L48.8896 51.8273C50.3178 58.1697 50.3948 58.4338 50.9876 59.0403C52.8758 60.9716 56.2091 59.662 56.205 56.9906C56.2042 56.4041 53.425 43.67 53.0406 42.4907C52.7362 41.5571 52.2027 41.1797 48.5485 39.3136C46.6511 38.3446 45.0465 37.4923 44.9826 37.4196C44.9101 37.3371 44.8884 36.5749 44.9246 35.3894L44.9826 33.4912L48.6383 32.2251C52.4673 30.8988 53.0066 30.6372 53.5238 29.8556C54.0852 29.0075 56.9151 19.2717 56.8557 18.393C56.6908 15.9499 53.9936 14.6798 52.0147 16.1134C51.2848 16.642 51.0743 17.1458 49.742 21.5505L48.4642 25.7745L45.853 26.6794L43.2418 27.5843L29.1994 27.5847L15.157 27.5849L12.2707 26.5739L9.38447 25.5628L8.08455 21.242C6.64862 16.4696 6.59443 16.3542 5.49308 15.7319C4.74605 15.3098 3.81043 15.215 2.98761 15.4779ZM4.96226 16.5304C5.70592 16.8832 5.8525 17.2239 7.20394 21.7406C7.90989 24.1 8.52764 26.1025 8.57662 26.1905C8.62559 26.2786 10.1524 26.865 11.9693 27.4935L15.273 28.6362L29.1994 28.6325L43.1258 28.6289L46.1926 27.5618L49.2594 26.4946L50.5826 22.0846C52.022 17.2873 52.1248 17.059 53.0242 16.6612C54.3603 16.0701 55.9497 17.0827 55.9497 18.5251C55.9497 18.9343 53.088 28.7178 52.8283 29.1964C52.4842 29.8308 52.0506 30.0336 48.0632 31.4251C45.8707 32.1901 44.0657 32.8299 44.052 32.8468C44.0382 32.8637 43.999 34.0365 43.9646 35.4532L43.9023 38.0289L47.3699 39.7887C51.4432 41.856 51.787 42.062 52.0313 42.5813C52.3991 43.3636 55.2791 56.499 55.2262 57.1533C55.0999 58.7145 53.3365 59.537 52.005 58.6559C51.3032 58.1915 51.2537 58.0307 49.7501 51.3315L48.3432 45.0631L45.6777 43.7125L43.0122 42.362L42.5383 43.7125C40.4614 49.6329 36.9355 53.7431 32.661 55.2267C25.8696 57.5839 18.8212 52.7338 15.7828 43.6124C15.4925 42.7408 15.2867 42.2908 15.1896 42.3152C14.9369 42.3786 9.70814 44.7808 9.60903 44.8789C9.55762 44.9298 8.97352 47.8212 8.31097 51.3042C7.64854 54.7873 7.02475 57.795 6.92495 57.9881C6.06464 59.6517 3.53515 59.3009 3.03647 57.4489C2.91055 56.9814 5.33409 43.4893 5.71439 42.5402C5.98248 41.8712 6.64259 41.4848 10.6013 39.6802L14.5174 37.8949L14.4344 37.069C14.3888 36.6147 14.3499 35.4729 14.3481 34.5316C14.3461 33.5902 14.3402 32.82 14.3348 32.8198C14.3295 32.8196 12.9194 32.328 11.2014 31.7273C9.48334 31.1266 7.58819 30.465 6.98982 30.257C5.84008 29.8576 5.33676 29.5244 5.05255 28.9748C4.8491 28.5812 1.86851 18.7194 1.86955 18.4427C1.87477 16.9122 3.56486 15.8673 4.96226 16.5304ZM23.6782 17.4481C21.8494 18.0116 21.1947 20.4957 22.475 22.0141C23.5028 23.2332 25.7227 23.2409 26.7423 22.0291C28.6227 19.7944 26.4766 16.586 23.6782 17.4481ZM32.6504 17.3754C30.669 17.8801 29.9118 20.4876 31.3004 22.0246C32.9623 23.8641 36.0216 22.8426 36.199 20.3888C36.342 18.4136 34.5494 16.8915 32.6504 17.3754ZM25.6707 18.606C27.2013 19.5837 26.4528 21.9685 24.6153 21.9685C24.1078 21.9685 23.8531 21.9071 23.6083 21.7257C21.5826 20.2247 23.5486 17.2505 25.6707 18.606ZM33.9047 18.3124C34.6425 18.5173 35.2922 19.3927 35.2922 20.1819C35.2922 21.4264 33.7335 22.4267 32.6594 21.8713C30.6025 20.8076 31.6907 17.6973 33.9047 18.3124Z" fill="black"/>
<path fill-rule="evenodd" clip-rule="evenodd" d="M10.4539 0.237546C8.97793 0.984117 8.78911 3.09872 10.1141 4.04224C10.2997 4.1743 11.2751 4.53709 12.282 4.84834C18.6466 6.81649 19.2308 7.31459 21.6661 12.8511L22.5052 14.7588L21.7519 15.5784C19.7234 17.7849 17.9303 21.29 17.0646 24.7403C16.9347 25.2584 16.8013 25.7737 16.7681 25.8853C16.7111 26.0778 17.3458 26.0884 28.9595 26.0884C40.0591 26.0884 41.2109 26.0711 41.2109 25.9047C41.2109 25.585 40.765 23.9589 40.3346 22.7094C39.4236 20.0641 38.0306 17.5917 36.4013 15.7281L35.5223 14.7226L36.516 12.4849C38.8073 7.32492 39.7345 6.58659 46.3173 4.67925C47.6938 4.28038 48.0958 4.03922 48.4819 3.38038C49.3267 1.93877 48.3973 0.132634 46.7455 0.00636849C46.2512 -0.0314649 45.7373 0.0879539 43.8801 0.67205C36.4268 3.01621 35.2713 4.01972 32.3868 10.6533C31.9843 11.5789 31.64 12.3557 31.6217 12.3796C31.6033 12.4035 31.1672 12.3382 30.6526 12.2346C29.4798 11.9982 28.6172 11.9962 27.4009 12.2269C26.8764 12.3264 26.4335 12.3917 26.4168 12.372C26.4002 12.3522 26.0069 11.4744 25.5429 10.4212C22.6785 3.91887 21.4525 2.89447 13.73 0.550426C11.6031 -0.0951786 11.1897 -0.134637 10.4539 0.237546ZM12.9155 1.31754C20.9747 3.72704 21.8775 4.48161 24.8491 11.2916C26.0065 13.9441 25.8196 13.7193 26.6307 13.4343C28.1054 12.916 29.897 12.92 31.4231 13.445C31.7848 13.5695 32.0982 13.654 32.1193 13.6328C32.1405 13.6115 32.5532 12.6845 33.0364 11.5725C35.8743 5.04134 36.741 4.14947 42.0233 2.32546C45.3216 1.18651 46.5109 0.874214 46.9707 1.0259C47.694 1.26462 48.028 2.15045 47.6617 2.85861C47.4442 3.2793 47.2958 3.3458 44.9217 4.08669C40.2091 5.55731 38.5105 6.60725 37.1566 8.8863C36.7786 9.52262 34.3638 14.815 34.3638 15.0071C34.3638 15.0372 34.7212 15.4148 35.158 15.846C37.24 17.9012 39.2197 21.5475 39.9785 24.7248L40.0548 25.0439H29.0275C21.6295 25.0439 18.0003 25.0051 18.0003 24.9259C18.0003 24.8609 18.2137 24.169 18.4745 23.3882C19.4691 20.4104 20.9712 17.7979 22.7232 15.9986L23.6903 15.0053L22.8011 12.9744C20.0035 6.58496 19.3303 6.00098 12.2295 3.80305C10.4985 3.26723 10.2247 3.05845 10.2247 2.27416C10.2247 1.69599 10.3765 1.41467 10.8414 1.13116C11.3227 0.837773 11.306 0.836265 12.9155 1.31754ZM2.98761 15.4779C1.84472 15.843 0.94043 17.1385 0.94043 18.4107C0.94043 19.139 3.89735 29.0113 4.29704 29.6174C4.87301 30.4908 5.20434 30.6534 9.29626 32.0717C11.4345 32.8128 13.2174 33.454 13.2582 33.4966C13.2989 33.539 13.3512 34.4245 13.3743 35.4644L13.4162 37.3549L9.77011 39.0194C5.99211 40.7442 5.54415 41.0036 5.04767 41.7539C4.77367 42.1679 1.98491 56.0544 1.98491 57.0048C1.98491 59.1841 4.45069 60.6705 6.44623 59.6942C7.83167 59.0164 7.79001 59.137 9.19495 51.7362C9.83115 48.3851 10.4144 45.5864 10.4913 45.5167C10.7918 45.2438 14.6423 43.5742 14.7309 43.6782C14.7816 43.7378 14.9952 44.2565 15.2053 44.831C20.9703 60.5886 37.0358 60.7057 43.0745 45.0341C43.3512 44.3161 43.6065 43.7316 43.6418 43.7353C43.6772 43.7392 44.5648 44.1961 45.6146 44.7508L47.523 45.7594L48.8896 51.8273C50.3178 58.1697 50.3948 58.4338 50.9876 59.0403C52.8758 60.9716 56.2091 59.662 56.205 56.9906C56.2042 56.4041 53.425 43.67 53.0406 42.4907C52.7362 41.5571 52.2027 41.1797 48.5485 39.3136C46.6511 38.3446 45.0465 37.4923 44.9826 37.4196C44.9101 37.3371 44.8884 36.5749 44.9246 35.3894L44.9826 33.4912L48.6383 32.2251C52.4673 30.8988 53.0066 30.6372 53.5238 29.8556C54.0852 29.0075 56.9151 19.2717 56.8557 18.393C56.6908 15.9499 53.9936 14.6798 52.0147 16.1134C51.2848 16.642 51.0743 17.1458 49.742 21.5505L48.4642 25.7745L45.853 26.6794L43.2418 27.5843L29.1994 27.5847L15.157 27.5849L12.2707 26.5739L9.38447 25.5628L8.08455 21.242C6.64862 16.4696 6.59443 16.3542 5.49308 15.7319C4.74605 15.3098 3.81043 15.215 2.98761 15.4779ZM4.96226 16.5304C5.70592 16.8832 5.8525 17.2239 7.20394 21.7406C7.90989 24.1 8.52764 26.1025 8.57662 26.1905C8.62559 26.2786 10.1524 26.865 11.9693 27.4935L15.273 28.6362L29.1994 28.6325L43.1258 28.6289L46.1926 27.5618L49.2594 26.4946L50.5826 22.0846C52.022 17.2873 52.1248 17.059 53.0242 16.6612C54.3603 16.0701 55.9497 17.0827 55.9497 18.5251C55.9497 18.9343 53.088 28.7178 52.8283 29.1964C52.4842 29.8308 52.0506 30.0336 48.0632 31.4251C45.8707 32.1901 44.0657 32.8299 44.052 32.8468C44.0382 32.8637 43.999 34.0365 43.9646 35.4532L43.9023 38.0289L47.3699 39.7887C51.4432 41.856 51.787 42.062 52.0313 42.5813C52.3991 43.3636 55.2791 56.499 55.2262 57.1533C55.0999 58.7145 53.3365 59.537 52.005 58.6559C51.3032 58.1915 51.2537 58.0307 49.7501 51.3315L48.3432 45.0631L45.6777 43.7125L43.0122 42.362L42.5383 43.7125C40.4614 49.6329 36.9355 53.7431 32.661 55.2267C25.8696 57.5839 18.8212 52.7338 15.7828 43.6124C15.4925 42.7408 15.2867 42.2908 15.1896 42.3152C14.9369 42.3786 9.70814 44.7808 9.60903 44.8789C9.55762 44.9298 8.97352 47.8212 8.31097 51.3042C7.64854 54.7873 7.02475 57.795 6.92495 57.9881C6.06464 59.6517 3.53515 59.3009 3.03647 57.4489C2.91055 56.9814 5.33409 43.4893 5.71439 42.5402C5.98248 41.8712 6.64259 41.4848 10.6013 39.6802L14.5174 37.8949L14.4344 37.069C14.3888 36.6147 14.3499 35.4729 14.3481 34.5316C14.3461 33.5902 14.3402 32.82 14.3348 32.8198C14.3295 32.8196 12.9194 32.328 11.2014 31.7273C9.48334 31.1266 7.58819 30.465 6.98982 30.257C5.84008 29.8576 5.33676 29.5244 5.05255 28.9748C4.8491 28.5812 1.86851 18.7194 1.86955 18.4427C1.87477 16.9122 3.56486 15.8673 4.96226 16.5304ZM23.6782 17.4481C21.8494 18.0116 21.1947 20.4957 22.475 22.0141C23.5028 23.2332 25.7227 23.2409 26.7423 22.0291C28.6227 19.7944 26.4766 16.586 23.6782 17.4481ZM32.6504 17.3754C30.669 17.8801 29.9118 20.4876 31.3004 22.0246C32.9623 23.8641 36.0216 22.8426 36.199 20.3888C36.342 18.4136 34.5494 16.8915 32.6504 17.3754ZM25.6707 18.606C27.2013 19.5837 26.4528 21.9685 24.6153 21.9685C24.1078 21.9685 23.8531 21.9071 23.6083 21.7257C21.5826 20.2247 23.5486 17.2505 25.6707 18.606ZM33.9047 18.3124C34.6425 18.5173 35.2922 19.3927 35.2922 20.1819C35.2922 21.4264 33.7335 22.4267 32.6594 21.8713C30.6025 20.8076 31.6907 17.6973 33.9047 18.3124Z" fill="url(#paint0_linear_965_2942)"/>
<defs>
<linearGradient id="paint0_linear_965_2942" x1="15.3854" y1="4.5" x2="43.4935" y2="56.4048" gradientUnits="userSpaceOnUse">
<stop stop-color="#9934BD"/>
<stop offset="1" stop-color="#4479E0"/>
</linearGradient>
</defs>
</svg>
