<svg width="60" height="60" viewBox="0 0 60 60" fill="none" xmlns="http://www.w3.org/2000/svg">
<path fill-rule="evenodd" clip-rule="evenodd" d="M44.0425 32.6565C44.0566 33.0578 44.0661 33.4638 44.0661 33.8746C44.0661 34.9982 44.0096 36.0983 43.8921 37.1747L50.9082 40.7487C51.6512 41.1264 52.1402 41.8157 52.286 42.5806L55.2768 55.8378C55.4094 56.5044 55.2771 57.1967 54.9081 57.7667C54.5392 58.3367 53.9629 58.7393 53.3023 58.8885C52.6417 59.0376 51.9492 58.9216 51.3727 58.565C50.7962 58.2085 50.3814 57.6398 50.2169 56.9804L47.4801 44.8468L42.834 42.4814C40.4922 50.2856 35.0655 55.7528 28.7453 55.7528C22.3875 55.7528 16.9373 50.2195 14.619 42.3398L9.54031 44.6532L7.21258 56.9001C7.07913 57.5751 6.68528 58.1698 6.11689 58.5545C5.54851 58.9392 4.8517 59.0828 4.17836 58.9538C3.50503 58.8248 2.90978 58.4338 2.5224 57.866C2.13501 57.2983 1.98691 56.5998 2.11037 55.9228L4.68263 42.4011C4.82371 41.5749 5.35979 40.8337 6.17333 40.4654L13.5892 37.085C13.481 36.0275 13.4246 34.9463 13.4246 33.8793V33.8746C13.4246 33.4638 13.434 33.0531 13.4481 32.6423L5.62313 29.9276C5.23363 29.7929 4.88187 29.5667 4.59719 29.2677C4.31251 28.9688 4.10318 28.6058 3.98667 28.2091H3.97726L1.10874 18.6674C0.69962 17.2888 1.48023 15.8347 2.85807 15.4239C4.2312 15.0132 5.67956 15.7969 6.08868 17.1803L8.5716 25.4424L14.84 27.6142H42.6882L48.43 25.6266L50.9129 17.3644C51.1099 16.7018 51.5608 16.1447 52.1664 15.8155C52.7721 15.4862 53.4831 15.4116 54.1435 15.6081C54.8035 15.8059 55.3583 16.2585 55.6863 16.8666C56.0142 17.4747 56.0885 18.1886 55.8928 18.8516L53.0243 28.3932H53.0149C52.8975 28.7889 52.6878 29.1508 52.4032 29.4489C52.1186 29.7469 51.7673 29.9726 51.3784 30.107L44.0425 32.6565V32.6565ZM28.5854 13.0633C29.5588 13.0633 30.5088 13.2475 31.421 13.5874C31.7549 12.8461 32.0559 12.1521 32.3333 11.5195C35.2395 4.88613 35.6157 4.02214 45.6273 1.07136C46.5631 0.797528 47.5459 1.33575 47.8233 2.27528C48.1008 3.21481 47.56 4.20155 46.6242 4.4801C38.1926 6.96348 37.8917 7.65278 35.5733 12.9547C35.2489 13.6913 34.8915 14.508 34.4683 15.4428C37.1064 17.7279 39.1802 21.5049 40.2429 26.0704H16.9279C17.9954 21.5049 20.0645 17.7279 22.7026 15.4428C22.2747 14.508 21.9173 13.6913 21.5975 12.9547C19.2792 7.65278 18.9735 6.96348 10.5466 4.4801C9.61085 4.20627 9.07477 3.21481 9.34751 2.27528C9.48043 1.82373 9.78619 1.44347 10.1978 1.21781C10.6094 0.992157 11.0934 0.939493 11.5436 1.07136C21.5505 4.02214 21.9267 4.88613 24.8328 11.5195C25.1103 12.1521 25.4159 12.8461 25.7498 13.5874C26.6561 13.2434 27.6166 13.0659 28.5854 13.0633V13.0633ZM32.9729 18.2803C34.2755 18.2803 35.3335 19.3426 35.3335 20.6504C35.3335 21.9582 34.2755 23.0204 32.9729 23.0204C31.6703 23.0204 30.6122 21.9582 30.6122 20.6504C30.6122 19.3426 31.6703 18.2803 32.9729 18.2803ZM24.1933 18.2803C25.4959 18.2803 26.554 19.3426 26.554 20.6504C26.554 21.9582 25.4959 23.0204 24.1933 23.0204C22.8907 23.0204 21.8326 21.9582 21.8326 20.6504C21.8326 19.3426 22.8907 18.2803 24.1933 18.2803Z" stroke="black"/>
<path fill-rule="evenodd" clip-rule="evenodd" d="M44.0425 32.6565C44.0566 33.0578 44.0661 33.4638 44.0661 33.8746C44.0661 34.9982 44.0096 36.0983 43.8921 37.1747L50.9082 40.7487C51.6512 41.1264 52.1402 41.8157 52.286 42.5806L55.2768 55.8378C55.4094 56.5044 55.2771 57.1967 54.9081 57.7667C54.5392 58.3367 53.9629 58.7393 53.3023 58.8885C52.6417 59.0376 51.9492 58.9216 51.3727 58.565C50.7962 58.2085 50.3814 57.6398 50.2169 56.9804L47.4801 44.8468L42.834 42.4814C40.4922 50.2856 35.0655 55.7528 28.7453 55.7528C22.3875 55.7528 16.9373 50.2195 14.619 42.3398L9.54031 44.6532L7.21258 56.9001C7.07913 57.5751 6.68528 58.1698 6.11689 58.5545C5.54851 58.9392 4.8517 59.0828 4.17836 58.9538C3.50503 58.8248 2.90978 58.4338 2.5224 57.866C2.13501 57.2983 1.98691 56.5998 2.11037 55.9228L4.68263 42.4011C4.82371 41.5749 5.35979 40.8337 6.17333 40.4654L13.5892 37.085C13.481 36.0275 13.4246 34.9463 13.4246 33.8793V33.8746C13.4246 33.4638 13.434 33.0531 13.4481 32.6423L5.62313 29.9276C5.23363 29.7929 4.88187 29.5667 4.59719 29.2677C4.31251 28.9688 4.10318 28.6058 3.98667 28.2091H3.97726L1.10874 18.6674C0.69962 17.2888 1.48023 15.8347 2.85807 15.4239C4.2312 15.0132 5.67956 15.7969 6.08868 17.1803L8.5716 25.4424L14.84 27.6142H42.6882L48.43 25.6266L50.9129 17.3644C51.1099 16.7018 51.5608 16.1447 52.1664 15.8155C52.7721 15.4862 53.4831 15.4116 54.1435 15.6081C54.8035 15.8059 55.3583 16.2585 55.6863 16.8666C56.0142 17.4747 56.0885 18.1886 55.8928 18.8516L53.0243 28.3932H53.0149C52.8975 28.7889 52.6878 29.1508 52.4032 29.4489C52.1186 29.7469 51.7673 29.9726 51.3784 30.107L44.0425 32.6565V32.6565ZM28.5854 13.0633C29.5588 13.0633 30.5088 13.2475 31.421 13.5874C31.7549 12.8461 32.0559 12.1521 32.3333 11.5195C35.2395 4.88613 35.6157 4.02214 45.6273 1.07136C46.5631 0.797528 47.5459 1.33575 47.8233 2.27528C48.1008 3.21481 47.56 4.20155 46.6242 4.4801C38.1926 6.96348 37.8917 7.65278 35.5733 12.9547C35.2489 13.6913 34.8915 14.508 34.4683 15.4428C37.1064 17.7279 39.1802 21.5049 40.2429 26.0704H16.9279C17.9954 21.5049 20.0645 17.7279 22.7026 15.4428C22.2747 14.508 21.9173 13.6913 21.5975 12.9547C19.2792 7.65278 18.9735 6.96348 10.5466 4.4801C9.61085 4.20627 9.07477 3.21481 9.34751 2.27528C9.48043 1.82373 9.78619 1.44347 10.1978 1.21781C10.6094 0.992157 11.0934 0.939493 11.5436 1.07136C21.5505 4.02214 21.9267 4.88613 24.8328 11.5195C25.1103 12.1521 25.4159 12.8461 25.7498 13.5874C26.6561 13.2434 27.6166 13.0659 28.5854 13.0633V13.0633ZM32.9729 18.2803C34.2755 18.2803 35.3335 19.3426 35.3335 20.6504C35.3335 21.9582 34.2755 23.0204 32.9729 23.0204C31.6703 23.0204 30.6122 21.9582 30.6122 20.6504C30.6122 19.3426 31.6703 18.2803 32.9729 18.2803ZM24.1933 18.2803C25.4959 18.2803 26.554 19.3426 26.554 20.6504C26.554 21.9582 25.4959 23.0204 24.1933 23.0204C22.8907 23.0204 21.8326 21.9582 21.8326 20.6504C21.8326 19.3426 22.8907 18.2803 24.1933 18.2803Z" stroke="url(#paint0_linear_160_5238)"/>
<defs>
<linearGradient id="paint0_linear_160_5238" x1="15.2083" y1="5.35" x2="42.1198" y2="55.9164" gradientUnits="userSpaceOnUse">
<stop stop-color="#9934BD"/>
<stop offset="1" stop-color="#4479E0"/>
</linearGradient>
</defs>
</svg>
