<svg width="61" height="60" viewBox="0 0 61 60" fill="none" xmlns="http://www.w3.org/2000/svg">
<path fill-rule="evenodd" clip-rule="evenodd" d="M3.93909 0.0809616C2.99715 0.304842 2.08128 0.982945 1.50224 1.88536C0.794957 2.98753 0.839863 0.975622 0.870661 30.2314L0.89866 56.7694L1.14472 57.3782C1.62641 58.5693 2.48122 59.3874 3.68247 59.8065C4.20432 59.9886 5.00723 60 17.3209 60H30.4048L31.0278 59.7486C32.3424 59.2179 33.3499 57.934 33.5768 56.5002C33.7323 55.5178 33.7302 4.37303 33.5747 3.4143C33.3539 2.054 32.5175 0.95064 31.2258 0.316042L30.6202 0.0185033L17.4824 0.00159655C10.0575 -0.00798757 4.16835 0.0264721 3.93909 0.0809616ZM11.2268 1.33767L11.5968 1.74149L17.523 1.77197C23.9766 1.80503 24.0693 1.79738 24.3375 1.20866L24.4628 0.93384L27.38 0.934917C31.0394 0.93621 31.6319 1.14964 32.4207 2.75084L32.6662 3.2491V30.0093V56.7694L32.3752 57.3211C32.2151 57.6245 31.8611 58.0692 31.5885 58.3091C30.6483 59.1368 31.6104 59.0847 17.267 59.0847C2.60916 59.0847 3.81643 59.1648 2.77521 58.1235C1.71094 57.0592 1.814 60.0747 1.814 29.9941C1.814 -0.0128331 1.72343 2.89697 2.68874 1.90227C3.5904 0.973146 3.77648 0.936102 7.54691 0.934917L10.8568 0.93384L11.2268 1.33767ZM12.6904 55.4772V56.3925H17.6978H22.7052V55.4772V54.5618H17.6978H12.6904V55.4772Z" fill="black"/>
<path fill-rule="evenodd" clip-rule="evenodd" d="M3.93909 0.0809616C2.99715 0.304842 2.08128 0.982945 1.50224 1.88536C0.794957 2.98753 0.839863 0.975622 0.870661 30.2314L0.89866 56.7694L1.14472 57.3782C1.62641 58.5693 2.48122 59.3874 3.68247 59.8065C4.20432 59.9886 5.00723 60 17.3209 60H30.4048L31.0278 59.7486C32.3424 59.2179 33.3499 57.934 33.5768 56.5002C33.7323 55.5178 33.7302 4.37303 33.5747 3.4143C33.3539 2.054 32.5175 0.95064 31.2258 0.316042L30.6202 0.0185033L17.4824 0.00159655C10.0575 -0.00798757 4.16835 0.0264721 3.93909 0.0809616ZM11.2268 1.33767L11.5968 1.74149L17.523 1.77197C23.9766 1.80503 24.0693 1.79738 24.3375 1.20866L24.4628 0.93384L27.38 0.934917C31.0394 0.93621 31.6319 1.14964 32.4207 2.75084L32.6662 3.2491V30.0093V56.7694L32.3752 57.3211C32.2151 57.6245 31.8611 58.0692 31.5885 58.3091C30.6483 59.1368 31.6104 59.0847 17.267 59.0847C2.60916 59.0847 3.81643 59.1648 2.77521 58.1235C1.71094 57.0592 1.814 60.0747 1.814 29.9941C1.814 -0.0128331 1.72343 2.89697 2.68874 1.90227C3.5904 0.973146 3.77648 0.936102 7.54691 0.934917L10.8568 0.93384L11.2268 1.33767ZM12.6904 55.4772V56.3925H17.6978H22.7052V55.4772V54.5618H17.6978H12.6904V55.4772Z" fill="url(#paint0_linear_965_2943)"/>
<defs>
<linearGradient id="paint0_linear_965_2943" x1="9.33906" y1="4.5" x2="42.7923" y2="40.7766" gradientUnits="userSpaceOnUse">
<stop stop-color="#9934BD"/>
<stop offset="1" stop-color="#4479E0"/>
</linearGradient>
</defs>
</svg>
