<svg width="93" height="45" viewBox="0 0 93 45" fill="none" xmlns="http://www.w3.org/2000/svg">
<rect width="93" height="45" rx="10" fill="#575A5D"/>
<g clip-path="url(#clip0_251_4664)">
<path fill-rule="evenodd" clip-rule="evenodd" d="M23.9999 12.4C18.6959 12.4 14.3999 16.696 14.3999 22C14.3999 26.248 17.1479 29.836 20.9639 31.108C21.4439 31.192 21.6239 30.904 21.6239 30.652C21.6239 30.424 21.6119 29.668 21.6119 28.864C19.1999 29.308 18.5759 28.276 18.3839 27.736C18.2759 27.46 17.8079 26.608 17.3999 26.38C17.0639 26.2 16.5839 25.756 17.3879 25.744C18.1439 25.732 18.6839 26.44 18.8639 26.728C19.7279 28.18 21.1079 27.772 21.6599 27.52C21.7439 26.896 21.9959 26.476 22.2719 26.236C20.1359 25.996 17.9039 25.168 17.9039 21.496C17.9039 20.452 18.2759 19.588 18.8879 18.916C18.7919 18.676 18.4559 17.692 18.9839 16.372C18.9839 16.372 19.7879 16.12 21.6239 17.356C22.3919 17.14 23.2079 17.032 24.0239 17.032C24.8399 17.032 25.6559 17.14 26.4239 17.356C28.2599 16.108 29.0639 16.372 29.0639 16.372C29.5919 17.692 29.2559 18.676 29.1599 18.916C29.7719 19.588 30.1439 20.44 30.1439 21.496C30.1439 25.18 27.8999 25.996 25.7639 26.236C26.1119 26.536 26.4119 27.112 26.4119 28.012C26.4119 29.296 26.3999 30.328 26.3999 30.652C26.3999 30.904 26.5799 31.204 27.0599 31.108C28.9656 30.4646 30.6216 29.2398 31.7948 27.6059C32.968 25.9721 33.5993 24.0115 33.5999 22C33.5999 16.696 29.3039 12.4 23.9999 12.4Z" fill="white"/>
</g>
<path d="M53.072 28.144C52.1867 28.144 51.376 28.032 50.64 27.808C49.904 27.5733 49.28 27.248 48.768 26.832L49.296 25.52C49.8293 25.9253 50.4 26.2293 51.008 26.432C51.616 26.6347 52.304 26.736 53.072 26.736C53.9787 26.736 54.6453 26.576 55.072 26.256C55.5093 25.9253 55.728 25.4987 55.728 24.976C55.728 24.5493 55.5733 24.2133 55.264 23.968C54.9547 23.712 54.4373 23.5093 53.712 23.36L52 23.008C50.9867 22.7947 50.2293 22.4427 49.728 21.952C49.2373 21.4613 48.992 20.8 48.992 19.968C48.992 19.296 49.168 18.704 49.52 18.192C49.8827 17.68 50.384 17.2853 51.024 17.008C51.664 16.72 52.4 16.576 53.232 16.576C54 16.576 54.7093 16.6933 55.36 16.928C56.0213 17.152 56.5813 17.4827 57.04 17.92L56.496 19.184C55.5893 18.384 54.496 17.984 53.216 17.984C52.4267 17.984 51.7973 18.16 51.328 18.512C50.8693 18.864 50.64 19.3333 50.64 19.92C50.64 20.368 50.784 20.7253 51.072 20.992C51.36 21.2587 51.84 21.4613 52.512 21.6L54.208 21.952C55.2747 22.176 56.0693 22.5227 56.592 22.992C57.1147 23.4507 57.376 24.0747 57.376 24.864C57.376 25.5253 57.2 26.1013 56.848 26.592C56.496 27.0827 56 27.4667 55.36 27.744C54.72 28.0107 53.9573 28.144 53.072 28.144ZM62.3703 28.144C61.3889 28.144 60.6583 27.8933 60.1783 27.392C59.6983 26.8907 59.4583 26.1653 59.4583 25.216V21.44H57.9383V20.192H59.4583V17.84H61.0743V20.192H63.4903V21.44H61.0743V25.088C61.0743 25.6533 61.1916 26.08 61.4263 26.368C61.6716 26.656 62.0663 26.8 62.6102 26.8C62.7809 26.8 62.9463 26.784 63.1063 26.752C63.2663 26.7093 63.4263 26.6613 63.5863 26.608L63.8423 27.824C63.6823 27.92 63.4583 27.9947 63.1703 28.048C62.8929 28.112 62.6263 28.144 62.3703 28.144ZM67.382 28.144C66.838 28.144 66.3527 28.0373 65.926 27.824C65.4993 27.6107 65.158 27.3227 64.902 26.96C64.6567 26.5973 64.534 26.1867 64.534 25.728C64.534 25.152 64.678 24.6987 64.966 24.368C65.2647 24.0373 65.75 23.7973 66.422 23.648C67.1047 23.4987 68.022 23.424 69.174 23.424H69.718V23.008C69.718 22.4 69.59 21.9627 69.334 21.696C69.078 21.4293 68.6567 21.296 68.07 21.296C67.622 21.296 67.174 21.3653 66.726 21.504C66.278 21.632 65.8193 21.84 65.35 22.128L64.854 20.992C65.2593 20.704 65.766 20.4747 66.374 20.304C66.982 20.1333 67.5633 20.048 68.118 20.048C69.1847 20.048 69.974 20.304 70.486 20.816C70.998 21.3173 71.254 22.1067 71.254 23.184V28H69.734V26.704C69.542 27.152 69.2433 27.504 68.838 27.76C68.4327 28.016 67.9473 28.144 67.382 28.144ZM67.702 26.992C68.278 26.992 68.758 26.7893 69.142 26.384C69.526 25.9787 69.718 25.4667 69.718 24.848V24.416H69.19C68.4113 24.416 67.798 24.4533 67.35 24.528C66.9127 24.6027 66.598 24.7307 66.406 24.912C66.2247 25.0827 66.134 25.3227 66.134 25.632C66.134 26.0373 66.2727 26.368 66.55 26.624C66.8273 26.8693 67.2113 26.992 67.702 26.992ZM73.4798 28V20.192H75.0478V21.584C75.4531 20.656 76.2958 20.1387 77.5758 20.032L78.1038 20L78.2158 21.376L77.2398 21.472C75.8211 21.6107 75.1118 22.3413 75.1118 23.664V28H73.4798Z" fill="white"/>
<defs>
<clipPath id="clip0_251_4664">
<rect width="24" height="24" fill="white" transform="translate(12 10)"/>
</clipPath>
</defs>
</svg>
