<svg width="63" height="35" viewBox="0 0 63 35" fill="none" xmlns="http://www.w3.org/2000/svg">
<rect x="6" width="57" height="35" rx="5" fill="#313439"/>
<path d="M17.984 23.144C17.3973 23.144 16.8107 23.0267 16.224 22.792C15.648 22.5573 15.1573 22.2373 14.752 21.832L15.328 20.568C15.7227 20.952 16.1493 21.2453 16.608 21.448C17.0667 21.64 17.5307 21.736 18 21.736C19.0027 21.736 19.7653 21.3787 20.288 20.664C20.8213 19.9387 21.088 18.8613 21.088 17.432V16.776C20.8747 17.4267 20.5013 17.9387 19.968 18.312C19.4453 18.6853 18.832 18.872 18.128 18.872C17.4773 18.872 16.896 18.7173 16.384 18.408C15.872 18.0987 15.472 17.6773 15.184 17.144C14.896 16.6 14.752 15.9813 14.752 15.288C14.752 14.5627 14.9067 13.9227 15.216 13.368C15.5253 12.8027 15.952 12.3653 16.496 12.056C17.0507 11.736 17.6853 11.576 18.4 11.576C19.7653 11.576 20.816 12.0613 21.552 13.032C22.2987 14.0027 22.672 15.3627 22.672 17.112C22.672 19.0427 22.256 20.5307 21.424 21.576C20.6027 22.6213 19.456 23.144 17.984 23.144ZM18.512 17.512C19.1627 17.512 19.6907 17.304 20.096 16.888C20.5013 16.4613 20.704 15.9067 20.704 15.224C20.704 14.5413 20.5013 13.9867 20.096 13.56C19.6907 13.1227 19.1627 12.904 18.512 12.904C17.8613 12.904 17.3333 13.1227 16.928 13.56C16.5227 13.9867 16.32 14.5413 16.32 15.224C16.32 15.9067 16.5227 16.4613 16.928 16.888C17.3333 17.304 17.8613 17.512 18.512 17.512ZM25.3538 24.968L24.6497 24.424C24.8951 24.1573 25.0764 23.912 25.1938 23.688C25.3111 23.464 25.3858 23.2347 25.4178 23H24.5378V21.096H26.4418V22.392C26.4418 22.8827 26.3618 23.3307 26.2018 23.736C26.0418 24.152 25.7591 24.5627 25.3538 24.968ZM32.1906 23.144C30.9 23.144 29.892 22.8667 29.1666 22.312C28.452 21.7573 28.0946 20.984 28.0946 19.992C28.0946 19.2987 28.276 18.712 28.6386 18.232C29.012 17.7413 29.4973 17.4053 30.0946 17.224C29.5613 17 29.14 16.6587 28.8306 16.2C28.5213 15.7307 28.3666 15.192 28.3666 14.584C28.3666 13.6453 28.7133 12.9093 29.4066 12.376C30.1 11.8427 31.028 11.576 32.1906 11.576C33.364 11.576 34.2973 11.8427 34.9906 12.376C35.684 12.9093 36.0306 13.6453 36.0306 14.584C36.0306 15.192 35.8706 15.7307 35.5506 16.2C35.2413 16.6693 34.82 17.0107 34.2866 17.224C34.8946 17.4053 35.38 17.7413 35.7426 18.232C36.1053 18.712 36.2866 19.2987 36.2866 19.992C36.2866 20.984 35.924 21.7573 35.1986 22.312C34.484 22.8667 33.4813 23.144 32.1906 23.144ZM32.1906 16.632C32.9053 16.632 33.46 16.4667 33.8546 16.136C34.26 15.7947 34.4626 15.3307 34.4626 14.744C34.4626 14.168 34.26 13.7147 33.8546 13.384C33.46 13.0533 32.9053 12.888 32.1906 12.888C31.476 12.888 30.9213 13.0533 30.5266 13.384C30.132 13.7147 29.9346 14.168 29.9346 14.744C29.9346 15.3307 30.132 15.7947 30.5266 16.136C30.9213 16.4667 31.476 16.632 32.1906 16.632ZM32.1906 21.832C33.8866 21.832 34.7346 21.1813 34.7346 19.88C34.7346 18.5893 33.8866 17.944 32.1906 17.944C31.3586 17.944 30.724 18.104 30.2866 18.424C29.86 18.744 29.6466 19.2293 29.6466 19.88C29.6466 21.1813 30.4946 21.832 32.1906 21.832ZM40.9684 23.144C40.3817 23.144 39.795 23.0267 39.2084 22.792C38.6324 22.5573 38.1417 22.2373 37.7364 21.832L38.3124 20.568C38.707 20.952 39.1337 21.2453 39.5924 21.448C40.051 21.64 40.515 21.736 40.9844 21.736C41.987 21.736 42.7497 21.3787 43.2724 20.664C43.8057 19.9387 44.0724 18.8613 44.0724 17.432V16.776C43.859 17.4267 43.4857 17.9387 42.9524 18.312C42.4297 18.6853 41.8164 18.872 41.1124 18.872C40.4617 18.872 39.8804 18.7173 39.3684 18.408C38.8564 18.0987 38.4564 17.6773 38.1684 17.144C37.8804 16.6 37.7364 15.9813 37.7364 15.288C37.7364 14.5627 37.891 13.9227 38.2004 13.368C38.5097 12.8027 38.9364 12.3653 39.4804 12.056C40.035 11.736 40.6697 11.576 41.3844 11.576C42.7497 11.576 43.8004 12.0613 44.5364 13.032C45.283 14.0027 45.6564 15.3627 45.6564 17.112C45.6564 19.0427 45.2404 20.5307 44.4084 21.576C43.587 22.6213 42.4404 23.144 40.9684 23.144ZM41.4964 17.512C42.147 17.512 42.675 17.304 43.0804 16.888C43.4857 16.4613 43.6884 15.9067 43.6884 15.224C43.6884 14.5413 43.4857 13.9867 43.0804 13.56C42.675 13.1227 42.147 12.904 41.4964 12.904C40.8457 12.904 40.3177 13.1227 39.9124 13.56C39.507 13.9867 39.3044 14.5413 39.3044 15.224C39.3044 15.9067 39.507 16.4613 39.9124 16.888C40.3177 17.304 40.8457 17.512 41.4964 17.512ZM48.1781 23L53.3461 13.112H47.5701V11.72H55.2021V12.952L50.0021 23H48.1781Z" fill="white"/>
<path d="M0 18L6 14V22L0 18Z" fill="#23272F"/>
</svg>
