<?xml version="1.0" standalone="no"?>
<!DOCTYPE svg PUBLIC "-//W3C//DTD SVG 20010904//EN" "http://www.w3.org/TR/2001/REC-SVG-20010904/DTD/svg10.dtd">
<svg version="1.0" xmlns="http://www.w3.org/2000/svg" width="141" height="45" viewBox="0 0 141 45" fill="none" preserveAspectRatio="xMidYMid meet">
<path d="M30.6642 16.0448C29.4214 15.4633 28.0925 15.0407 26.7031 14.8C26.5325 15.1085 26.3331 15.5235 26.1957 15.8535C24.7188 15.6314 23.2555 15.6314 21.8057 15.8535C21.6683 15.5235 21.4644 15.1085 21.2923 14.8C19.9014 15.0407 18.571 15.4648 17.3282 16.0479C14.8213 19.836 14.1418 23.5301 14.4815 27.1717C16.1442 28.4134 17.7555 29.1676 19.3397 29.6612C19.7308 29.1229 20.0796 28.5506 20.3801 27.9476C19.8078 27.7301 19.2596 27.4617 18.7417 27.1501C18.8791 27.0483 19.0135 26.9419 19.1433 26.8324C22.3026 28.31 25.7351 28.31 28.8566 26.8324C28.988 26.9419 29.1224 27.0483 29.2583 27.1501C28.7388 27.4632 28.1891 27.7316 27.6168 27.9491C27.9173 28.5506 28.2646 29.1244 28.6572 29.6627C30.2429 29.1692 31.8557 28.4149 33.5184 27.1717C33.9171 22.9502 32.8373 19.29 30.6642 16.0448ZM20.8105 24.9322C19.8622 24.9322 19.0844 24.0468 19.0844 22.9687C19.0844 21.8905 19.8456 21.0036 20.8105 21.0036C21.7755 21.0036 22.5532 21.889 22.5366 22.9687C22.5381 24.0468 21.7755 24.9322 20.8105 24.9322ZM27.1894 24.9322C26.241 24.9322 25.4633 24.0468 25.4633 22.9687C25.4633 21.8905 26.2244 21.0036 27.1894 21.0036C28.1544 21.0036 28.9321 21.889 28.9155 22.9687C28.9155 24.0468 28.1544 24.9322 27.1894 24.9322Z" fill="white"/>
<path d="M45.026 20.143L44.883 18.232L45.949 18.167C46.2697 18.1497 46.4993 18.076 46.638 17.946C46.7853 17.8073 46.859 17.582 46.859 17.27V10.835H49.251V17.231C49.251 19.0163 48.2847 19.9653 46.352 20.078L45.026 20.143ZM55.2001 20.143C54.2728 20.143 53.4581 19.948 52.7561 19.558C52.0628 19.1593 51.5211 18.6047 51.1311 17.894C50.7411 17.1833 50.5461 16.3557 50.5461 15.411C50.5461 14.4577 50.7368 13.63 51.1181 12.928C51.5081 12.2173 52.0541 11.667 52.7561 11.277C53.4581 10.887 54.2728 10.692 55.2001 10.692C56.1275 10.692 56.9378 10.887 57.6311 11.277C58.3331 11.667 58.8791 12.2173 59.2691 12.928C59.6591 13.63 59.8541 14.4577 59.8541 15.411C59.8541 16.3557 59.6591 17.1833 59.2691 17.894C58.8791 18.6047 58.3331 19.1593 57.6311 19.558C56.9378 19.948 56.1275 20.143 55.2001 20.143ZM55.2001 18.141C55.8761 18.141 56.4048 17.9027 56.7861 17.426C57.1761 16.9407 57.3711 16.269 57.3711 15.411C57.3711 14.553 57.1805 13.8857 56.7991 13.409C56.4178 12.9323 55.8848 12.694 55.2001 12.694C54.5155 12.694 53.9825 12.9323 53.6011 13.409C53.2198 13.8857 53.0291 14.553 53.0291 15.411C53.0291 16.269 53.2198 16.9407 53.6011 17.426C53.9825 17.9027 54.5155 18.141 55.2001 18.141ZM61.1365 20V10.835H63.5285V20H61.1365ZM65.0563 20V10.835H66.8113L71.0233 16.087V10.835H73.2333V20H71.4913L67.2793 14.748V20H65.0563ZM82.4235 20.143C81.0889 20.143 80.0662 19.805 79.3555 19.129C78.6535 18.453 78.3025 17.4433 78.3025 16.1V10.835H80.6945V16.126C80.6945 16.7933 80.8419 17.296 81.1365 17.634C81.4312 17.972 81.8602 18.141 82.4235 18.141C82.9782 18.141 83.4029 17.972 83.6975 17.634C83.9922 17.296 84.1395 16.7933 84.1395 16.126V10.835H86.4925V16.1C86.4925 17.4433 86.1459 18.453 85.4525 19.129C84.7679 19.805 83.7582 20.143 82.4235 20.143ZM91.3682 20.143C90.6488 20.143 89.9598 20.0563 89.3012 19.883C88.6425 19.701 88.1008 19.4627 87.6762 19.168L88.3392 17.309C88.7378 17.5777 89.2058 17.79 89.7432 17.946C90.2805 18.102 90.8222 18.18 91.3682 18.18C91.9402 18.18 92.3388 18.1063 92.5642 17.959C92.7982 17.803 92.9152 17.6123 92.9152 17.387C92.9152 17.1877 92.8328 17.0273 92.6682 16.906C92.5122 16.7847 92.2305 16.6807 91.8232 16.594L90.3022 16.269C88.6555 15.9137 87.8322 15.0513 87.8322 13.682C87.8322 13.084 87.9925 12.5597 88.3132 12.109C88.6425 11.6583 89.0975 11.3117 89.6782 11.069C90.2588 10.8177 90.9348 10.692 91.7062 10.692C92.3388 10.692 92.9368 10.783 93.5002 10.965C94.0722 11.1383 94.5358 11.3767 94.8912 11.68L94.2282 13.422C93.8988 13.1793 93.5175 12.993 93.0842 12.863C92.6508 12.7243 92.1828 12.655 91.6802 12.655C91.1948 12.655 90.8222 12.7417 90.5622 12.915C90.3022 13.0797 90.1722 13.2963 90.1722 13.565C90.1722 13.7557 90.2502 13.9117 90.4062 14.033C90.5622 14.1543 90.8395 14.2583 91.2382 14.345L92.7462 14.67C94.4188 15.0253 95.2552 15.866 95.2552 17.192C95.2552 17.79 95.0948 18.31 94.7742 18.752C94.4535 19.194 94.0028 19.5363 93.4222 19.779C92.8415 20.0217 92.1568 20.143 91.3682 20.143ZM104.31 20.143C103.382 20.143 102.568 19.948 101.866 19.558C101.172 19.1593 100.631 18.6047 100.241 17.894C99.8507 17.1833 99.6557 16.3557 99.6557 15.411C99.6557 14.4577 99.8463 13.63 100.228 12.928C100.618 12.2173 101.164 11.667 101.866 11.277C102.568 10.887 103.382 10.692 104.31 10.692C105.237 10.692 106.047 10.887 106.741 11.277C107.443 11.667 107.989 12.2173 108.379 12.928C108.769 13.63 108.964 14.4577 108.964 15.411C108.964 16.3557 108.769 17.1833 108.379 17.894C107.989 18.6047 107.443 19.1593 106.741 19.558C106.047 19.948 105.237 20.143 104.31 20.143ZM104.31 18.141C104.986 18.141 105.514 17.9027 105.896 17.426C106.286 16.9407 106.481 16.269 106.481 15.411C106.481 14.553 106.29 13.8857 105.909 13.409C105.527 12.9323 104.994 12.694 104.31 12.694C103.625 12.694 103.092 12.9323 102.711 13.409C102.329 13.8857 102.139 14.553 102.139 15.411C102.139 16.269 102.329 16.9407 102.711 17.426C103.092 17.9027 103.625 18.141 104.31 18.141ZM110.246 20V10.835H112.001L116.213 16.087V10.835H118.423V20H116.681L112.469 14.748V20H110.246Z" fill="white"/>
<g clip-path="url(#clip0_251_4440)">
<path d="M45.2145 25.0654H50.0424C51.2062 25.0654 52.1894 25.2515 52.9961 25.6218C53.8005 25.992 54.4037 26.5086 54.8035 27.1697C55.2029 27.8308 55.4045 28.5877 55.4045 29.4402C55.4045 30.2747 55.1958 31.0316 54.7785 31.7089C54.3612 32.3881 53.7262 32.9246 52.8722 33.3201C52.0181 33.7157 50.9603 33.9144 49.696 33.9144H45.2145V25.0654ZM49.6463 31.6656C50.4298 31.6656 51.033 31.4651 51.4537 31.0659C51.8748 30.6649 52.0853 30.1194 52.0853 29.4276C52.0853 28.7863 51.8976 28.2752 51.5228 27.8922C51.148 27.5093 50.5802 27.316 49.8214 27.316H48.3111V31.6656H49.6463Z" fill="white"/>
<path d="M62.6324 33.9037C61.9639 33.7267 61.3607 33.4702 60.825 33.1324V31.0336C61.23 31.3533 61.7728 31.617 62.4537 31.8247C63.1345 32.0306 63.7926 32.1336 64.429 32.1336C64.7262 32.1336 64.9509 32.0938 65.1028 32.0143C65.2551 31.9349 65.3312 31.8392 65.3312 31.729C65.3312 31.6025 65.2905 31.4978 65.2073 31.4129C65.1241 31.328 64.9632 31.2575 64.7246 31.1979L63.239 30.8565C62.3883 30.6542 61.7851 30.3743 61.4264 30.0148C61.0673 29.6572 60.8885 29.1875 60.8885 28.6059C60.8885 28.1164 61.0442 27.6919 61.3592 27.3289C61.672 26.9658 62.1177 26.6858 62.6959 26.4889C63.2745 26.2903 63.9498 26.1909 64.7262 26.1909C65.4194 26.1909 66.0543 26.2668 66.6328 26.4185C67.211 26.5702 67.6885 26.7635 68.0688 27.0001V28.9852C67.6795 28.7486 67.2338 28.5626 66.7247 28.4217C66.217 28.2826 65.6955 28.2139 65.1577 28.2139C64.3813 28.2139 63.9942 28.3494 63.9942 28.6185C63.9942 28.745 64.0543 28.8389 64.1745 28.9021C64.2947 28.9654 64.5157 29.0304 64.8359 29.099L66.0737 29.3266C66.8822 29.4693 67.485 29.7204 67.8811 30.078C68.2775 30.4357 68.4754 30.9649 68.4754 31.6658C68.4754 32.4334 68.1483 33.0421 67.4921 33.4937C66.8359 33.9453 65.9057 34.1711 64.6997 34.1711C63.9905 34.1693 63.301 34.0807 62.6324 33.9037Z" fill="white"/>
<path d="M71.3973 33.6379C70.6884 33.2838 70.1525 32.8034 69.7952 32.1965C69.438 31.5895 69.2577 30.9068 69.2577 30.1481C69.2577 29.3895 69.4432 28.7103 69.8146 28.1125C70.186 27.5146 70.7307 27.0449 71.4488 26.7036C72.1667 26.3622 73.0244 26.1924 74.0237 26.1924C75.2615 26.1924 76.2891 26.4579 77.1062 26.9889V29.3028C76.818 29.1005 76.4817 28.9361 76.098 28.8097C75.7143 28.6833 75.304 28.62 74.8654 28.62C74.098 28.62 73.4985 28.7627 73.0651 29.0499C72.6318 29.3371 72.4145 29.711 72.4145 30.1752C72.4145 30.6304 72.6247 31.0025 73.0457 31.2951C73.4667 31.5859 74.0767 31.7323 74.8778 31.7323C75.2899 31.7323 75.6967 31.6708 76.098 31.5498C76.4978 31.427 76.8427 31.2771 77.1308 31.1V33.338C76.2238 33.8943 75.1715 34.1725 73.9741 34.1725C72.9662 34.1689 72.1066 33.9919 71.3973 33.6379Z" fill="white"/>
<path d="M80.1938 33.6386C79.4794 33.2845 78.9347 32.8004 78.5596 32.1845C78.1849 31.5686 77.9956 30.8822 77.9956 30.1235C77.9956 29.3649 78.183 28.6875 78.5596 28.0933C78.9363 27.499 79.4775 27.033 80.1886 26.6952C80.8975 26.3574 81.7448 26.1895 82.7262 26.1895C83.7078 26.1895 84.5548 26.3574 85.264 26.6952C85.9732 27.033 86.5145 27.4954 86.8859 28.086C87.2573 28.6767 87.4428 29.3541 87.4428 30.1217C87.4428 30.8804 87.2573 31.5668 86.8859 32.1827C86.5145 32.7986 85.9714 33.2827 85.2569 33.6367C84.5425 33.9908 83.6989 34.1678 82.7246 34.1678C81.75 34.1678 80.9064 33.9926 80.1938 33.6386ZM83.9553 31.3952C84.2562 31.0881 84.4081 30.6817 84.4081 30.1759C84.4081 29.6702 84.2577 29.2674 83.9553 28.9693C83.6548 28.6695 83.2443 28.5196 82.7246 28.5196C82.1957 28.5196 81.7818 28.6695 81.4794 28.9693C81.1789 29.2692 81.0285 29.6702 81.0285 30.1759C81.0285 30.6817 81.1789 31.0881 81.4794 31.3952C81.7802 31.7022 82.1957 31.8576 82.7246 31.8576C83.2443 31.8558 83.6548 31.7022 83.9553 31.3952Z" fill="white"/>
<path d="M94.8811 26.6584V29.3895C94.5664 29.1782 94.1596 29.0734 93.6556 29.0734C92.9957 29.0734 92.4866 29.2775 92.1327 29.6858C91.7774 30.094 91.6004 30.7298 91.6004 31.5896V33.9161H88.5676V26.5194H91.5388V28.8711C91.7031 28.0113 91.9703 27.3773 92.338 26.9673C92.7042 26.5591 93.1779 26.355 93.7546 26.355C94.1913 26.355 94.5664 26.4561 94.8811 26.6584Z" fill="white"/>
<path d="M104.958 24.8127V33.9164H101.925V32.2601C101.668 32.8832 101.28 33.3583 100.756 33.6834C100.232 34.0067 99.5852 34.1693 98.8178 34.1693C98.1317 34.1693 97.534 33.9995 97.0227 33.6581C96.5117 33.3167 96.1175 32.8489 95.8398 32.2546C95.5639 31.6604 95.424 30.9884 95.424 30.237C95.4153 29.4621 95.5621 28.7667 95.8644 28.1508C96.1652 27.5348 96.5912 27.0544 97.1395 26.7093C97.6878 26.3644 98.3138 26.1909 99.016 26.1909C100.461 26.1909 101.43 26.8322 101.925 28.1128V24.8127H104.958ZM101.472 31.3443C101.782 31.0372 101.936 30.638 101.936 30.1503C101.936 29.6789 101.785 29.2941 101.485 28.9997C101.184 28.7053 100.772 28.5572 100.254 28.5572C99.7427 28.5572 99.3344 28.7071 99.0283 29.0069C98.7222 29.3068 98.5703 29.6951 98.5703 30.1756C98.5703 30.6561 98.7222 31.048 99.0283 31.3515C99.3344 31.6549 99.7375 31.8067 100.241 31.8067C100.752 31.8049 101.163 31.6513 101.472 31.3443Z" fill="white"/>
<path d="M57.9601 27.3071C58.7951 27.3071 59.4722 26.6861 59.4722 25.9199C59.4722 25.1538 58.7951 24.5327 57.9601 24.5327C57.1248 24.5327 56.448 25.1538 56.448 25.9199C56.448 26.6861 57.1248 27.3071 57.9601 27.3071Z" fill="white"/>
<path d="M56.4468 28.2622C57.3733 28.6704 58.523 28.6885 59.4708 28.2622V33.9556H56.4468V28.2622Z" fill="white"/>
</g>
<defs>
<clipPath id="clip0_251_4440">
<rect width="90" height="24.6575" fill="white" transform="translate(15 10)"/>
</clipPath>
</defs>
</svg>
