<?xml version="1.0" standalone="no"?>
<!DOCTYPE svg PUBLIC "-//W3C//DTD SVG 20010904//EN"
 "http://www.w3.org/TR/2001/REC-SVG-20010904/DTD/svg10.dtd">
<svg version="1.0" xmlns="http://www.w3.org/2000/svg"
 width="320.000000pt" height="90.000000pt" viewBox="0 0 320.000000 90.000000"
 preserveAspectRatio="xMidYMid meet">

<g transform="translate(0.000000,90.000000) scale(0.100000,-0.100000)"
fill="#FFFFFF" stroke="none">
<path d="M41 854 c-20 -26 -21 -38 -21 -359 l0 -333 31 -26 31 -26 264 0 264
0 -7 33 -6 32 39 -36 c82 -76 126 -114 140 -122 12 -7 14 51 14 393 0 421 -3
447 -45 464 -9 3 -167 6 -350 6 l-334 0 -20 -26z m522 -204 c43 -25 78 -112
85 -211 4 -62 3 -67 -23 -87 -35 -28 -94 -40 -105 -21 -6 9 2 20 26 37 47 32
38 37 -20 12 -64 -27 -163 -27 -235 0 -64 25 -75 21 -27 -9 61 -38 24 -67 -47
-37 -59 25 -69 45 -57 117 13 84 46 170 73 191 31 25 47 22 17 -3 -21 -17 -21
-20 -5 -14 54 18 132 35 160 35 36 0 122 -22 154 -40 35 -18 16 7 -23 31 -17
10 -26 19 -19 19 6 0 27 -9 46 -20z"/>
<path d="M296 504 c-31 -31 -11 -84 33 -84 16 0 41 30 41 50 0 22 -25 50 -45
50 -7 0 -21 -7 -29 -16z"/>
<path d="M458 509 c-10 -6 -18 -22 -18 -37 0 -54 48 -70 76 -27 15 23 15 27 0
50 -18 27 -31 30 -58 14z"/>
<path d="M950 835 c0 -34 1 -35 40 -35 l40 0 0 -80 c0 -68 -3 -81 -19 -90 -28
-14 -38 -13 -58 9 -13 13 -27 17 -50 14 -39 -6 -43 -28 -12 -66 46 -60 152
-53 196 12 21 31 23 46 23 152 l0 119 -80 0 -80 0 0 -35z"/>
<path d="M1214 861 c-48 -21 -64 -58 -64 -148 0 -54 5 -94 15 -112 37 -72 193
-72 230 0 10 18 15 58 15 113 0 80 -2 88 -29 118 -25 28 -35 32 -87 35 -32 1
-69 -1 -80 -6z m104 -73 c7 -7 12 -40 12 -78 0 -72 -10 -90 -50 -90 -40 0 -50
18 -50 90 0 38 5 71 12 78 15 15 61 15 76 0z"/>
<path d="M1460 710 l0 -160 40 0 40 0 0 160 0 160 -40 0 -40 0 0 -160z"/>
<path d="M1590 710 l0 -160 40 0 40 0 0 83 0 82 48 -82 47 -83 43 0 42 0 0
161 0 160 -42 -3 -43 -3 0 -89 c1 -70 -2 -84 -10 -65 -5 13 -27 54 -48 92 -37
65 -40 67 -78 67 l-39 0 0 -160z"/>
<path d="M1980 739 l0 -131 30 -28 c39 -37 94 -46 146 -25 63 25 74 53 74 194
l0 121 -40 0 -40 0 0 -114 c0 -125 -6 -140 -57 -134 l-28 3 -3 123 -3 122 -39
0 -40 0 0 -131z"/>
<path d="M2324 860 c-51 -20 -71 -97 -36 -140 9 -12 42 -30 72 -40 40 -13 55
-24 55 -37 0 -24 -46 -29 -78 -9 -22 15 -25 15 -46 -8 -28 -30 -22 -42 35 -68
37 -16 50 -17 85 -8 58 16 89 50 89 98 0 49 -36 89 -89 98 -41 7 -61 20 -61
40 0 21 38 27 69 11 28 -14 31 -13 51 8 l21 23 -27 21 c-28 22 -99 28 -140 11z"/>
<path d="M2663 850 c-45 -27 -53 -48 -53 -144 0 -75 3 -88 25 -114 48 -57 150
-61 211 -8 23 20 27 32 32 98 6 94 -9 143 -52 169 -42 25 -121 25 -163 -1z
m111 -56 c13 -5 16 -22 16 -84 0 -62 -3 -79 -16 -84 -25 -10 -59 -7 -72 6 -16
16 -16 140 0 156 13 13 47 16 72 6z"/>
<path d="M2920 710 l0 -160 41 0 41 0 -4 88 -3 89 46 -86 46 -86 47 -3 47 -3
-3 158 -3 158 -37 3 -38 3 0 -93 0 -93 -52 93 c-51 91 -52 92 -90 92 l-38 0 0
-160z"/>
<path d="M1474 491 c-56 -25 -74 -54 -74 -117 0 -45 4 -56 32 -83 20 -19 54
-38 88 -48 69 -19 84 -31 69 -49 -15 -18 -70 -18 -95 1 -27 20 -34 19 -73 -17
l-35 -31 32 -28 c105 -94 292 -36 292 91 0 69 -52 119 -142 135 -43 8 -61 25
-52 49 8 20 57 21 88 1 21 -14 25 -13 59 13 l36 29 -27 26 c-53 50 -126 61
-198 28z"/>
<path d="M1820 487 c-70 -37 -84 -64 -89 -168 -1 -50 0 -106 3 -125 25 -133
233 -166 310 -49 16 24 16 25 -24 45 -47 24 -57 25 -76 5 -19 -19 -68 -19 -83
-1 -8 9 -11 46 -9 102 3 87 3 89 31 99 22 7 35 6 58 -7 25 -15 34 -15 66 -4
45 15 51 33 24 68 -47 59 -137 74 -211 35z"/>
<path d="M2200 503 c-104 -38 -120 -66 -120 -213 0 -97 3 -117 21 -147 54 -88
220 -97 296 -16 l33 34 0 131 0 131 -34 31 c-48 46 -141 69 -196 49z m101
-113 c17 -9 19 -22 19 -98 0 -100 -7 -112 -61 -112 -57 0 -69 18 -69 110 0 58
4 83 16 94 18 18 66 21 95 6z"/>
<path d="M860 411 l0 -89 52 -46 c29 -25 56 -46 60 -46 5 0 8 36 8 80 l0 80
38 0 c54 0 62 -13 62 -101 0 -101 -10 -109 -132 -109 l-88 0 0 -50 0 -50 113
0 c187 0 222 33 222 210 0 121 -13 154 -75 189 -32 18 -55 21 -149 21 l-111 0
0 -89z"/>
<path d="M1240 290 l0 -210 55 0 55 0 0 210 0 210 -55 0 -55 0 0 -210z"/>
<path d="M2480 290 l0 -210 60 0 59 0 3 68 3 67 42 -60 c24 -33 44 -64 46 -68
1 -4 35 -7 76 -5 l73 3 -43 55 c-24 30 -47 57 -51 58 -14 6 -8 19 27 56 32 34
35 43 35 98 0 45 -5 67 -21 89 -35 50 -66 59 -194 59 l-115 0 0 -210z m210 85
c10 -12 10 -21 2 -40 -10 -21 -19 -25 -52 -25 l-40 0 0 40 c0 40 0 40 39 40
22 0 44 -6 51 -15z"/>
<path d="M2861 408 l0 -93 52 -42 52 -42 3 80 3 80 47 -3 47 -3 3 -90 c4 -112
1 -115 -120 -115 l-88 0 0 -51 0 -51 123 4 c103 2 126 6 149 23 50 38 58 64
58 186 0 106 -1 114 -26 147 -39 50 -77 62 -199 62 l-105 0 1 -92z"/>
</g>
</svg>
