<svg width="45" height="45" viewBox="0 0 45 45" fill="none" xmlns="http://www.w3.org/2000/svg">
<rect width="45" height="45" rx="10" fill="#718CD8"/>
<path d="M29.6646 16.0448C28.4218 15.4633 27.0929 15.0407 25.7035 14.8C25.5329 15.1085 25.3335 15.5235 25.1961 15.8535C23.7192 15.6314 22.2559 15.6314 20.8061 15.8535C20.6687 15.5235 20.4648 15.1085 20.2927 14.8C18.9018 15.0407 17.5714 15.4648 16.3285 16.0479C13.8217 19.836 13.1421 23.5301 13.4819 27.1717C15.1446 28.4134 16.7559 29.1676 18.3401 29.6612C18.7312 29.1229 19.08 28.5506 19.3805 27.9476C18.8082 27.7301 18.26 27.4617 17.742 27.1501C17.8795 27.0483 18.0139 26.9419 18.1437 26.8324C21.3029 28.31 24.7355 28.31 27.857 26.8324C27.9884 26.9419 28.1228 27.0483 28.2587 27.1501C27.7392 27.4632 27.1895 27.7316 26.6172 27.9491C26.9177 28.5506 27.265 29.1244 27.6576 29.6627C29.2433 29.1692 30.8561 28.4149 32.5188 27.1717C32.9175 22.9502 31.8377 19.29 29.6646 16.0448ZM19.8109 24.9322C18.8626 24.9322 18.0848 24.0468 18.0848 22.9687C18.0848 21.8905 18.846 21.0036 19.8109 21.0036C20.7759 21.0036 21.5536 21.889 21.537 22.9687C21.5385 24.0468 20.7759 24.9322 19.8109 24.9322ZM26.1898 24.9322C25.2414 24.9322 24.4637 24.0468 24.4637 22.9687C24.4637 21.8905 25.2248 21.0036 26.1898 21.0036C27.1548 21.0036 27.9325 21.889 27.9159 22.9687C27.9159 24.0468 27.1548 24.9322 26.1898 24.9322Z" fill="white"/>
</svg>
