<svg width="45" height="45" viewBox="0 0 45 45" fill="none" xmlns="http://www.w3.org/2000/svg">
<rect width="45" height="45" rx="10" fill="#575A5D"/>
<g clip-path="url(#clip0_889_2789)">
<path fill-rule="evenodd" clip-rule="evenodd" d="M23.0004 12.3999C17.6964 12.3999 13.4004 16.6959 13.4004 21.9999C13.4004 26.2479 16.1484 29.8359 19.9644 31.1079C20.4444 31.1919 20.6244 30.9039 20.6244 30.6519C20.6244 30.4239 20.6124 29.6679 20.6124 28.8639C18.2004 29.3079 17.5764 28.2759 17.3844 27.7359C17.2764 27.4599 16.8084 26.6079 16.4004 26.3799C16.0644 26.1999 15.5844 25.7559 16.3884 25.7439C17.1444 25.7319 17.6844 26.4399 17.8644 26.7279C18.7284 28.1799 20.1084 27.7719 20.6604 27.5199C20.7444 26.8959 20.9964 26.4759 21.2724 26.2359C19.1364 25.9959 16.9044 25.1679 16.9044 21.4959C16.9044 20.4519 17.2764 19.5879 17.8884 18.9159C17.7924 18.6759 17.4564 17.6919 17.9844 16.3719C17.9844 16.3719 18.7884 16.1199 20.6244 17.3559C21.3924 17.1399 22.2084 17.0319 23.0244 17.0319C23.8404 17.0319 24.6564 17.1399 25.4244 17.3559C27.2604 16.1079 28.0644 16.3719 28.0644 16.3719C28.5924 17.6919 28.2564 18.6759 28.1604 18.9159C28.7724 19.5879 29.1444 20.4399 29.1444 21.4959C29.1444 25.1799 26.9004 25.9959 24.7644 26.2359C25.1124 26.5359 25.4124 27.1119 25.4124 28.0119C25.4124 29.2959 25.4004 30.3279 25.4004 30.6519C25.4004 30.9039 25.5804 31.2039 26.0604 31.1079C27.9661 30.4645 29.6221 29.2396 30.7953 27.6058C31.9685 25.9719 32.5998 24.0113 32.6004 21.9999C32.6004 16.6959 28.3044 12.3999 23.0004 12.3999Z" fill="white"/>
</g>
<defs>
<clipPath id="clip0_889_2789">
<rect width="24" height="24" fill="white" transform="translate(11 10)"/>
</clipPath>
</defs>
</svg>
