<svg width="45" height="45" viewBox="0 0 45 45" fill="none" xmlns="http://www.w3.org/2000/svg">
<rect width="45" height="45" rx="10" fill="#1E9EEE"/>
<path d="M32.6004 16.4515C31.8943 16.7644 31.1358 16.9758 30.3384 17.0714C31.1612 16.579 31.7767 15.8042 32.0702 14.8914C31.2972 15.3506 30.4512 15.6738 29.5689 15.8469C28.9757 15.2135 28.1898 14.7936 27.3335 14.6525C26.4771 14.5114 25.5981 14.657 24.833 15.0667C24.0678 15.4763 23.4594 16.1271 23.102 16.9181C22.7446 17.709 22.6584 18.5957 22.8566 19.4407C21.2903 19.3621 19.7581 18.955 18.3593 18.2458C16.9605 17.5367 15.7265 16.5413 14.7373 15.3244C14.399 15.9078 14.2045 16.5843 14.2045 17.3047C14.2042 17.9533 14.3639 18.5919 14.6695 19.164C14.9752 19.736 15.4173 20.2238 15.9566 20.5839C15.3311 20.564 14.7194 20.395 14.1724 20.091V20.1417C14.1724 21.0513 14.487 21.933 15.063 22.637C15.639 23.3411 16.4408 23.8242 17.3324 24.0044C16.7521 24.1614 16.1438 24.1845 15.5533 24.072C15.8048 24.8547 16.2948 25.5391 16.9547 26.0295C17.6146 26.5198 18.4113 26.7916 19.2333 26.8067C17.8379 27.902 16.1146 28.4962 14.3407 28.4936C14.0265 28.4937 13.7125 28.4753 13.4004 28.4386C15.2011 29.5964 17.2972 30.2108 19.4379 30.2085C26.6846 30.2085 30.6462 24.2065 30.6462 19.001C30.6462 18.8319 30.642 18.6611 30.6344 18.4919C31.405 17.9347 32.0701 17.2446 32.5987 16.4541L32.6004 16.4515Z" fill="white"/>
</svg>
