<svg width="60" height="61" viewBox="0 0 60 61" fill="none" xmlns="http://www.w3.org/2000/svg">
<path fill-rule="evenodd" clip-rule="evenodd" d="M33.0267 4.03209C31.3169 4.37685 30.7262 6.71963 32.0432 7.933C32.5571 8.40649 32.9405 8.54339 34.1151 8.67274C42.2956 9.5737 49.1224 14.1751 52.7602 21.24C60.7071 36.6734 49.754 55.0612 32.4186 55.3887C16.845 55.683 5.39831 41.2256 9.25311 26.1302C9.75013 24.1838 11.0909 20.9261 11.2416 21.2989C11.2763 21.3847 11.6049 22.2339 11.9719 23.1861C12.7258 25.1425 12.8865 25.4275 13.4527 25.8129C15.2071 27.0065 17.633 25.4519 17.1755 23.427C17.0938 23.0652 13.919 14.7847 13.5257 13.9078C13.0503 12.8474 11.763 12.2581 10.6568 12.5945C9.8268 12.8468 1.23791 16.2353 0.984881 16.4102C-0.889207 17.7057 0.0956899 20.7409 2.38887 20.737C2.89204 20.7361 3.08688 20.677 4.87275 19.9844C5.93861 19.571 6.83755 19.2328 6.87039 19.2328C6.90323 19.2328 6.79083 19.5222 6.62056 19.876C0.716096 32.1445 4.5872 47.0323 15.7313 54.9155C25.4375 61.7814 38.5921 61.7506 48.245 54.8394C62.2411 44.8187 64.033 24.7655 52.0354 12.4201C48.1024 8.37312 43.0275 5.60239 37.5343 4.503C35.6715 4.13025 33.6088 3.91467 33.0267 4.03209ZM35.3436 5.09421C52.0678 7.10603 62.9898 24.2268 57.7919 40.2834C53.5328 53.4403 40.1049 61.3316 26.6104 58.6082C13.4274 55.9476 4.0554 43.885 4.84499 30.5939C5.12516 25.8785 6.34023 21.9647 8.8412 17.7222C8.96444 17.5131 9.01974 17.3602 8.96405 17.3825C7.45164 17.9855 2.85819 19.7425 2.65477 19.7958C1.54905 20.0855 0.559317 18.7366 1.10009 17.6769C1.34391 17.1993 1.462 17.1448 6.37611 15.2472C11.8673 13.1266 11.8456 13.1309 12.5115 14.0225C12.835 14.4556 16.256 23.4561 16.256 23.8738C16.2555 25.1749 14.6869 25.7976 13.7732 24.8594C13.5905 24.6718 13.2864 23.9684 12.4547 21.8101C11.86 20.2671 11.3461 19.0216 11.3127 19.0423C11.0469 19.2065 9.53009 22.2948 9.0174 23.7158C4.26264 36.8938 11.6227 51.4131 25.0602 55.3637C35.5829 58.4574 47.0385 54.0641 52.7 44.7637C62.0265 29.4429 52.3852 9.81236 34.535 7.7777C33.1851 7.62379 32.9135 7.53655 32.5906 7.15296C31.9792 6.42671 32.1928 5.41831 33.0394 5.03371C33.3861 4.87614 33.5714 4.88105 35.3436 5.09421ZM20.8585 20.5146C19.2019 21.0351 18.8513 23.0937 20.2665 23.9907C20.782 24.3175 21.0606 24.3776 22.0627 24.3781C22.9081 24.3785 22.94 24.3847 22.9755 24.5539C23.5897 27.4771 24.6212 29.4355 26.5508 31.3417C27.0201 31.8053 27.3916 32.1923 27.3763 32.2016C27.1132 32.3633 26.1583 33.2834 25.7529 33.766C24.4249 35.3471 23.4913 37.2448 23.1087 39.1409L22.9648 39.8546L21.9587 39.8946C20.7975 39.9406 20.4312 40.064 19.9106 40.5844C18.982 41.5126 19.2908 42.9538 20.5621 43.6247L20.9527 43.8309L31.4778 43.8518C40.8815 43.8704 42.0423 43.8595 42.3726 43.7499C44.2085 43.1403 44.3223 40.9152 42.5585 40.1143C42.236 39.9679 41.9997 39.9322 41.1931 39.9081L40.2177 39.879L40.0362 39.0482C39.5343 36.7504 38.4723 34.8303 36.7472 33.1014L35.7656 32.1175L36.3028 31.6652C38.045 30.1986 39.509 27.6721 40.051 25.1972L40.2216 24.4175L41.2341 24.3785C42.1423 24.3435 42.2925 24.3169 42.6934 24.1202C44.2567 23.3528 44.1801 21.3667 42.5585 20.6207L42.1685 20.4413L31.6776 20.4265C23.1647 20.4144 21.1248 20.431 20.8585 20.5146ZM42.1527 21.4432C42.811 21.7181 43.0799 22.3907 42.734 22.8973C42.4038 23.3807 42.1732 23.4429 40.712 23.4429H39.4091L39.3599 23.8133C38.9157 27.1605 37.3367 29.8424 34.6976 31.7322L34.0905 32.1669L34.6953 32.5748C37.23 34.2845 38.8179 36.9939 39.3617 40.5368L39.4066 40.8292H40.6587C42.0264 40.8292 42.235 40.8782 42.6316 41.2919C43.0795 41.7592 42.9197 42.4537 42.2867 42.7899C41.923 42.9831 21.496 43.0187 21.0477 42.8269C20.4091 42.5538 20.1358 41.9151 20.4441 41.4164C20.7571 40.9103 21.0401 40.8292 22.494 40.8292H23.7684L23.865 40.147C24.2966 37.1007 26.0295 34.2337 28.4198 32.6111L29.0983 32.1506L28.4575 31.7173C26.1003 30.1238 24.28 27.1227 23.876 24.1641L23.7775 23.4429L22.4821 23.4417C21.2855 23.4404 21.1635 23.4271 20.8828 23.2663C20.0847 22.8089 20.164 21.8351 21.0307 21.4484C21.3796 21.2927 41.7804 21.2878 42.1527 21.4432ZM25.0477 23.7497C25.0477 24.0351 25.2852 25.0425 25.5191 25.7488C26.5238 28.7827 29.1168 31.3124 31.3675 31.4543C34.0931 31.6263 37.2134 28.3708 37.9943 24.5405C38.0808 24.1163 38.1515 23.7309 38.1515 23.6841C38.1515 23.6231 36.2869 23.5989 31.5996 23.5989C25.1735 23.5989 25.0477 23.6018 25.0477 23.7497ZM37.0595 24.5694C37.0595 25.1032 36.1246 27.0931 35.4544 27.9857C32.937 31.3384 30.2478 31.3344 27.7162 27.974C27.044 27.0817 26.1396 25.1581 26.1396 24.6204C26.1396 24.5586 27.6733 24.5345 31.5996 24.5345C34.6026 24.5345 37.0595 24.5502 37.0595 24.5694ZM30.5076 32.9417C28.5522 33.5937 26.6818 35.5603 25.6977 37.9991C25.4327 38.6558 25.0498 40.1291 25.0484 40.4978L25.0477 40.6733H31.5996C37.405 40.6733 38.1515 40.6598 38.1515 40.555C38.1515 40.2997 37.8129 38.8932 37.6266 38.3749C36.7618 35.9688 34.9066 33.8392 32.9863 33.0487C32.3289 32.778 31.1512 32.7271 30.5076 32.9417ZM32.0337 33.7413C34.0353 34.1085 36.3944 36.8481 37.013 39.5233L37.0625 39.7377H31.6011C27.6737 39.7377 26.1396 39.7135 26.1396 39.6518C26.1396 39.6044 26.2439 39.2546 26.3715 38.8742C27.292 36.1277 29.4224 33.9742 31.5267 33.6629C31.5511 33.6594 31.7792 33.6946 32.0337 33.7413Z" fill="black"/>
<path fill-rule="evenodd" clip-rule="evenodd" d="M33.0267 4.03209C31.3169 4.37685 30.7262 6.71963 32.0432 7.933C32.5571 8.40649 32.9405 8.54339 34.1151 8.67274C42.2956 9.5737 49.1224 14.1751 52.7602 21.24C60.7071 36.6734 49.754 55.0612 32.4186 55.3887C16.845 55.683 5.39831 41.2256 9.25311 26.1302C9.75013 24.1838 11.0909 20.9261 11.2416 21.2989C11.2763 21.3847 11.6049 22.2339 11.9719 23.1861C12.7258 25.1425 12.8865 25.4275 13.4527 25.8129C15.2071 27.0065 17.633 25.4519 17.1755 23.427C17.0938 23.0652 13.919 14.7847 13.5257 13.9078C13.0503 12.8474 11.763 12.2581 10.6568 12.5945C9.8268 12.8468 1.23791 16.2353 0.984881 16.4102C-0.889207 17.7057 0.0956899 20.7409 2.38887 20.737C2.89204 20.7361 3.08688 20.677 4.87275 19.9844C5.93861 19.571 6.83755 19.2328 6.87039 19.2328C6.90323 19.2328 6.79083 19.5222 6.62056 19.876C0.716096 32.1445 4.5872 47.0323 15.7313 54.9155C25.4375 61.7814 38.5921 61.7506 48.245 54.8394C62.2411 44.8187 64.033 24.7655 52.0354 12.4201C48.1024 8.37312 43.0275 5.60239 37.5343 4.503C35.6715 4.13025 33.6088 3.91467 33.0267 4.03209ZM35.3436 5.09421C52.0678 7.10603 62.9898 24.2268 57.7919 40.2834C53.5328 53.4403 40.1049 61.3316 26.6104 58.6082C13.4274 55.9476 4.0554 43.885 4.84499 30.5939C5.12516 25.8785 6.34023 21.9647 8.8412 17.7222C8.96444 17.5131 9.01974 17.3602 8.96405 17.3825C7.45164 17.9855 2.85819 19.7425 2.65477 19.7958C1.54905 20.0855 0.559317 18.7366 1.10009 17.6769C1.34391 17.1993 1.462 17.1448 6.37611 15.2472C11.8673 13.1266 11.8456 13.1309 12.5115 14.0225C12.835 14.4556 16.256 23.4561 16.256 23.8738C16.2555 25.1749 14.6869 25.7976 13.7732 24.8594C13.5905 24.6718 13.2864 23.9684 12.4547 21.8101C11.86 20.2671 11.3461 19.0216 11.3127 19.0423C11.0469 19.2065 9.53009 22.2948 9.0174 23.7158C4.26264 36.8938 11.6227 51.4131 25.0602 55.3637C35.5829 58.4574 47.0385 54.0641 52.7 44.7637C62.0265 29.4429 52.3852 9.81236 34.535 7.7777C33.1851 7.62379 32.9135 7.53655 32.5906 7.15296C31.9792 6.42671 32.1928 5.41831 33.0394 5.03371C33.3861 4.87614 33.5714 4.88105 35.3436 5.09421ZM20.8585 20.5146C19.2019 21.0351 18.8513 23.0937 20.2665 23.9907C20.782 24.3175 21.0606 24.3776 22.0627 24.3781C22.9081 24.3785 22.94 24.3847 22.9755 24.5539C23.5897 27.4771 24.6212 29.4355 26.5508 31.3417C27.0201 31.8053 27.3916 32.1923 27.3763 32.2016C27.1132 32.3633 26.1583 33.2834 25.7529 33.766C24.4249 35.3471 23.4913 37.2448 23.1087 39.1409L22.9648 39.8546L21.9587 39.8946C20.7975 39.9406 20.4312 40.064 19.9106 40.5844C18.982 41.5126 19.2908 42.9538 20.5621 43.6247L20.9527 43.8309L31.4778 43.8518C40.8815 43.8704 42.0423 43.8595 42.3726 43.7499C44.2085 43.1403 44.3223 40.9152 42.5585 40.1143C42.236 39.9679 41.9997 39.9322 41.1931 39.9081L40.2177 39.879L40.0362 39.0482C39.5343 36.7504 38.4723 34.8303 36.7472 33.1014L35.7656 32.1175L36.3028 31.6652C38.045 30.1986 39.509 27.6721 40.051 25.1972L40.2216 24.4175L41.2341 24.3785C42.1423 24.3435 42.2925 24.3169 42.6934 24.1202C44.2567 23.3528 44.1801 21.3667 42.5585 20.6207L42.1685 20.4413L31.6776 20.4265C23.1647 20.4144 21.1248 20.431 20.8585 20.5146ZM42.1527 21.4432C42.811 21.7181 43.0799 22.3907 42.734 22.8973C42.4038 23.3807 42.1732 23.4429 40.712 23.4429H39.4091L39.3599 23.8133C38.9157 27.1605 37.3367 29.8424 34.6976 31.7322L34.0905 32.1669L34.6953 32.5748C37.23 34.2845 38.8179 36.9939 39.3617 40.5368L39.4066 40.8292H40.6587C42.0264 40.8292 42.235 40.8782 42.6316 41.2919C43.0795 41.7592 42.9197 42.4537 42.2867 42.7899C41.923 42.9831 21.496 43.0187 21.0477 42.8269C20.4091 42.5538 20.1358 41.9151 20.4441 41.4164C20.7571 40.9103 21.0401 40.8292 22.494 40.8292H23.7684L23.865 40.147C24.2966 37.1007 26.0295 34.2337 28.4198 32.6111L29.0983 32.1506L28.4575 31.7173C26.1003 30.1238 24.28 27.1227 23.876 24.1641L23.7775 23.4429L22.4821 23.4417C21.2855 23.4404 21.1635 23.4271 20.8828 23.2663C20.0847 22.8089 20.164 21.8351 21.0307 21.4484C21.3796 21.2927 41.7804 21.2878 42.1527 21.4432ZM25.0477 23.7497C25.0477 24.0351 25.2852 25.0425 25.5191 25.7488C26.5238 28.7827 29.1168 31.3124 31.3675 31.4543C34.0931 31.6263 37.2134 28.3708 37.9943 24.5405C38.0808 24.1163 38.1515 23.7309 38.1515 23.6841C38.1515 23.6231 36.2869 23.5989 31.5996 23.5989C25.1735 23.5989 25.0477 23.6018 25.0477 23.7497ZM37.0595 24.5694C37.0595 25.1032 36.1246 27.0931 35.4544 27.9857C32.937 31.3384 30.2478 31.3344 27.7162 27.974C27.044 27.0817 26.1396 25.1581 26.1396 24.6204C26.1396 24.5586 27.6733 24.5345 31.5996 24.5345C34.6026 24.5345 37.0595 24.5502 37.0595 24.5694ZM30.5076 32.9417C28.5522 33.5937 26.6818 35.5603 25.6977 37.9991C25.4327 38.6558 25.0498 40.1291 25.0484 40.4978L25.0477 40.6733H31.5996C37.405 40.6733 38.1515 40.6598 38.1515 40.555C38.1515 40.2997 37.8129 38.8932 37.6266 38.3749C36.7618 35.9688 34.9066 33.8392 32.9863 33.0487C32.3289 32.778 31.1512 32.7271 30.5076 32.9417ZM32.0337 33.7413C34.0353 34.1085 36.3944 36.8481 37.013 39.5233L37.0625 39.7377H31.6011C27.6737 39.7377 26.1396 39.7135 26.1396 39.6518C26.1396 39.6044 26.2439 39.2546 26.3715 38.8742C27.292 36.1277 29.4224 33.9742 31.5267 33.6629C31.5511 33.6594 31.7792 33.6946 32.0337 33.7413Z" fill="url(#paint0_linear_965_2945)"/>
<defs>
<linearGradient id="paint0_linear_965_2945" x1="15.5" y1="8.2033" x2="39.6829" y2="59.5038" gradientUnits="userSpaceOnUse">
<stop stop-color="#9934BD"/>
<stop offset="1" stop-color="#4479E0"/>
</linearGradient>
</defs>
</svg>
