<svg width="60" height="60" viewBox="0 0 60 60" fill="none" xmlns="http://www.w3.org/2000/svg">
<g clip-path="url(#clip0_160_6185)">
<path d="M30.6773 5.02133C30.1564 5.02133 29.6568 4.80949 29.2885 4.43242C28.9201 4.05535 28.7132 3.54393 28.7132 3.01067C28.7132 2.4774 28.9201 1.96598 29.2885 1.58891C29.6568 1.21184 30.1564 1 30.6773 1C36.908 1.00128 42.9644 3.10539 47.9089 6.98653C52.8534 10.8677 56.41 16.3093 58.0281 22.4689C59.6461 28.6284 59.2354 35.1622 56.8594 41.0587C54.4835 46.9551 50.2748 51.8851 44.8852 55.0854C39.4955 58.2858 33.2256 59.5778 27.0461 58.7615C20.8667 57.9452 15.1225 55.0661 10.703 50.57C6.28355 46.0739 3.43532 40.2116 2.59935 33.8909C1.76339 27.5702 2.98634 21.1436 6.07883 15.6063L4.24693 16.3217C3.65339 16.553 2.99437 16.5336 2.41485 16.2675C1.83534 16.0015 1.38279 15.5107 1.15677 14.9031C0.930751 14.2955 0.94977 13.6208 1.20964 13.0276C1.46952 12.4343 1.94896 11.971 2.5425 11.7397L8.77475 9.32299C9.00495 9.22517 9.24869 9.16483 9.49712 9.14416C10.0681 9.04457 10.655 9.16339 11.146 9.47799C11.637 9.79259 11.9979 10.281 12.16 10.8503L14.1146 17.3802C14.273 17.9928 14.1929 18.6444 13.8912 19.1978C13.5895 19.7511 13.0897 20.163 12.4972 20.3466C11.9047 20.5301 11.2658 20.4711 10.7149 20.182C10.1641 19.8928 9.74443 19.396 9.54433 18.7963L9.29882 17.9167C6.70463 22.715 5.72347 28.2533 6.5065 33.6786C7.28952 39.1039 9.79328 44.1152 13.6321 47.9405C17.4709 51.7658 22.4318 54.1929 27.7507 54.848C33.0695 55.503 38.4512 54.3497 43.0668 51.5656C47.6823 48.7816 51.2757 44.5212 53.2933 39.4408C55.311 34.3605 55.641 28.7419 54.2326 23.4506C52.8241 18.1594 49.7553 13.4889 45.4989 10.1588C41.2424 6.82859 36.0345 5.02342 30.6773 5.02133V5.02133ZM20.3799 41.6241C19.3507 41.6241 18.515 40.9136 18.515 40.0388C18.515 39.164 19.3507 38.4535 20.3799 38.4535H22.1694C22.4339 36.19 23.3232 34.0507 24.7331 32.2861C25.435 31.3937 26.2718 30.6219 27.2118 30C26.271 29.3675 25.4343 28.586 24.7331 27.6848C23.3241 25.9216 22.4348 23.7841 22.1694 21.5223H20.3799C19.3507 21.5223 18.515 20.8118 18.515 19.9322C18.515 19.0525 19.3507 18.3468 20.3799 18.3468H40.9227C41.952 18.3468 42.8113 19.0573 42.8113 19.9322C42.8113 20.807 41.9756 21.5223 40.9227 21.5223H39.1286C38.8648 23.7836 37.9772 25.9212 36.5696 27.6848C35.8667 28.5862 35.0284 29.3676 34.0862 30C35.0294 30.6291 35.8679 31.4091 36.5696 32.3103C37.9782 34.0751 38.8659 36.2146 39.1286 38.4776H40.9227C41.952 38.4776 42.8113 39.1881 42.8113 40.063C42.8113 40.9378 41.9756 41.6483 40.9227 41.6483L20.3799 41.6241ZM36.8812 38.323C36.6116 36.6293 35.9096 35.0386 34.8463 33.712C33.6282 32.1653 32.0701 31.1116 30.6537 31.1116C29.2373 31.1116 27.6839 32.1653 26.4658 33.712C25.401 35.0382 24.6974 36.6289 24.4262 38.323H36.8812ZM34.8463 26.2396C35.9088 24.9107 36.6107 23.3187 36.8812 21.6238H24.4215C24.6936 23.3191 25.3971 24.9111 26.4611 26.2396C27.6792 27.7863 29.2326 28.8351 30.649 28.8351C32.0654 28.8351 33.6235 27.7863 34.8416 26.2396H34.8463Z" stroke="black"/>
<path d="M30.6773 5.02133C30.1564 5.02133 29.6568 4.80949 29.2885 4.43242C28.9201 4.05535 28.7132 3.54393 28.7132 3.01067C28.7132 2.4774 28.9201 1.96598 29.2885 1.58891C29.6568 1.21184 30.1564 1 30.6773 1C36.908 1.00128 42.9644 3.10539 47.9089 6.98653C52.8534 10.8677 56.41 16.3093 58.0281 22.4689C59.6461 28.6284 59.2354 35.1622 56.8594 41.0587C54.4835 46.9551 50.2748 51.8851 44.8852 55.0854C39.4955 58.2858 33.2256 59.5778 27.0461 58.7615C20.8667 57.9452 15.1225 55.0661 10.703 50.57C6.28355 46.0739 3.43532 40.2116 2.59935 33.8909C1.76339 27.5702 2.98634 21.1436 6.07883 15.6063L4.24693 16.3217C3.65339 16.553 2.99437 16.5336 2.41485 16.2675C1.83534 16.0015 1.38279 15.5107 1.15677 14.9031C0.930751 14.2955 0.94977 13.6208 1.20964 13.0276C1.46952 12.4343 1.94896 11.971 2.5425 11.7397L8.77475 9.32299C9.00495 9.22517 9.24869 9.16483 9.49712 9.14416C10.0681 9.04457 10.655 9.16339 11.146 9.47799C11.637 9.79259 11.9979 10.281 12.16 10.8503L14.1146 17.3802C14.273 17.9928 14.1929 18.6444 13.8912 19.1978C13.5895 19.7511 13.0897 20.163 12.4972 20.3466C11.9047 20.5301 11.2658 20.4711 10.7149 20.182C10.1641 19.8928 9.74443 19.396 9.54433 18.7963L9.29882 17.9167C6.70463 22.715 5.72347 28.2533 6.5065 33.6786C7.28952 39.1039 9.79328 44.1152 13.6321 47.9405C17.4709 51.7658 22.4318 54.1929 27.7507 54.848C33.0695 55.503 38.4512 54.3497 43.0668 51.5656C47.6823 48.7816 51.2757 44.5212 53.2933 39.4408C55.311 34.3605 55.641 28.7419 54.2326 23.4506C52.8241 18.1594 49.7553 13.4889 45.4989 10.1588C41.2424 6.82859 36.0345 5.02342 30.6773 5.02133V5.02133ZM20.3799 41.6241C19.3507 41.6241 18.515 40.9136 18.515 40.0388C18.515 39.164 19.3507 38.4535 20.3799 38.4535H22.1694C22.4339 36.19 23.3232 34.0507 24.7331 32.2861C25.435 31.3937 26.2718 30.6219 27.2118 30C26.271 29.3675 25.4343 28.586 24.7331 27.6848C23.3241 25.9216 22.4348 23.7841 22.1694 21.5223H20.3799C19.3507 21.5223 18.515 20.8118 18.515 19.9322C18.515 19.0525 19.3507 18.3468 20.3799 18.3468H40.9227C41.952 18.3468 42.8113 19.0573 42.8113 19.9322C42.8113 20.807 41.9756 21.5223 40.9227 21.5223H39.1286C38.8648 23.7836 37.9772 25.9212 36.5696 27.6848C35.8667 28.5862 35.0284 29.3676 34.0862 30C35.0294 30.6291 35.8679 31.4091 36.5696 32.3103C37.9782 34.0751 38.8659 36.2146 39.1286 38.4776H40.9227C41.952 38.4776 42.8113 39.1881 42.8113 40.063C42.8113 40.9378 41.9756 41.6483 40.9227 41.6483L20.3799 41.6241ZM36.8812 38.323C36.6116 36.6293 35.9096 35.0386 34.8463 33.712C33.6282 32.1653 32.0701 31.1116 30.6537 31.1116C29.2373 31.1116 27.6839 32.1653 26.4658 33.712C25.401 35.0382 24.6974 36.6289 24.4262 38.323H36.8812ZM34.8463 26.2396C35.9088 24.9107 36.6107 23.3187 36.8812 21.6238H24.4215C24.6936 23.3191 25.3971 24.9111 26.4611 26.2396C27.6792 27.7863 29.2326 28.8351 30.649 28.8351C32.0654 28.8351 33.6235 27.7863 34.8416 26.2396H34.8463Z" stroke="url(#paint0_linear_160_6185)"/>
</g>
<defs>
<linearGradient id="paint0_linear_160_6185" x1="15.9833" y1="5.35" x2="42.0833" y2="57.0667" gradientUnits="userSpaceOnUse">
<stop stop-color="#9934BD"/>
<stop offset="1" stop-color="#4479E0"/>
</linearGradient>
<clipPath id="clip0_160_6185">
<rect width="60" height="60" fill="white"/>
</clipPath>
</defs>
</svg>
