<?xml version="1.0" standalone="no"?>
<!DOCTYPE svg PUBLIC "-//W3C//DTD SVG 20010904//EN"
"http://www.w3.org/TR/2001/REC-SVG-20010904/DTD/svg10.dtd">
<svg width="24" height="24" viewBox="0 0 24 24" fill="none" xmlns="http://www.w3.org/2000/svg">
<path d="M21.6 5.45154C20.894 5.7644 20.1355 5.9758 19.3381 6.07135C20.1608 5.57904 20.7764 4.80421 21.0698 3.89142C20.2968 4.35057 19.4508 4.67376 18.5686 4.84694C17.9753 4.21348 17.1895 3.79361 16.3331 3.65252C15.4768 3.51143 14.5978 3.65701 13.8326 4.06667C13.0675 4.47633 12.459 5.12713 12.1016 5.91805C11.7443 6.70897 11.658 7.59574 11.8563 8.4407C10.29 8.36206 8.75771 7.95495 7.35893 7.2458C5.96015 6.53665 4.72611 5.5413 3.7369 4.32436C3.39867 4.90782 3.20418 5.58429 3.20418 6.30474C3.2038 6.9533 3.36352 7.59193 3.66915 8.16397C3.97479 8.736 4.4169 9.22375 4.95625 9.58394C4.33074 9.56404 3.71904 9.39502 3.17205 9.09096V9.1417C3.17199 10.0513 3.48664 10.933 4.06261 11.637C4.63859 12.3411 5.44041 12.8242 6.33203 13.0044C5.75177 13.1614 5.14341 13.1845 4.5529 13.072C4.80446 13.8547 5.29448 14.5391 5.95436 15.0295C6.61423 15.5198 7.41093 15.7916 8.23291 15.8067C6.83755 16.902 5.11428 17.4962 3.34032 17.4936C3.02608 17.4937 2.71211 17.4753 2.40002 17.4386C4.20069 18.5964 6.2968 19.2108 8.43755 19.2085C15.6843 19.2085 19.6459 13.2065 19.6459 8.00099C19.6459 7.83188 19.6416 7.66107 19.634 7.49195C20.4046 6.93468 21.0698 6.24461 21.5983 5.45407L21.6 5.45154Z" fill="white"/>
</svg>
