<?xml version="1.0" encoding="UTF-8" standalone="no"?><svg xmlns="http://www.w3.org/2000/svg" xmlns:xlink="http://www.w3.org/1999/xlink" contentStyleType="text/css" height="616px" preserveAspectRatio="none" style="width:591px;height:616px;background:#FFFFFF;" version="1.1" viewBox="0 0 591 616" width="591px" zoomAndPan="magnify"><defs/><g><rect height="26.4883" style="stroke:#00000000;stroke-width:1.0;fill:none;" width="133" x="228" y="10"/><text fill="#000000" font-family="sans-serif" font-size="14" font-weight="bold" lengthAdjust="spacing" textLength="123" x="233" y="28.5352">jest --runInBand</text><rect fill="#FFFFFF" height="366.7266" style="stroke:#181818;stroke-width:1.0;" width="10" x="86" y="150.2871"/><rect fill="#FFFFFF" height="29.3105" style="stroke:#181818;stroke-width:1.0;" width="10" x="185" y="179.5977"/><rect fill="#FFFFFF" height="29.3105" style="stroke:#181818;stroke-width:1.0;" width="10" x="293" y="238.2188"/><rect fill="#FFFFFF" height="161.5527" style="stroke:#181818;stroke-width:1.0;" width="10" x="390" y="296.8398"/><rect fill="#FFFFFF" height="29.3105" style="stroke:#181818;stroke-width:1.0;" width="10" x="509.5" y="487.7031"/><rect height="88.9316" style="stroke:#000000;stroke-width:1.5;fill:none;" width="402" x="42" y="341.1504"/><line style="stroke:#181818;stroke-width:0.5;fill:none;stroke-dasharray:5.0,5.0;" x1="23" x2="23" y1="118.9766" y2="535.0137"/><line style="stroke:#181818;stroke-width:0.5;fill:none;stroke-dasharray:5.0,5.0;" x1="91" x2="91" y1="118.9766" y2="535.0137"/><line style="stroke:#181818;stroke-width:0.5;fill:none;stroke-dasharray:5.0,5.0;" x1="190" x2="190" y1="118.9766" y2="535.0137"/><line style="stroke:#181818;stroke-width:0.5;fill:none;stroke-dasharray:5.0,5.0;" x1="298" x2="298" y1="118.9766" y2="535.0137"/><line style="stroke:#181818;stroke-width:0.5;fill:none;stroke-dasharray:5.0,5.0;" x1="395" x2="395" y1="118.9766" y2="535.0137"/><line style="stroke:#181818;stroke-width:0.5;fill:none;stroke-dasharray:5.0,5.0;" x1="514" x2="514" y1="118.9766" y2="535.0137"/><text fill="#000000" font-family="sans-serif" font-size="14" lengthAdjust="spacing" textLength="31" x="5" y="116.0234">User</text><ellipse cx="23.5" cy="50.9883" fill="#E2E2F0" rx="8" ry="8" style="stroke:#181818;stroke-width:0.5;"/><path d="M23.5,58.9883 L23.5,85.9883 M10.5,66.9883 L36.5,66.9883 M23.5,85.9883 L10.5,100.9883 M23.5,85.9883 L36.5,100.9883 " fill="none" style="stroke:#181818;stroke-width:0.5;"/><text fill="#000000" font-family="sans-serif" font-size="14" lengthAdjust="spacing" textLength="31" x="5" y="547.5488">User</text><ellipse cx="23.5" cy="559.002" fill="#E2E2F0" rx="8" ry="8" style="stroke:#181818;stroke-width:0.5;"/><path d="M23.5,567.002 L23.5,594.002 M10.5,575.002 L36.5,575.002 M23.5,594.002 L10.5,609.002 M23.5,594.002 L36.5,609.002 " fill="none" style="stroke:#181818;stroke-width:0.5;"/><text fill="#000000" font-family="sans-serif" font-size="14" lengthAdjust="spacing" textLength="72" x="52" y="116.0234">Jest (main)</text><path d="M70.5,74.4883 L70.5,98.4883 M70.5,86.4883 L87.5,86.4883 " fill="none" style="stroke:#181818;stroke-width:0.5;"/><ellipse cx="99.5" cy="86.4883" fill="#E2E2F0" rx="12" ry="12" style="stroke:#181818;stroke-width:0.5;"/><text fill="#000000" font-family="sans-serif" font-size="14" lengthAdjust="spacing" textLength="72" x="52" y="547.5488">Jest (main)</text><path d="M70.5,554.502 L70.5,578.502 M70.5,566.502 L87.5,566.502 " fill="none" style="stroke:#181818;stroke-width:0.5;"/><ellipse cx="99.5" cy="566.502" fill="#E2E2F0" rx="12" ry="12" style="stroke:#181818;stroke-width:0.5;"/><rect fill="#E2E2F0" height="30.4883" rx="2.5" ry="2.5" style="stroke:#181818;stroke-width:0.5;" width="100" x="140" y="87.4883"/><text fill="#000000" font-family="sans-serif" font-size="14" lengthAdjust="spacing" textLength="86" x="147" y="108.0234">jest.config.js</text><rect fill="#E2E2F0" height="30.4883" rx="2.5" ry="2.5" style="stroke:#181818;stroke-width:0.5;" width="100" x="140" y="534.0137"/><text fill="#000000" font-family="sans-serif" font-size="14" lengthAdjust="spacing" textLength="86" x="147" y="554.5488">jest.config.js</text><rect fill="#E2E2F0" height="30.4883" rx="2.5" ry="2.5" style="stroke:#181818;stroke-width:0.5;" width="96" x="250" y="87.4883"/><text fill="#000000" font-family="sans-serif" font-size="14" lengthAdjust="spacing" textLength="82" x="257" y="108.0234">globalSetup</text><rect fill="#E2E2F0" height="30.4883" rx="2.5" ry="2.5" style="stroke:#181818;stroke-width:0.5;" width="96" x="250" y="534.0137"/><text fill="#000000" font-family="sans-serif" font-size="14" lengthAdjust="spacing" textLength="82" x="257" y="554.5488">globalSetup</text><rect fill="#E2E2F0" height="30.4883" rx="2.5" ry="2.5" style="stroke:#181818;stroke-width:0.5;" width="78" x="356" y="87.4883"/><text fill="#000000" font-family="sans-serif" font-size="14" lengthAdjust="spacing" textLength="64" x="363" y="108.0234">reporters</text><rect fill="#E2E2F0" height="30.4883" rx="2.5" ry="2.5" style="stroke:#181818;stroke-width:0.5;" width="78" x="356" y="534.0137"/><text fill="#000000" font-family="sans-serif" font-size="14" lengthAdjust="spacing" textLength="64" x="363" y="554.5488">reporters</text><rect fill="#E2E2F0" height="30.4883" rx="2.5" ry="2.5" style="stroke:#181818;stroke-width:0.5;" width="141" x="444" y="87.4883"/><text fill="#000000" font-family="sans-serif" font-size="14" lengthAdjust="spacing" textLength="127" x="451" y="108.0234">globalTeardown.js</text><rect fill="#E2E2F0" height="30.4883" rx="2.5" ry="2.5" style="stroke:#181818;stroke-width:0.5;" width="141" x="444" y="534.0137"/><text fill="#000000" font-family="sans-serif" font-size="14" lengthAdjust="spacing" textLength="127" x="451" y="554.5488">globalTeardown.js</text><rect fill="#FFFFFF" height="366.7266" style="stroke:#181818;stroke-width:1.0;" width="10" x="86" y="150.2871"/><rect fill="#FFFFFF" height="29.3105" style="stroke:#181818;stroke-width:1.0;" width="10" x="185" y="179.5977"/><rect fill="#FFFFFF" height="29.3105" style="stroke:#181818;stroke-width:1.0;" width="10" x="293" y="238.2188"/><rect fill="#FFFFFF" height="161.5527" style="stroke:#181818;stroke-width:1.0;" width="10" x="390" y="296.8398"/><rect fill="#FFFFFF" height="29.3105" style="stroke:#181818;stroke-width:1.0;" width="10" x="509.5" y="487.7031"/><polygon fill="#181818" points="74,146.2871,84,150.2871,74,154.2871,78,150.2871" style="stroke:#181818;stroke-width:1.0;"/><line style="stroke:#181818;stroke-width:1.0;" x1="23.5" x2="80" y1="150.2871" y2="150.2871"/><text fill="#000000" font-family="sans-serif" font-size="13" lengthAdjust="spacing" textLength="39" x="30.5" y="145.5449">jest ...</text><polygon fill="#181818" points="173,175.5977,183,179.5977,173,183.5977,177,179.5977" style="stroke:#181818;stroke-width:1.0;"/><line style="stroke:#181818;stroke-width:1.0;" x1="96" x2="179" y1="179.5977" y2="179.5977"/><text fill="#000000" font-family="sans-serif" font-size="13" lengthAdjust="spacing" textLength="42" x="103" y="174.8555">import</text><polygon fill="#181818" points="107,204.9082,97,208.9082,107,212.9082,103,208.9082" style="stroke:#181818;stroke-width:1.0;"/><line style="stroke:#181818;stroke-width:1.0;" x1="101" x2="189" y1="208.9082" y2="208.9082"/><text fill="#000000" font-family="sans-serif" font-size="13" lengthAdjust="spacing" textLength="33" x="113" y="204.166">await</text><polygon fill="#181818" points="281,234.2188,291,238.2188,281,242.2188,285,238.2188" style="stroke:#181818;stroke-width:1.0;"/><line style="stroke:#181818;stroke-width:1.0;" x1="96" x2="287" y1="238.2188" y2="238.2188"/><text fill="#000000" font-family="sans-serif" font-size="13" lengthAdjust="spacing" textLength="42" x="103" y="233.4766">import</text><polygon fill="#181818" points="107,263.5293,97,267.5293,107,271.5293,103,267.5293" style="stroke:#181818;stroke-width:1.0;"/><line style="stroke:#181818;stroke-width:1.0;" x1="101" x2="297" y1="267.5293" y2="267.5293"/><text fill="#000000" font-family="sans-serif" font-size="13" lengthAdjust="spacing" textLength="33" x="113" y="262.7871">await</text><polygon fill="#181818" points="378,292.8398,388,296.8398,378,300.8398,382,296.8398" style="stroke:#181818;stroke-width:1.0;"/><line style="stroke:#181818;stroke-width:1.0;" x1="96" x2="384" y1="296.8398" y2="296.8398"/><text fill="#000000" font-family="sans-serif" font-size="13" lengthAdjust="spacing" textLength="42" x="103" y="292.0977">import</text><polygon fill="#181818" points="378,322.1504,388,326.1504,378,330.1504,382,326.1504" style="stroke:#181818;stroke-width:1.0;"/><line style="stroke:#181818;stroke-width:1.0;" x1="96" x2="384" y1="326.1504" y2="326.1504"/><text fill="#000000" font-family="sans-serif" font-size="13" lengthAdjust="spacing" textLength="77" x="103" y="321.4082">onRunStart()</text><path d="M42,341.1504 L116,341.1504 L116,348.4609 L106,358.4609 L42,358.4609 L42,341.1504 " fill="#EEEEEE" style="stroke:#000000;stroke-width:1.5;"/><rect fill="none" height="88.9316" style="stroke:#000000;stroke-width:1.5;" width="402" x="42" y="341.1504"/><text fill="#000000" font-family="sans-serif" font-size="13" font-weight="bold" lengthAdjust="spacing" textLength="29" x="57" y="354.7188">loop</text><text fill="#000000" font-family="sans-serif" font-size="11" font-weight="bold" lengthAdjust="spacing" textLength="85" x="131" y="353.7852">[every test file]</text><line style="stroke:#181818;stroke-width:1.0;" x1="96" x2="138" y1="379.7715" y2="379.7715"/><line style="stroke:#181818;stroke-width:1.0;" x1="138" x2="138" y1="379.7715" y2="392.7715"/><line style="stroke:#181818;stroke-width:1.0;" x1="97" x2="138" y1="392.7715" y2="392.7715"/><polygon fill="#181818" points="107,388.7715,97,392.7715,107,396.7715,103,392.7715" style="stroke:#181818;stroke-width:1.0;"/><text fill="#000000" font-family="sans-serif" font-size="13" lengthAdjust="spacing" textLength="63" x="103" y="375.0293">runTests()</text><polygon fill="#181818" points="378,418.082,388,422.082,378,426.082,382,422.082" style="stroke:#181818;stroke-width:1.0;"/><line style="stroke:#181818;stroke-width:1.0;" x1="96" x2="384" y1="422.082" y2="422.082"/><text fill="#000000" font-family="sans-serif" font-size="13" lengthAdjust="spacing" textLength="112" x="103" y="417.3398">onTestFileResult()</text><polygon fill="#181818" points="383,454.3926,393,458.3926,383,462.3926,387,458.3926" style="stroke:#181818;stroke-width:1.0;"/><line style="stroke:#181818;stroke-width:1.0;" x1="96" x2="389" y1="458.3926" y2="458.3926"/><text fill="#000000" font-family="sans-serif" font-size="13" lengthAdjust="spacing" textLength="108" x="103" y="453.6504">onRunComplete()</text><polygon fill="#181818" points="497.5,483.7031,507.5,487.7031,497.5,491.7031,501.5,487.7031" style="stroke:#181818;stroke-width:1.0;"/><line style="stroke:#181818;stroke-width:1.0;" x1="96" x2="503.5" y1="487.7031" y2="487.7031"/><text fill="#000000" font-family="sans-serif" font-size="13" lengthAdjust="spacing" textLength="42" x="103" y="482.9609">import</text><polygon fill="#181818" points="102,513.0137,92,517.0137,102,521.0137,98,517.0137" style="stroke:#181818;stroke-width:1.0;"/><line style="stroke:#181818;stroke-width:1.0;" x1="96" x2="513.5" y1="517.0137" y2="517.0137"/><text fill="#000000" font-family="sans-serif" font-size="13" lengthAdjust="spacing" textLength="33" x="108" y="512.2715">await</text><!--MD5=[5b156c5a8b2a00a4f777f6252147cb7a]
@startuml

title "jest - -runInBand"
actor User
boundary "Jest (main)" as Jest0
participant "jest.config.js" as jestConfig
participant "globalSetup" as globalSetup
participant "reporters" as jestReporter
participant "globalTeardown.js" as globalTeardown

User -> Jest0 : jest ...
activate Jest0
Jest0 -> jestConfig: import
activate jestConfig
jestConfig -> Jest0: await
deactivate jestConfig
Jest0 -> globalSetup: import
activate globalSetup
globalSetup -> Jest0: await
deactivate globalSetup
Jest0 -> jestReporter: import
activate jestReporter
Jest0 -> jestReporter: onRunStart()
loop every test file
  Jest0 -> Jest0: runTests()
  Jest0 -> jestReporter: onTestFileResult()
end loop
Jest0 -> jestReporter: onRunComplete()
deactivate jestReporter
Jest0 -> globalTeardown: import
activate globalTeardown
globalTeardown -> Jest0: await
deactivate globalTeardown

deactivate Jest0

@enduml

PlantUML version 1.2022.6(Tue Jun 21 20:34:49 EEST 2022)
(GPL source distribution)
Java Runtime: OpenJDK Runtime Environment
JVM: OpenJDK 64-Bit Server VM
Default Encoding: UTF-8
Language: en
Country: UA
--></g></svg>